<?xml version="1.0" encoding="utf-8"?>
<!-- Generator: Adobe Illustrator 19.0.1, SVG Export Plug-In . SVG Version: 6.00 Build 0)  -->
<svg version="1.1" id="Layer_1" xmlns="http://www.w3.org/2000/svg" xmlns:xlink="http://www.w3.org/1999/xlink" x="0px" y="0px"
	 viewBox="-147 199 316.1 216" style="enable-background:new -147 199 316.1 216;" xml:space="preserve">
<style type="text/css">
	.st0{display:none;}
	.st1{display:inline;}
	.st2{fill:#FFFFFF;}
	.st3{display:inline;fill:none;stroke:#000000;stroke-width:4;stroke-miterlimit:10;}
	.st4{fill:none;stroke:#000000;stroke-width:4;stroke-miterlimit:10;}
</style>
<g id="Layer_1_copy" class="st0">
	<g id="X7ZSNy.tif_1_" class="st1">
		<g>
			<path d="M-147,318.1c2.3-7.7,6.7-13.6,14.1-17.7c-0.7-0.5-1.3-0.9-1.8-1.5c-1.7-1.9-2.6-4.3-2.5-6.7c0.1-7.9,0.4-15.7,0.9-23.6
				c0.2-3.8,2.6-6.6,5.8-8.5c3.7-2.2,7.8-3.6,11.8-4.8c7.2-2.3,14.4-4.6,21.2-8.3c5.6-3,11.2-5.9,16.9-8.7c4-1.9,8.1-3.4,12.1-5.2
				c3.9-1.6,7.8-3.3,11.7-5c7.2-3,14.5-6,21.6-9.1c3.7-1.6,7.3-3.4,10.9-5.1c6.1-2.8,12.2-5.7,18.4-8.4c4.5-1.9,9-3.6,13.6-5.2
				c4.4-1.5,9.1-1.8,13.7-1.3c7.4,0.8,14.8,1.7,22.2,2.7c6.1,0.8,12.1,1.8,18.2,2.9c7.8,1.4,15.5,3.1,23.2,4.6
				c5.7,1.1,11.4,2.1,17.1,3.1c4.1,0.8,8.2,1.6,12.4,2.4c7.9,1.4,15.7,2.7,23.6,3.9c5.9,0.9,11.9,1.5,17.8,2.4
				c1.2,0.2,2.4,0.7,3.6,1.2c1.9,0.8,2.4,2.6,2.6,4.4c0.2,2.3,0.2,4.6,0.2,6.9c0.1,3.4,0.1,6.9,0.2,10.3c0,0.5,0.4,1,0.7,1.3
				c2.8,2.2,3.8,5.3,4.1,8.7c0.1,1.2,0.5,2.4,0.9,3.6c1,3.1,1,6.2,0.3,9.2c-0.8,3.6-2,7.1-3,10.6c-0.2,0.7-0.2,1.4-0.3,2.1
				c-0.2,4.1-1.1,8-2.3,11.8c-0.1,0.4-0.1,0.9-0.1,1.3c0.3,3.8,0.7,7.5,0.9,11.3c0.2,3.6-1.3,6.4-4.4,8.3c-3.3,1.9-5.9,4.7-8.5,7.4
				c-3.4,3.6-6.8,7.3-10.4,10.7c-2.1,2-4.6,3.4-6.9,5.3c-3.2,2.6-6.4,5.3-9.5,8c-4.7,4.1-9.3,8.3-14.1,12.2c-3.2,2.6-6.7,5-10.2,7.3
				c-7.1,4.9-14.4,9.6-21.3,14.7c-5.1,3.8-9.9,8.1-14.9,12.1c-5.2,4.2-10.3,8.6-15.5,12.7c-3,2.3-6.2,4.3-9.3,6.4
				c-2.2,1.5-4.4,3-6.7,4.4c-2.4,1.4-4.9,2-7.6,1.1c-5-1.6-9.9-3.3-14.9-5c-4-1.4-8-2.8-12-4.2c-4.7-1.8-9.4-3.6-14.1-5.4
				c-3.6-1.4-7.3-2.8-10.9-4.3c-4.9-2-9.7-4-14.5-6c-3.3-1.4-6.7-2.8-10-4.2c-4.2-1.8-8.5-3.6-12.7-5.4c-3.3-1.4-6.6-2.8-10-4.2
				c-3.5-1.5-6.9-2.9-10.4-4.4c-2.5-1-5-2.1-7.5-3.1c-2.9-1.2-5.7-2.4-8.6-3.5c-2.9-1.2-5.7-2.3-8.6-3.5c-3.6-1.4-7.3-2.8-10.9-4.2
				c-2.7-1-5.3-2-8-3.1c-4.5-1.9-6.9-5.4-6.9-10.3c-0.1-3.8,0.1-7.7,0.2-11.5c0-1.2-0.2-2.2-0.7-3.2c-1.3-2.5-2.3-5.2-3.6-7.7
				c-0.2-0.4-0.7-0.8-1.1-1C-142.8,319.6-144.8,318.9-147,318.1z M17.5,203.5c-5.4,0-10.5,1.5-15.4,3.4c-5,1.9-10,4.2-14.8,6.5
				c-3.3,1.6-6.4,3.5-9.6,5.2c-3.1,1.6-6.3,3.2-9.5,4.5c-3.6,1.5-7.4,2.6-11,4c-3.4,1.4-6.8,2.9-10.1,4.5c-4.3,1.9-8.5,3.9-12.7,5.9
				c-5.2,2.5-10.4,5-15.7,7.4c-4.2,2-8.4,4.1-12.6,5.9c-5.1,2.2-10.4,4.3-15.7,6.3c-4.7,1.8-9.6,3.3-14.3,5.2
				c-1.7,0.6-3.2,1.7-4.6,2.7c-0.9,0.7-1.9,1.7-1.2,3c0.4,0.7,1.2,1.4,2,1.8c2.6,1.3,5.4,1.6,8.2,1.9c2.2,0.3,4.5,0.5,6.7,1.2
				c5.6,1.7,11,3.8,16.6,5.5c5.3,1.6,10.6,3.2,15.9,4.5c4.4,1.1,8.8,1.8,13.2,2.6c4.6,0.9,9.1,1.7,13.7,2.8c4.4,1,8.8,2.2,13.1,3.5
				c3.4,1,6.7,2.2,10,3.3c2.1,0.7,4.2,1.5,6.3,2.2c4.3,1.5,8.7,2.9,13,4.3c3.8,1.2,7.6,2.3,11.4,3.5c3.1,1,6.3,1.8,9.3,3.1
				c4,1.8,8.2,3.1,12.6,3.4c5.4,0.4,10.6-0.1,15.6-2.1c4.5-1.8,8.8-4.1,12.8-6.9c3.8-2.6,7.6-5.3,11.3-8.1c3.7-2.7,7.2-5.5,10.8-8.4
				c3.3-2.6,6.6-5.3,9.8-8c3.3-2.7,6.6-5.5,10-8.2c3.6-2.9,7.2-5.7,11.2-8c4.7-2.7,9.5-5.1,13.9-8.2c5.6-3.8,10.8-8.2,16.2-12.3
				c3.7-2.8,7.4-5.7,11.2-8.4c2.2-1.6,4.6-3,6.9-4.6c0.5-0.4,1.1-1.2,1-1.7s-0.9-1.1-1.4-1.3c-3.9-0.9-7.9-1.7-11.8-2.4
				c-3.7-0.7-7.4-1.1-11.1-1.7c-3.3-0.5-6.6-1-9.8-1.5c-4.7-0.7-9.4-1.4-14.1-2.2c-4.4-0.8-8.7-1.7-13.1-2.6
				c-5.7-1.2-11.4-2.4-17.1-3.6c-3.4-0.7-6.8-1.5-10.2-2.1c-2.8-0.5-5.6-1-8.4-1.5c-3.3-0.5-6.7-1-10-1.4c-4.1-0.5-8.3-0.7-12.4-1.2
				C28.1,204.8,22.8,204.1,17.5,203.5z M38.7,347.9c1.7-1.3,3.2-2.4,4.6-3.6c5.2-4.1,10.5-8.2,15.7-12.4c4.2-3.4,8.3-7.1,12.6-10.4
				c5.5-4.3,11.2-8.4,16.8-12.5c5.6-4.1,11.3-8.2,17-12.3c5.3-3.8,10.1-8,14.9-12.3c4.5-4,9-8.1,13.8-11.8
				c6.4-4.9,13.1-9.5,19.7-14.3c2.1-1.5,3.5-3.5,3.7-6c0.5-5.2,0.8-10.4,0.3-15.6c-0.1-0.8-0.1-1.6-0.2-2.4c-0.3-2.6-2.1-3.5-4.2-2
				c-2,1.4-3.8,2.8-5.7,4.3c-3.2,2.7-6.3,5.5-9.6,8.1c-4.1,3.2-8.3,6.2-12.5,9.2c-4.6,3.2-9.4,6.2-14.1,9.3
				c-2.9,1.9-5.9,3.8-8.8,5.8c-4.3,3-8.5,6-12.7,9.1c-4.2,3.1-8.4,6.2-12.6,9.3c-4.1,3-8.2,6.1-12.3,9.1c-3.7,2.7-7.5,5.5-11.3,8.1
				c-3.9,2.7-7.8,5.4-11.8,8.1c-1.9,1.2-3.7,2.4-4.5,4.7c-0.3,1.1-1,2-1.6,3.3c-0.3-0.6-0.4-0.8-0.4-1.1c-0.9-3.1-1.4-3.4-4.6-3.2
				c-1.7,0.1-3.5,0.7-5.1,0.4c-5.1-1-10.2-2.4-15.3-3.6c-4.5-1.1-9-2.3-13.5-3.5c-3.4-0.9-6.8-1.9-10.1-3.1c-2.3-0.8-4.5-2-6.8-2.9
				c-2.2-0.8-4.4-1.4-6.6-2.2c-3.4-1.2-6.8-2.4-10.2-3.6c-2.6-0.9-5.2-1.6-7.8-2.4c-2.8-0.8-5.7-1.5-8.5-2.2
				c-2.7-0.6-5.5-1.1-8.3-1.7c-2.9-0.7-5.8-1.5-8.8-2.3c-4.1-1-8.1-2-12.2-3.1c-4.2-1.1-8.4-2.2-12.6-3.4c-3.7-1-7.4-2.1-11.1-3.2
				c-3-0.9-6-1.9-9-2.6c-4.4-1.1-8.9-2.1-13.3-3.2c-1.1-0.3-1.9,0-2.3,1c-0.4,0.9-0.7,1.8-0.8,2.7c-0.2,3.1-0.3,6.3-0.5,9.5
				c-0.1,1.9-0.4,3.8-0.5,5.7c0,1.6,0.7,2.9,2.1,3.7c1.3,0.7,2.7,1.4,4.1,1.8c3.8,1.2,7.7,2.2,11.6,3.3c4.2,1.2,8.5,2.2,12.7,3.5
				c3.2,1,6.3,2.1,9.4,3.3c3.3,1.3,6.5,2.8,9.9,4.1c3.7,1.4,7.5,2.8,11.2,4.1c4.3,1.5,8.6,3,13,4.4c3.7,1.2,7.3,2.4,11,3.6
				c3.5,1.1,6.9,2.3,10.4,3.5c3,1,6,2.1,9,3.2c3.9,1.4,7.7,2.9,11.5,4.3c2.9,1.1,5.7,2.2,8.6,3.1c3,1,6.1,1.8,9.2,2.6
				c3.2,0.8,6.5,1.2,9.7,2.2c6,1.9,11.9,4.1,17.8,6.1c1,0.3,2,0.4,2.7-0.5c1.2-1.7,2.6-3.4,3.4-5.3c0.8-1.7,1.5-3.7,1.4-5.5
				c-0.2-3.6-0.1-7,0.9-10.5c0.4-1.3,0.9-2.5,1.3-3.7C38.5,332,38.6,339.8,38.7,347.9z M-131.5,335.6c0,1.8,0,3.4,0,5
				c0,4.1,1.8,7,5.6,8.4c5.7,2.1,11.4,3.8,17.1,5.9c4.9,1.9,9.8,4,14.6,6.1c2.9,1.3,5.8,2.9,8.7,4.2c3.2,1.4,6.4,2.8,9.6,4.1
				c4.4,1.8,8.8,3.6,13.2,5.4c4.3,1.7,8.7,3.4,13,5.2c5.6,2.3,11.1,4.8,16.6,7.2c4.7,2.1,9.4,4.1,14.1,6.2c4.3,1.9,8.8,3.6,13.4,4.7
				c2.2,0.5,4.4,1.1,6.5,2c5.6,2.2,11.1,4.6,16.7,6.9c2.2,0.9,4.6,1.4,7,1.1c2.6-0.3,4.7-1.4,5.8-4c1-2.4,0.9-4.9,0.5-7.3
				c-0.8-4.7,0.3-8.9,2.4-13.4c0,7.7,0,15.1,0,22.7c1.8-1.2,3.3-2.3,4.9-3.3c6.1-3.8,11.4-8.4,17-12.8c4.3-3.4,8.6-6.8,13-10
				c5.3-3.8,10.7-7.5,16.1-11.2c6.2-4.3,12.3-8.8,18.6-13c4.7-3.2,9.1-6.7,13.1-10.7c4.1-4.1,8.3-8.2,12.9-11.8
				c4.8-3.8,9.1-8.2,13.6-12.4c2.6-2.4,5.2-4.9,8-7.2c1.7-1.4,3.8-2.4,5.4-3.9c2.7-2.5,3-5.8,2.5-9.5c-0.3,0.4-0.5,0.6-0.6,0.8
				c-2,2.9-3.7,6-6,8.6c-3.7,4.4-8.4,7.5-13.7,9.6c-0.9,0.3-2,0.4-2.5,1s-0.4,1.8-0.5,2.8c-3.7,0.4-7.4,0.9-11.1,1.4
				c-1.1,0.2-2.6,0.2-3.3,0.9c-3.1,3.2-5.9,6.7-9,9.8c-3.9,3.8-8.3,6.9-13.7,8.3c-1.2,0.3-2.3,0.7-3.2,1.8c-2.1,2.5-4.3,4.9-6.5,7.3
				c-1,1-2.3,1.8-3,3c-2,3.7-4.3,7.1-6.9,10.3c-2,2.5-4.3,4.8-7.3,6.2c-7.3,3.3-15.1,4.5-22.9,5.6c-4.4,0.6-8.8,1.4-13.1,2.6
				c-4.8,1.3-9.4,3.2-14.1,4.7c-5.4,1.8-10.9,1.9-16.5,1.1c-3.3-0.5-6.5-1.4-9.6-2.4c-4-1.3-7.9-2.8-11.8-4.3
				c-3.4-1.3-6.6-2.8-9.9-4.2c-0.9-0.4-1.6-0.2-2.4,0.5c-1.1,1-2.3,1.8-3.5,2.7c-0.5-0.5-0.9-1-1.2-1.4c-3.1-4-6.5-7.7-10.4-10.8
				c-0.2-0.2-0.7-0.3-1-0.3c-4.5,0.4-9,0.9-13.4,1.2c-5.9,0.4-11.8-0.1-17.5-1.7c-5-1.4-9.4-4.1-13.8-6.8c-4.1-2.5-8.1-5-12.4-7.1
				c-4.9-2.5-10.2-4.3-15.1-6.7c-3.3-1.6-6.5-3.6-9.7-5.6C-128.8,337.9-130,336.8-131.5,335.6z M52.8,351.1c0.2,0.6,0.2,1.1,0.4,1.5
				c0.6,1.8,1.9,2.8,3.3,2.4c2.1-0.6,3.7-1.8,4.3-4c0.3-1.1,0.4-2.3,0.8-3.4c0.3-1.1,0.6-2.2,1.2-3.2c1.4-2.4,3.8-2.7,5.6-0.8
				c0.7,0.8,1.4,0.7,2.1,0.2c1.6-1.1,3.3-2.2,4.7-3.5c2.8-2.7,5.3-5.7,6-9.8c0.5-2.8-0.4-5.1-2.5-7c-0.5-0.5-1.1-0.6-1.7,0
				c-1,0.9-2,1.6-3.1,2.4c-3.4,2.4-6.9,4.7-10.2,7.2c-3.4,2.6-6.6,5.4-9.9,8c-4.8,3.8-9.6,7.6-14.5,11.3c-2.6,1.9-5.5,3-8.7,2
				c-4.2-1.3-8.3-2.7-12.5-4c-4-1.2-8-2.4-12-3.5c-1.9-0.5-3.9-1-5.9-1.4c-1.9-0.4-3.7-0.8-5.7-1.3c-0.2,2,0.1,3.9,0.9,5.6
				c1.9,4.2,5.3,7,9.6,8.5c1.2,0.4,2.9,0.6,3.9,0c2.1-1.3,3.7-0.8,5.4,0.4c2,1.5,4,1.2,6.2,0.3c2.3-0.9,4.6-1.3,6.9,0
				c1.7,1,3.2,2.1,4.9,3c2,1,4.1,1.8,6.4,1.6c1.3-0.1,2.1-0.6,2.6-1.8c0.3-0.7,0.5-1.4,1-1.9c0.8-0.9,1.9-1,3.1-0.8
				c2.9,0.6,4.1,0,5.4-2.6C51.4,354.9,52,353.1,52.8,351.1z M-128.1,302.7c0.1,2.1,0.2,4.3,0.4,6.4c0.1,0.9,0.5,1.8,1,2.6
				c1.1,1.9,2.7,3.1,5,3.3c2.7,0.3,3.8,1.4,4.4,4c0.2,0.7,0.4,1.5,0.7,2.2c0.6,1.5,1.6,2.3,3.3,2.2c1.2-0.1,2.4-0.3,3.6-0.6
				c2.3-0.7,4.6-1.5,6.9-2.3c-0.2,0.3-0.6,0.6-0.9,0.8c-2,1.4-4.2,2.8-6.1,4.4c-1.4,1.1-1,1.9,0.6,2.6c2.5,1,4.8,0.1,7.1-0.6
				c2.4-0.7,4.8-1.5,7.2-2.2c1.6-0.5,3.2,0,4.6,0.8c1.3,0.8,1.6,1.6,1.1,3.1c-0.4,1.2,0.1,2,1,2.7c1.1,0.8,2.3,1.1,3.7,1.1
				c4,0,7.9-1,11.8-2c5.3-1.4,10.7-2.8,16.4-4.2c-1.3-0.5-2.3-0.8-3.3-1.2c-3.9-1.5-7.8-3-11.7-4.5c-3.6-1.4-7.3-2.8-10.9-4.1
				c-4.1-1.5-8.2-3-12.3-4.4c-4.7-1.5-9.4-2.7-14.1-4.1C-115.1,306.7-121.4,304.7-128.1,302.7z M-79.9,336.9
				c18,8.8,34.8,18.9,47.2,34.8c8.8-5.6,15.7-9.3,32-13.1c-3.2-2.1-6-4.6-7.8-8c-0.5,0.2-1,0.3-1.3,0.6c-1.8,1.3-3.7,1.3-5.6,0.3
				c-2.4-1.2-4.5-0.8-6.5,0.9c-2.5,2.2-5.3,3.3-8.6,2.1c-1.9-0.7-3.7-0.7-5.5-0.2c-1.4,0.4-2.9,0.5-4.3-0.2
				c-2.4-1.2-4.9-2.3-7.3-3.7c-2.4-1.4-4.7-3-6.3-5.3c-1.2-1.6-2.6-2.6-4.5-3.1s-3.8-1-5.7-1.6c-1.8-0.6-2.1-1.8-1.1-3.3
				c0.1-0.2,0.3-0.4,0.4-0.6c0.4-1.1,0.1-1.7-1-1.8c-0.9-0.1-1.9-0.1-2.8,0.1C-72.3,335.4-76,336.1-79.9,336.9z M-7.1,343.8
				c-4.1-1.5-8-2.9-11.8-4.3c-3.6-1.4-7.3-2.8-10.9-4.1c-3.4-1.2-6.9-2.4-10.4-3.5c-3.7-1.2-7.4-2.1-11.1-3.3
				c-1.6-0.6-2.8-0.4-4,0.7c-0.2,0.2-0.5,0.4-0.7,0.6c-2.1,2-4.3,3.9-5.4,6.7c-0.5,1.3-0.2,2.1,1.2,2.3c1.1,0.2,2.3,0.2,3.5,0.2
				c1.9,0,3.4,0.2,4.3,2.5c0.1,0.3,0.3,0.6,0.5,0.8c2.1,2.7,4.8,4.7,7.6,6.6c2.5,1.7,5.1,2.6,8.2,1.3c1.8-0.7,3.7-0.6,5.4,0.5
				c1.9,1.2,4,1.6,5.9,0.2c1.2-0.9,2.2-2,3.3-3c1.4-1.3,3-1.4,4.6-0.3c1.1,0.8,2.3,1,3.7,0.7C-10.5,347.7-8.8,345.9-7.1,343.8z
				 M80.9,338.2c15.3-10.5,31.7-18,50.5-19.2c0.2-2.1,0.3-4.1,0.6-6.1c1.1-7.1,1.3-14.2-0.3-21.2c-0.4-1.8-1.1-3.5-1.7-5.3
				c-0.5,0.8-0.8,1.5-1,2.2c-0.7,2.5-2.1,4.6-4.4,6c-1.7,1-2.8,2.5-2.5,4.7c0.1,0.7,0,1.4,0.1,2.1c0.3,2.6-0.6,4.8-2.6,6.5
				c-1.5,1.3-2.7,2.7-3.4,4.6c-0.8,2-1.9,3.8-3.9,4.9c-3.9,2.1-8.2,3.5-12.6,4.1c-0.6,0.1-1.3,0.2-1.8,0.5c-1.5,1.1-3.1,2.3-4.5,3.6
				c-2.1,1.9-3.7,2.8-5.9,1.4c-0.6-0.4-1.2-0.9-1.7-1.4c-1.1-1.2-2.2-2.5-3.4-4C84.5,327.5,84.7,333,80.9,338.2z M83,318.9
				c1.6,1.5,3.1,3,4.8,4.2c1.5,1.1,2.9,0.9,4.2-0.4c0.6-0.5,1-1.1,1.5-1.7c1.3-1.4,2.8-2.1,4.7-1.9c1,0.1,2.1,0,3.1-0.3
				c2.4-0.7,4.8-1.6,7.1-2.5c2.8-1.1,4.5-3.2,5.1-6.2c0.3-1.7,1.4-3,2.9-3.8c3.1-1.6,4.5-4.3,3.5-7.9c-0.8-3-0.1-4.3,2.8-5.6
				c2.6-1.2,4.2-4.9,2.8-8.1C111.4,296.1,97.3,307.4,83,318.9z M78.1,359.9c-0.1-0.1-0.2-0.2-0.3-0.3c-0.2,0.1-0.5,0.3-0.7,0.4
				c-5.4,4.1-11.2,7.6-17.9,9.3c-5.7,1.5-11.3,1.5-16.8-0.6c-1.3-0.5-2.6-1.2-3.8-1.9c-1.1-0.6-2.3-0.2-2.9,0.8
				c-0.7,1.1-1.4,2.3-2.4,3.2c-2.8,2.8-6.4,4.1-10.1,4.6c-7.3,1.2-14.6,0.5-21.8-1.1c-5.8-1.3-11.6-2.9-17.1-5.4
				c-1.4-0.6-2.6-0.3-3.8,0.2c-1,0.4-1.9,1-2.9,1.5c-0.7,0.4-1.5,0.8-2.4,1.3c0.6,0.3,0.9,0.4,1.2,0.6c3.9,1.5,7.8,2.9,11.7,4.4
				c5.1,1.9,10.1,3.9,15.4,4.9c5.1,0.9,10.2,1,15.2-0.6c4.7-1.5,9.3-3.5,14.1-5c3.3-1,6.6-1.9,10-2.4c7.4-1.1,14.9-1.8,22-4.1
				c2.6-0.8,5.3-1.7,7.3-3.6C74.2,364.3,76.1,362.1,78.1,359.9z M-120.4,322.9c-0.2,0.1-0.3,0.3-0.5,0.4c0.1,0.9,0,1.9,0.2,2.8
				c0.6,3,2.5,5.1,4.6,7c3.2,2.8,6.8,4.9,10.5,6.8c5,2.6,10.1,4.7,15.5,6.3c4.9,1.5,9.8,2.8,14.9,3.2c2.3,0.2,4.7,0.2,7,0.1
				c1.1,0,2.2-0.5,3.6-0.8c-0.8-0.5-1.2-0.8-1.7-1.1c-3.2-1.8-6.1-4.2-10-4.3c-0.5,0-0.9-0.1-1.4-0.2c-4.9-1.4-9.9-2.9-14.8-4.4
				c-5.5-1.7-10.7-4-15.8-6.8c-3.5-2-6.8-4.2-9.4-7.3C-118.3,323.7-119.5,323.4-120.4,322.9z M-56.4,363.1
				c-3.8-1.5-7.5-2.8-11.2-4.5c-2.8-1.2-5.3-2.9-7.1-5.5c-0.3-0.5-1.1-0.8-1.7-0.9c-1.7-0.3-3.4-0.3-5-0.7c-5.5-1.1-11-2.4-16.4-4.4
				c-6.4-2.4-12.4-5.3-17.8-9.4c-1.9-1.4-3.6-2.7-6-3c-1.6-0.2-3.1-0.8-4.7-1.3c-0.5-0.2-1-0.4-1.6-0.6c0,0.4,0.2,0.6,0.3,0.7
				c2.8,2,5.6,4.3,8.6,6.1c4,2.3,8,4.6,12.2,6.4c6.2,2.6,12,5.7,17.7,9.2c2.4,1.5,4.8,3.2,7.4,4.3c3.1,1.3,6.3,2.3,9.6,3.1
				C-66.9,364-61.6,363.5-56.4,363.1z M135.9,294.7c0.2,2.9,0.5,5.8,0.7,8.9c1.2-0.5,2.5-0.9,3.6-1.6c3.8-2.2,7.2-5.1,10-8.4
				c6.1-7.1,10.9-14.9,13.8-23.8c0.7-2.1,0.8-4.5,0.9-6.8c0-1.2-0.6-2.4-1-3.6c-0.2,0-0.3,0-0.5,0.1c0.2,3.8-1.5,6.9-3.3,10
				c-2.6,4.6-5.8,8.8-9.4,12.7C146.4,287,141.7,291.6,135.9,294.7z M96,333.4c-0.5,0.8-0.8,1.5-1.3,2.1c-2.1,2.5-4.2,5.1-6.5,7.4
				c-4.2,4.2-8.8,7.9-13.9,10.9c-3.3,2-6.8,3.7-10.4,5.2c-5,2.2-10.4,3.1-15.9,2.9c-1.2,0-2.6-0.6-3.6-0.2c-1,0.5-1.4,1.9-2.1,3
				c0,0.1,0,0.2,0,0.3c2.3,1.3,4.7,2.1,7.4,2.2c6,0.3,11.4-1.6,16.7-4c5.8-2.6,11.2-6.1,16.1-10.1c4.8-4,9.3-8.2,12.3-13.7
				C95.8,337.6,96.7,335.8,96,333.4z M30.6,364.8c-0.9,0.5-1.8,1.1-2.8,1.5c-3.1,1.2-6.4,1.3-9.7,1.3c-2.4,0-4.9-0.1-7.3-0.3
				c-5.2-0.4-10.2-1.3-15.2-2.9c-1.7-0.5-3.4-1-5.2-0.2c-1.9,0.8-3.9,1.4-6.1,2.2c0.5,0.4,0.6,0.5,0.8,0.6c2.7,1,5.3,2.1,8.1,2.8
				c3.6,1,7.2,1.8,10.8,2.3c7.4,1.2,14.8,1.5,22.2-0.2C29.8,371.2,31.6,368.9,30.6,364.8z M162.2,251.5c-0.2,0-0.3,0.1-0.5,0.1
				c0,0.5-0.1,1.1-0.1,1.6c-0.2,2.4-0.8,4.7-2.8,6.2c-2.4,1.9-4.9,3.7-7.4,5.5c-3,2.2-6.1,4.3-9,6.6c-3.4,2.6-6.8,5.4-10.2,8.1
				c-1.7,1.3-3.4,2.7-5.3,4.2c5.2,0.6,9.9-0.1,14.3-2.3c1.9-1,3.1-2.4,3.2-4.6c0.1-1.8,1.2-2.6,2.6-3.2c2.1-0.8,3.3-2.2,4.2-4.2
				c0.8-2.1,2-4,4-5.1c1.1-0.6,2.3-1,3.4-1.6c3.3-1.9,4.3-5.1,4.2-8.7C162.7,253.2,162.4,252.4,162.2,251.5z M51.5,360.4
				c1.7-0.3,3.2-0.3,4.5-0.8c3.4-1.2,6.7-2.3,9.9-3.8c9.1-4.3,17.5-9.7,24.1-17.4c1.1-1.3,2-2.8,3-4.3c-0.1-0.1-0.2-0.2-0.4-0.3
				c-4,2.5-8,5-12,7.5c-5,3.2-9.9,6.4-14.8,9.7c-1,0.7-2.2,1.4-2.8,2.4c-1.5,2.5-3.4,4.1-6.3,4.4c-1.2,0.1-2.5,0-3.7,0
				C52.7,358.6,52.2,359.4,51.5,360.4z M159.5,288.2c-0.1,0-0.2-0.1-0.3-0.1c-1.1,1.3-2.1,2.7-3.3,4c-5.4,6.1-11.2,11.5-19.1,14.3
				c-0.3,0.1-0.6,0.5-0.6,0.8c-0.3,3-0.5,5.9-0.8,9c0.6-0.2,1.2-0.4,1.6-0.6c0.5-0.2,1-0.6,1.6-0.8c5.6-2.6,10.1-6.5,13.3-11.7
				c2.4-3.9,4.3-8.1,6.5-12.2C158.8,290,159.1,289.1,159.5,288.2z M162,261.6c-0.4,0.5-0.7,1-1.1,1.5c-1.4,1.8-3.3,2.9-5.4,3.7
				c-1.1,0.4-1.8,1.1-1.9,2.4c-0.2,2.3-1.4,3.9-3.1,5.4c-1.2,1-2.6,1.9-3.3,3.1c-2.9,5.3-7.1,8.6-13.2,9.1c0.5,2,1.1,4,1.7,6.3
				C147.5,285.1,156.7,275,162,261.6z M-3.5,362.2c0,0.1,0,0.3,0.1,0.4c0.3,0.1,0.6,0.3,0.9,0.3c3.9,0.8,7.9,1.7,11.8,2.3
				c4.5,0.7,9.1,1.1,13.7,0.4c2-0.3,4.1-0.4,5.8-1.5c-0.9-0.6-1.8-1.1-2.7-1.7c-1.4-1.1-3-1.3-4.6-1c-0.7,0.2-1.5,0.4-2.2,0.6
				c-2.2,0.5-4.3,0.9-6.5-0.4c-0.7-0.4-1.8-0.7-2.6-0.5c-2.1,0.4-4.1,0.2-6-0.8c-0.3-0.2-0.7-0.3-0.9-0.3
				C1,360.8-1.2,361.5-3.5,362.2z M-119.8,319.7c-0.3-1.4-1-2.4-2.6-2.5c-0.8-0.1-1.6-0.2-2.4-0.3c-2-0.2-3.7-0.9-4.6-2.7
				c-0.5-1.2-0.9-2.4-1.1-3.7c-0.3-1.5-0.4-2.9-0.5-4.4c-3.3,0.9-8.9,5.7-9,8.3C-133.3,316.1-126.5,317.9-119.8,319.7z
				 M-107.2,331.2c9.2,5.1,19.2,8,29.5,10.1c-0.3-0.3-0.5-0.5-0.9-0.6c-2.1-1.1-4.2-2.2-6.4-3.2c-4.5-2.2-9.1-4.3-13.6-6.4
				c-0.6-0.3-1.3-0.6-1.9-0.5C-102.7,330.7-104.9,331-107.2,331.2z M-47.5,361.2c0.1-0.2,0.2-0.3,0.3-0.5c-1.5-0.9-2.9-1.9-4.4-2.6
				c-1.6-0.7-3.3-0.9-4.9-1.5c-3-1.1-6-2.2-8.9-3.4c-1.8-0.7-3.3-2.1-5.7-1.2C-64.1,357.4-55.8,359.4-47.5,361.2z M115.5,325.3
				c-3.1,0.4-5,2.1-7.1,3.9c-3.2,2.8-6.5,5.4-9.9,7.9c-1.3,0.9-2.2,2-2.7,3.7C104.1,337.6,109.5,331.2,115.5,325.3z M-134.9,318.8
				c0,6.1,9.5,12.1,15.2,13.5c-0.7-1.1-1.4-2.3-2.2-3.4c-0.3-0.4-0.6-0.7-1-1c-4.1-2.2-8.1-4.5-10.8-8.5
				C-134,319.3-134.4,319.1-134.9,318.8z M-132.1,319.6c2.3,3.5,5.7,5.6,9.2,7.3c0.2-1.5,0.4-2.8,0.6-4.4
				C-125.5,321.5-128.8,320.6-132.1,319.6z M-67,351.4c4.4,2.5,9,3.9,13.8,5.1c-0.1-0.2-0.1-0.4-0.3-0.4c-2.6-1.7-5.1-3.4-7.8-5
				c-0.8-0.5-1.7-1-2.5-1C-64.8,350.2-65.8,350.9-67,351.4z M97.7,337c3.7-3,7.2-5.8,10.7-8.7c-0.1-0.1-0.2-0.2-0.3-0.4
				c-0.3,0.1-0.7,0.1-0.9,0.3c-2.8,1.3-5.7,2.7-8.5,4c-0.8,0.4-1.2,0.8-1,1.8C97.8,334.8,97.7,335.7,97.7,337z M-97.4,328.3
				c0,0.1,0,0.2,0,0.3c1.8,0.8,3.5,1.6,5.4,2.5c0-0.6-0.1-1-0.1-1.3c-0.2-1.5-0.7-2-2.2-1.8C-95.4,327.9-96.4,328.1-97.4,328.3z
				 M62.6,349.5c0.1,0.1,0.2,0.2,0.4,0.3c1.6-1,3.1-2.1,4.8-3.2c-0.5-0.2-0.8-0.3-1.1-0.5c-0.9-0.8-1.7-0.7-2.3,0.3
				C63.7,347.3,63.2,348.4,62.6,349.5z"/>
			<path class="st2" d="M17.5,203.5c5.3,0.7,10.6,1.4,15.9,2c4.1,0.5,8.3,0.7,12.4,1.2c3.3,0.4,6.7,0.9,10,1.4
				c2.8,0.4,5.6,0.9,8.4,1.5c3.4,0.7,6.8,1.4,10.2,2.1c5.7,1.2,11.4,2.4,17.1,3.6c4.4,0.9,8.7,1.8,13.1,2.6
				c4.7,0.8,9.4,1.5,14.1,2.2c3.3,0.5,6.6,1,9.8,1.5c3.7,0.6,7.4,1,11.1,1.7c4,0.7,7.9,1.5,11.8,2.4c0.6,0.1,1.4,0.8,1.4,1.3
				c0.1,0.5-0.5,1.3-1,1.7c-2.3,1.6-4.7,3-6.9,4.6c-3.8,2.7-7.5,5.6-11.2,8.4c-5.4,4.1-10.6,8.4-16.2,12.3c-4.4,3-9.3,5.5-13.9,8.2
				c-4,2.3-7.7,5.1-11.2,8c-3.3,2.7-6.6,5.5-10,8.2c-3.3,2.7-6.5,5.4-9.8,8c-3.6,2.8-7.1,5.6-10.8,8.4c-3.7,2.8-7.5,5.5-11.3,8.1
				c-4,2.8-8.3,5.1-12.8,6.9c-5,1.9-10.3,2.5-15.6,2.1c-4.4-0.4-8.5-1.6-12.6-3.4c-3-1.3-6.2-2.1-9.3-3.1c-3.8-1.2-7.6-2.3-11.4-3.5
				c-4.3-1.4-8.7-2.9-13-4.3c-2.1-0.7-4.2-1.5-6.3-2.2c-3.3-1.1-6.7-2.3-10-3.3c-4.3-1.3-8.7-2.5-13.1-3.5
				c-4.5-1.1-9.1-1.9-13.7-2.8c-4.4-0.9-8.9-1.6-13.2-2.6c-5.4-1.3-10.7-2.9-15.9-4.5c-5.6-1.7-11-3.8-16.6-5.5
				c-2.1-0.7-4.4-0.9-6.7-1.2c-2.8-0.3-5.6-0.6-8.2-1.9c-0.8-0.4-1.6-1-2-1.8c-0.7-1.3,0.3-2.3,1.2-3c1.4-1.1,3-2.1,4.6-2.7
				c4.7-1.8,9.6-3.3,14.3-5.2c5.3-2,10.5-4.1,15.7-6.4c4.3-1.8,8.4-3.9,12.6-5.9c5.2-2.5,10.4-5,15.7-7.4c4.2-2,8.5-4,12.7-5.9
				c3.3-1.5,6.7-3.1,10.1-4.5c3.6-1.4,7.4-2.5,11-4c3.2-1.3,6.4-2.9,9.5-4.5c3.2-1.7,6.3-3.6,9.6-5.2c4.9-2.3,9.8-4.5,14.8-6.5
				C7.1,204.9,12.1,203.5,17.5,203.5z"/>
			<path class="st2" d="M38.7,347.9c-0.1-8.1-0.3-15.8-0.4-23.6c-0.4,1.2-0.9,2.5-1.3,3.7c-1,3.4-1.2,6.9-0.9,10.5
				c0.1,1.8-0.6,3.8-1.4,5.5c-0.9,1.9-2.2,3.6-3.4,5.3c-0.7,0.9-1.7,0.8-2.7,0.5c-5.9-2.1-11.8-4.2-17.8-6.1c-3.1-1-6.5-1.4-9.7-2.2
				c-3.1-0.8-6.2-1.6-9.2-2.6c-2.9-0.9-5.8-2-8.6-3.1c-3.9-1.4-7.7-2.9-11.5-4.3c-3-1.1-6-2.2-9-3.2c-3.4-1.2-6.9-2.3-10.4-3.5
				c-3.7-1.2-7.3-2.4-11-3.6c-4.3-1.4-8.7-2.9-13-4.4c-3.8-1.3-7.5-2.6-11.2-4.1c-3.3-1.3-6.5-2.8-9.9-4.1c-3.1-1.2-6.2-2.4-9.4-3.3
				c-4.2-1.3-8.5-2.4-12.7-3.5c-3.9-1.1-7.8-2.1-11.6-3.3c-1.4-0.4-2.8-1.1-4.1-1.8c-1.4-0.8-2.1-2.1-2.1-3.7c0-1.9,0.3-3.8,0.5-5.7
				c0.2-3.2,0.3-6.3,0.5-9.5c0.1-0.9,0.4-1.9,0.8-2.7c0.4-1,1.2-1.3,2.3-1c4.4,1.1,8.9,2,13.3,3.2c3,0.8,6,1.8,9,2.6
				c3.7,1.1,7.4,2.2,11.1,3.2c4.2,1.2,8.4,2.3,12.6,3.4c4.1,1.1,8.1,2.1,12.2,3.1c2.9,0.8,5.8,1.6,8.8,2.3c2.7,0.6,5.5,1.1,8.3,1.7
				c2.9,0.7,5.7,1.4,8.5,2.2c2.6,0.7,5.2,1.5,7.8,2.4c3.4,1.1,6.8,2.4,10.2,3.6c2.2,0.7,4.4,1.3,6.6,2.2c2.3,0.9,4.5,2.1,6.8,2.9
				C-10,308-6.6,309-3.2,310c4.5,1.2,9,2.4,13.5,3.5c5.1,1.3,10.2,2.6,15.3,3.6c1.6,0.3,3.4-0.2,5.1-0.4c3.2-0.3,3.7,0,4.6,3.2
				c0.1,0.2,0.2,0.5,0.4,1.1c0.7-1.3,1.3-2.2,1.6-3.3c0.8-2.3,2.6-3.4,4.5-4.7c4-2.6,7.9-5.3,11.8-8.1c3.8-2.7,7.6-5.4,11.3-8.1
				c4.1-3,8.2-6.1,12.3-9.1c4.2-3.1,8.4-6.2,12.6-9.3c4.2-3.1,8.4-6.1,12.7-9.1c2.9-2,5.9-3.9,8.8-5.8c4.7-3.1,9.5-6.1,14.1-9.3
				c4.3-2.9,8.5-6,12.5-9.2c3.3-2.6,6.4-5.4,9.6-8.1c1.8-1.5,3.7-3,5.7-4.3c2.1-1.5,3.8-0.6,4.2,2c0.1,0.8,0.1,1.6,0.2,2.4
				c0.5,5.2,0.2,10.4-0.3,15.6c-0.2,2.5-1.6,4.5-3.7,6c-6.6,4.7-13.3,9.3-19.7,14.3c-4.8,3.7-9.3,7.8-13.8,11.8
				c-4.8,4.3-9.6,8.6-14.9,12.3c-5.7,4.1-11.3,8.2-17,12.3c-5.6,4.1-11.3,8.2-16.8,12.5c-4.3,3.3-8.3,7-12.6,10.4
				c-5.2,4.2-10.4,8.3-15.7,12.4C41.9,345.5,40.4,346.6,38.7,347.9z"/>
			<path class="st2" d="M-131.5,335.6c1.5,1.2,2.7,2.3,4.1,3.2c3.2,1.9,6.3,3.9,9.7,5.6c5,2.4,10.2,4.3,15.1,6.7
				c4.3,2.1,8.3,4.6,12.4,7.1c4.4,2.7,8.8,5.4,13.8,6.8c5.7,1.6,11.6,2.1,17.5,1.7c4.5-0.3,9-0.8,13.4-1.2c0.3,0,0.7,0.1,1,0.3
				c3.9,3.2,7.4,6.8,10.4,10.8c0.4,0.5,0.8,0.9,1.2,1.4c1.2-0.9,2.4-1.7,3.5-2.7c0.8-0.7,1.4-0.9,2.4-0.5c3.3,1.4,6.6,2.9,9.9,4.2
				c3.9,1.5,7.8,3,11.8,4.3c3.1,1,6.4,1.9,9.6,2.4c5.5,0.9,11.1,0.8,16.5-1.1c4.7-1.6,9.3-3.4,14.1-4.7c4.3-1.2,8.7-1.9,13.1-2.6
				c7.8-1.1,15.6-2.2,22.9-5.6c3-1.4,5.2-3.7,7.3-6.2c2.6-3.2,4.9-6.6,6.9-10.3c0.6-1.2,2-2,3-3c2.2-2.4,4.4-4.8,6.5-7.3
				c0.9-1.1,2-1.4,3.2-1.8c5.4-1.4,9.8-4.5,13.7-8.3c3.2-3.1,5.9-6.7,9-9.8c0.7-0.7,2.2-0.7,3.3-0.9c3.7-0.5,7.4-0.9,11.1-1.4
				c0.2-1,0-2.1,0.5-2.8c0.5-0.6,1.7-0.7,2.5-1c5.3-2.1,10-5.3,13.7-9.6c2.2-2.7,4-5.7,6-8.6c0.2-0.2,0.3-0.4,0.6-0.8
				c0.5,3.7,0.1,7-2.5,9.5c-1.6,1.5-3.7,2.5-5.4,3.9c-2.7,2.3-5.3,4.8-8,7.2c-4.5,4.1-8.8,8.6-13.6,12.4c-4.6,3.7-8.8,7.7-12.9,11.8
				c-4,4-8.4,7.5-13.1,10.7c-6.3,4.2-12.4,8.7-18.6,13c-5.3,3.7-10.8,7.4-16.1,11.2c-4.4,3.2-8.7,6.6-13,10c-5.6,4.4-11,9-17,12.8
				c-1.6,1-3.1,2.1-4.9,3.3c0-7.6,0-15,0-22.7c-2.1,4.5-3.2,8.8-2.4,13.4c0.4,2.4,0.6,4.9-0.5,7.3c-1.1,2.6-3.2,3.7-5.8,4
				c-2.4,0.3-4.8-0.2-7-1.1c-5.6-2.3-11.1-4.7-16.7-6.9c-2.1-0.8-4.3-1.5-6.5-2c-4.6-1.1-9.1-2.7-13.4-4.7
				c-4.7-2.1-9.4-4.2-14.1-6.2c-5.5-2.4-11-4.9-16.6-7.2c-4.3-1.8-8.7-3.4-13-5.2c-4.4-1.8-8.8-3.6-13.2-5.4
				c-3.2-1.3-6.4-2.6-9.6-4.1c-2.9-1.3-5.7-2.9-8.7-4.2c-4.8-2.1-9.7-4.3-14.6-6.1c-5.6-2.1-11.4-3.9-17.1-5.9
				c-3.8-1.4-5.6-4.3-5.6-8.4C-131.5,339-131.5,337.4-131.5,335.6z"/>
			<path class="st2" d="M52.8,351.1c-0.8,2-1.4,3.8-2.2,5.5c-1.3,2.6-2.5,3.2-5.4,2.6c-1.2-0.2-2.3-0.1-3.1,0.8
				c-0.5,0.5-0.7,1.2-1,1.9c-0.5,1.2-1.3,1.7-2.6,1.8c-2.3,0.2-4.4-0.6-6.4-1.6c-1.7-0.9-3.3-2-4.9-3c-2.3-1.3-4.6-1-6.9,0
				c-2.1,0.9-4.1,1.2-6.2-0.3c-1.6-1.2-3.3-1.7-5.4-0.4c-1,0.6-2.7,0.4-3.9,0c-4.3-1.5-7.6-4.2-9.6-8.5c-0.8-1.7-1-3.6-0.9-5.6
				c1.9,0.4,3.8,0.8,5.7,1.3c2,0.5,3.9,0.9,5.9,1.4c4,1.1,8,2.3,12,3.5c4.2,1.3,8.3,2.8,12.5,4c3.2,1,6.2-0.1,8.7-2
				c4.9-3.7,9.7-7.5,14.5-11.3c3.3-2.6,6.5-5.5,9.9-8c3.3-2.5,6.8-4.8,10.2-7.2c1.1-0.8,2.1-1.5,3.1-2.4c0.6-0.6,1.2-0.5,1.7,0
				c2,1.9,3,4.2,2.5,7c-0.7,4-3.1,7.1-6,9.8c-1.4,1.3-3.1,2.4-4.7,3.5c-0.7,0.5-1.4,0.5-2.1-0.2c-1.8-1.9-4.2-1.6-5.6,0.8
				c-0.6,1-0.9,2.1-1.2,3.2c-0.3,1.1-0.5,2.3-0.8,3.4c-0.6,2.2-2.2,3.4-4.3,4c-1.5,0.4-2.7-0.5-3.3-2.4
				C53.1,352.2,53,351.7,52.8,351.1z"/>
			<path class="st2" d="M-128.1,302.7c6.7,2.1,13,4.1,19.4,6c4.7,1.4,9.5,2.6,14.1,4.1c4.2,1.3,8.2,2.9,12.3,4.4
				c3.7,1.3,7.3,2.7,10.9,4.1c3.9,1.5,7.8,3,11.7,4.5c1,0.4,1.9,0.7,3.3,1.2c-5.7,1.5-11.1,2.8-16.4,4.2c-3.9,1-7.7,2-11.8,2
				c-1.4,0-2.6-0.3-3.7-1.1c-0.9-0.7-1.4-1.5-1-2.7c0.5-1.4,0.2-2.3-1.1-3.1c-1.4-0.8-2.9-1.3-4.6-0.8c-2.4,0.7-4.8,1.5-7.2,2.2
				c-2.3,0.7-4.6,1.6-7.1,0.6c-1.7-0.7-2-1.5-0.6-2.6c1.9-1.6,4.1-2.9,6.1-4.4c0.3-0.2,0.6-0.5,0.9-0.8c-2.3,0.8-4.6,1.6-6.9,2.3
				c-1.2,0.3-2.4,0.6-3.6,0.6c-1.6,0.1-2.7-0.7-3.3-2.2c-0.3-0.7-0.5-1.4-0.7-2.2c-0.6-2.6-1.7-3.8-4.4-4c-2.3-0.2-3.9-1.4-5-3.3
				c-0.5-0.8-0.9-1.7-1-2.6C-127.9,306.9-128,304.7-128.1,302.7z"/>
			<path class="st2" d="M-79.9,336.9c3.9-0.8,7.6-1.5,11.3-2.2c0.9-0.2,1.9-0.1,2.8-0.1c1.1,0.1,1.5,0.8,1,1.8
				c-0.1,0.2-0.3,0.4-0.4,0.6c-1,1.6-0.6,2.7,1.1,3.3c1.8,0.7,3.8,1.1,5.7,1.6c1.9,0.5,3.4,1.5,4.5,3.1c1.6,2.3,3.9,3.9,6.3,5.3
				c2.3,1.4,4.8,2.5,7.3,3.7c1.4,0.7,2.9,0.6,4.3,0.2c1.9-0.5,3.6-0.6,5.5,0.2c3.2,1.2,6.1,0.2,8.6-2.1c2-1.8,4-2.1,6.5-0.9
				c1.9,0.9,3.8,1,5.6-0.3c0.4-0.3,0.8-0.4,1.3-0.6c1.8,3.4,4.6,5.9,7.8,8c-16.3,3.8-23.2,7.5-32,13.1
				C-45.1,355.8-61.9,345.7-79.9,336.9z"/>
			<path class="st2" d="M-7.1,343.8c-1.7,2.1-3.4,3.8-6,4.5c-1.4,0.3-2.6,0.1-3.7-0.7c-1.5-1.1-3.2-0.9-4.6,0.3
				c-1.1,1-2.1,2.1-3.3,3c-2,1.4-4,1-5.9-0.2c-1.8-1.1-3.7-1.2-5.4-0.5c-3.1,1.3-5.7,0.4-8.2-1.3c-2.8-1.9-5.5-3.9-7.6-6.6
				c-0.2-0.3-0.4-0.5-0.5-0.8c-0.8-2.3-2.4-2.5-4.3-2.5c-1.2,0-2.4,0-3.5-0.2c-1.3-0.3-1.7-1.1-1.2-2.3c1.1-2.8,3.3-4.7,5.4-6.7
				c0.2-0.2,0.5-0.4,0.7-0.6c1.2-1.1,2.3-1.3,4-0.7c3.6,1.3,7.4,2.2,11.1,3.3c3.5,1.1,6.9,2.3,10.4,3.5c3.7,1.3,7.3,2.8,10.9,4.1
				C-15,340.9-11.2,342.3-7.1,343.8z"/>
			<path class="st2" d="M80.9,338.2c3.8-5.2,3.6-10.7,1.4-16.6c1.2,1.5,2.3,2.8,3.4,4c0.5,0.5,1.1,1,1.7,1.4
				c2.2,1.4,3.8,0.5,5.9-1.4c1.4-1.3,2.9-2.4,4.5-3.6c0.5-0.3,1.2-0.4,1.8-0.5c4.4-0.6,8.7-2,12.6-4.1c2-1.1,3.1-2.9,3.9-4.9
				c0.8-1.8,1.9-3.3,3.4-4.6c2-1.7,2.9-3.8,2.6-6.5c-0.1-0.7,0-1.4-0.1-2.1c-0.3-2.2,0.9-3.6,2.5-4.7c2.3-1.4,3.7-3.5,4.4-6
				c0.2-0.7,0.5-1.4,1-2.2c0.6,1.8,1.3,3.5,1.7,5.3c1.7,7,1.4,14.1,0.3,21.2c-0.3,2-0.4,4-0.6,6.1
				C112.5,320.2,96.2,327.7,80.9,338.2z"/>
			<path class="st2" d="M83,318.9c14.3-11.5,28.4-22.8,42.5-34.1c1.4,3.2-0.2,6.8-2.8,8.1c-2.8,1.3-3.6,2.6-2.8,5.6
				c1,3.6-0.4,6.4-3.5,7.9c-1.5,0.8-2.6,2.1-2.9,3.8c-0.6,3-2.3,5.1-5.1,6.2c-2.3,0.9-4.7,1.8-7.1,2.5c-1,0.3-2.1,0.4-3.1,0.3
				c-2-0.2-3.4,0.5-4.7,1.9c-0.5,0.6-1,1.1-1.5,1.7c-1.3,1.2-2.8,1.5-4.2,0.4C86.1,321.8,84.6,320.3,83,318.9z"/>
			<path class="st2" d="M78.1,359.9c-2,2.1-3.9,4.4-6,6.4c-2,1.9-4.7,2.8-7.3,3.6c-7.2,2.3-14.6,3-22,4.1c-3.4,0.5-6.8,1.4-10,2.4
				c-4.7,1.5-9.3,3.5-14.1,5c-5,1.6-10.1,1.6-15.2,0.6c-5.3-1-10.4-2.9-15.4-4.9c-3.9-1.5-7.8-3-11.7-4.4c-0.3-0.1-0.6-0.3-1.2-0.6
				c0.9-0.5,1.7-0.9,2.4-1.3c1-0.5,1.9-1,2.9-1.5c1.2-0.5,2.4-0.9,3.8-0.2c5.5,2.5,11.2,4.1,17.1,5.4c7.2,1.6,14.5,2.3,21.8,1.1
				c3.7-0.6,7.3-1.8,10.1-4.6c0.9-0.9,1.7-2.1,2.4-3.2c0.6-1,1.8-1.4,2.9-0.8c1.3,0.6,2.5,1.4,3.8,1.9c5.5,2.1,11.2,2,16.8,0.6
				c6.7-1.7,12.5-5.2,17.9-9.3c0.2-0.2,0.5-0.3,0.7-0.4C77.9,359.7,78,359.8,78.1,359.9z"/>
			<path class="st2" d="M-120.4,322.9c0.9,0.5,2.1,0.8,2.7,1.6c2.6,3.2,5.9,5.4,9.4,7.3c5,2.8,10.3,5.1,15.8,6.8
				c4.9,1.5,9.9,2.9,14.8,4.4c0.4,0.1,0.9,0.2,1.4,0.2c3.9,0.1,6.8,2.5,10,4.3c0.5,0.3,0.9,0.6,1.7,1.1c-1.4,0.3-2.5,0.8-3.6,0.8
				c-2.3,0.1-4.7,0.1-7-0.1c-5.1-0.4-10-1.7-14.9-3.2c-5.3-1.6-10.5-3.7-15.5-6.3c-3.7-1.9-7.3-4-10.5-6.8c-2.2-1.9-4.1-4-4.6-7
				c-0.2-0.9-0.1-1.9-0.2-2.8C-120.7,323.1-120.5,323-120.4,322.9z"/>
			<path class="st2" d="M-56.4,363.1c-5.2,0.4-10.5,0.9-15.6-0.4c-3.3-0.8-6.5-1.8-9.6-3.1c-2.6-1.1-4.9-2.8-7.4-4.3
				c-5.7-3.5-11.6-6.6-17.7-9.2c-4.2-1.8-8.3-4-12.2-6.4c-3-1.8-5.7-4-8.6-6.1c-0.2-0.1-0.3-0.4-0.3-0.7c0.5,0.2,1,0.4,1.6,0.6
				c1.6,0.5,3.1,1.1,4.7,1.3c2.4,0.4,4.2,1.6,6,3c5.4,4.1,11.5,7,17.8,9.4c5.3,2,10.8,3.3,16.4,4.4c1.6,0.3,3.3,0.4,5,0.7
				c0.6,0.1,1.3,0.4,1.7,0.9c1.9,2.5,4.3,4.2,7.1,5.5C-64,360.3-60.2,361.6-56.4,363.1z"/>
			<path class="st2" d="M135.9,294.7c5.8-3.1,10.5-7.7,15-12.6c3.6-3.9,6.8-8.1,9.4-12.7c1.8-3.1,3.4-6.2,3.3-10
				c0.2,0,0.3,0,0.5-0.1c0.3,1.2,1,2.4,1,3.6c-0.1,2.3-0.2,4.7-0.9,6.8c-3,8.9-7.7,16.7-13.8,23.8c-2.9,3.3-6.2,6.2-10,8.4
				c-1.1,0.7-2.4,1.1-3.6,1.6C136.3,300.5,136.1,297.7,135.9,294.7z"/>
			<path class="st2" d="M96,333.4c0.6,2.4-0.2,4.3-1.1,6c-3,5.5-7.5,9.8-12.3,13.7c-4.9,4.1-10.3,7.5-16.1,10.1
				c-5.3,2.4-10.8,4.2-16.7,4c-2.6-0.1-5.1-0.9-7.4-2.2c0-0.2,0-0.3,0-0.3c0.7-1,1.1-2.5,2.1-3c0.9-0.5,2.4,0.1,3.6,0.2
				c5.5,0.2,10.8-0.8,15.9-2.9c3.6-1.5,7.1-3.2,10.4-5.2c5.1-3,9.7-6.7,13.9-10.9c2.3-2.3,4.4-4.9,6.5-7.4
				C95.2,334.9,95.5,334.2,96,333.4z"/>
			<path class="st2" d="M30.6,364.8c1,4.1-0.8,6.3-4.4,7.2c-7.4,1.8-14.8,1.4-22.2,0.2c-3.6-0.6-7.2-1.4-10.8-2.3
				c-2.7-0.7-5.4-1.9-8.1-2.8c-0.2-0.1-0.3-0.2-0.8-0.6c2.2-0.8,4.2-1.4,6.1-2.2c1.8-0.8,3.5-0.3,5.2,0.2c4.9,1.5,10,2.5,15.2,2.9
				c2.4,0.2,4.9,0.3,7.3,0.3c3.3,0,6.6-0.1,9.7-1.3C28.8,365.9,29.7,365.3,30.6,364.8z"/>
			<path class="st2" d="M162.2,251.5c0.2,0.9,0.5,1.7,0.5,2.6c0.1,3.6-0.9,6.7-4.2,8.7c-1.1,0.6-2.3,1-3.4,1.6c-2,1.1-3.2,3.1-4,5.1
				s-2.1,3.4-4.2,4.2c-1.4,0.5-2.6,1.4-2.6,3.2c-0.1,2.2-1.3,3.6-3.2,4.6c-4.4,2.3-9,3-14.3,2.3c1.9-1.5,3.6-2.8,5.3-4.2
				c3.4-2.7,6.7-5.5,10.2-8.1c2.9-2.3,6-4.4,9-6.6c2.5-1.8,5-3.6,7.4-5.5c2-1.5,2.6-3.8,2.8-6.2c0-0.5,0.1-1.1,0.1-1.6
				C161.9,251.6,162.1,251.5,162.2,251.5z"/>
			<path class="st2" d="M51.5,360.4c0.7-1.1,1.2-1.9,1.6-2.5c1.2,0,2.5,0.1,3.7,0c2.9-0.3,4.8-1.9,6.3-4.4c0.6-1,1.8-1.7,2.8-2.4
				c4.9-3.3,9.8-6.5,14.8-9.7c4-2.6,8-5,12-7.5c0.1,0.1,0.2,0.2,0.4,0.3c-1,1.4-1.9,3-3,4.3c-6.6,7.7-15,13.2-24.1,17.4
				c-3.2,1.5-6.6,2.7-9.9,3.8C54.7,360.1,53.2,360.1,51.5,360.4z"/>
			<path class="st2" d="M159.5,288.2c-0.4,0.9-0.7,1.8-1.2,2.7c-2.1,4.1-4.1,8.3-6.5,12.2c-3.2,5.2-7.7,9.1-13.3,11.7
				c-0.5,0.2-1,0.6-1.6,0.8c-0.5,0.2-1,0.4-1.6,0.6c0.3-3.1,0.5-6.1,0.8-9c0-0.3,0.4-0.7,0.6-0.8c7.8-2.8,13.7-8.2,19.1-14.3
				c1.1-1.3,2.2-2.7,3.3-4C159.3,288.1,159.4,288.2,159.5,288.2z"/>
			<path class="st2" d="M162,261.6c-5.4,13.3-14.5,23.4-26.4,31.5c-0.6-2.3-1.2-4.3-1.7-6.3c6.1-0.6,10.3-3.9,13.2-9.1
				c0.7-1.3,2.1-2.2,3.3-3.1c1.7-1.4,2.9-3.1,3.1-5.4c0.1-1.3,0.9-1.9,1.9-2.4c2.1-0.8,4-1.9,5.4-3.7
				C161.3,262.7,161.6,262.1,162,261.6z"/>
			<path class="st2" d="M-3.5,362.2c2.3-0.7,4.5-1.4,6.8-2c0.3-0.1,0.6,0.1,0.9,0.3c1.9,1,3.8,1.2,6,0.8c0.8-0.2,1.9,0.1,2.6,0.5
				c2.1,1.2,4.3,0.9,6.5,0.4c0.7-0.2,1.4-0.4,2.2-0.6c1.7-0.4,3.2-0.1,4.6,1c0.8,0.6,1.7,1.1,2.7,1.7c-1.7,1.1-3.8,1.2-5.8,1.5
				c-4.6,0.7-9.2,0.2-13.7-0.4c-4-0.6-7.9-1.5-11.8-2.3c-0.3-0.1-0.6-0.2-0.9-0.3C-3.4,362.5-3.5,362.3-3.5,362.2z"/>
			<path class="st2" d="M-119.8,319.7c-6.7-1.8-13.5-3.6-20.3-5.4c0.2-2.6,5.7-7.4,9-8.3c0.2,1.5,0.3,3,0.5,4.4
				c0.2,1.3,0.6,2.6,1.1,3.7c0.9,1.9,2.7,2.6,4.6,2.7c0.8,0.1,1.6,0.2,2.4,0.3C-120.8,317.4-120,318.3-119.8,319.7z"/>
			<path class="st2" d="M-107.2,331.2c2.3-0.2,4.5-0.5,6.7-0.7c0.6,0,1.3,0.2,1.9,0.5c4.6,2.1,9.1,4.2,13.6,6.4
				c2.2,1,4.3,2.1,6.4,3.2c0.3,0.2,0.6,0.4,0.9,0.6C-88,339.2-98,336.3-107.2,331.2z"/>
			<path class="st2" d="M-47.5,361.2c-8.3-1.7-16.6-3.7-23.7-9.1c2.4-1,4,0.5,5.7,1.2c2.9,1.2,5.9,2.3,8.9,3.4
				c1.6,0.6,3.4,0.8,4.9,1.5c1.6,0.7,2.9,1.7,4.4,2.6C-47.3,360.8-47.4,361-47.5,361.2z"/>
			<path class="st2" d="M115.5,325.3c-6,5.9-11.5,12.3-19.6,15.4c0.5-1.8,1.4-2.8,2.7-3.7c3.4-2.5,6.7-5.1,9.9-7.9
				C110.5,327.4,112.5,325.7,115.5,325.3z"/>
			<path class="st2" d="M-134.9,318.8c0.5,0.3,0.9,0.4,1.1,0.7c2.7,4,6.7,6.3,10.8,8.5c0.4,0.2,0.8,0.6,1,1c0.8,1.1,1.5,2.3,2.2,3.4
				C-125.4,330.9-134.9,324.9-134.9,318.8z"/>
			<path class="st2" d="M-132.1,319.6c3.3,1,6.6,2,9.9,3c-0.2,1.5-0.4,2.9-0.6,4.4C-126.4,325.1-129.7,323.1-132.1,319.6z"/>
			<path class="st2" d="M-67,351.4c1.2-0.5,2.2-1.2,3.3-1.3c0.8-0.1,1.7,0.5,2.5,1c2.6,1.6,5.2,3.4,7.8,5c0.1,0.1,0.2,0.2,0.3,0.4
				C-57.9,355.3-62.6,353.9-67,351.4z"/>
			<path class="st2" d="M97.7,337c0-1.3,0.1-2.2,0-3c-0.1-0.9,0.2-1.4,1-1.8c2.8-1.3,5.7-2.7,8.5-4c0.3-0.1,0.6-0.2,0.9-0.3
				c0.1,0.1,0.2,0.2,0.3,0.4C104.9,331.1,101.5,334,97.7,337z"/>
			<path class="st2" d="M-97.4,328.3c1-0.1,2.1-0.4,3.1-0.4c1.6-0.1,2,0.3,2.2,1.8c0,0.4,0.1,0.7,0.1,1.3c-1.9-0.9-3.7-1.7-5.4-2.5
				C-97.5,328.5-97.5,328.4-97.4,328.3z"/>
			<path class="st2" d="M62.6,349.5c0.6-1.1,1.1-2.2,1.8-3.2c0.6-0.9,1.4-1.1,2.3-0.3c0.2,0.2,0.6,0.3,1.1,0.5
				c-1.7,1.1-3.2,2.2-4.8,3.2C62.8,349.6,62.7,349.6,62.6,349.5z"/>
		</g>
	</g>
</g>
<g id="Layer_1_1_" class="st0">
	<g id="X7ZSNy.tif" class="st1">
		<g>
			<path d="M168.3,257.6c-0.4-1.2-0.8-2.4-0.9-3.6c-0.3-3.4-1.3-6.4-4.1-8.7c-0.4-0.3-0.7-0.9-0.7-1.3c-0.1-3.4-0.2-6.9-0.2-10.3
				c0-2.3,0-4.6-0.2-6.9c-0.2-1.8-0.7-3.6-2.6-4.4c-1.1-0.5-2.3-1-3.6-1.2c-5.9-0.8-11.9-1.4-17.8-2.4c-7.9-1.2-15.7-2.6-23.6-3.9
				c-4.1-0.7-8.2-1.6-12.4-2.4c-5.7-1.1-11.4-2-17.1-3.1c-7.7-1.5-15.5-3.2-23.2-4.6c-6-1.1-12.1-2-18.2-2.9
				c-7.4-1-14.8-1.9-22.2-2.7c-4.6-0.5-9.3-0.2-13.7,1.3c-4.6,1.5-9.2,3.2-13.6,5.2c-6.2,2.6-12.3,5.5-18.4,8.4
				c-3.7,1.7-7.2,3.5-10.9,5.1c-7.2,3.1-14.4,6.1-21.6,9.1c-3.9,1.6-7.8,3.3-11.7,5c-4,1.7-8.2,3.2-12.1,5.2
				c-5.7,2.8-11.3,5.7-16.9,8.7c-6.7,3.6-13.9,6-21.2,8.3c-4.1,1.3-8.1,2.6-11.8,4.8c-3.2,1.9-5.6,4.7-5.8,8.5
				c-0.5,7.8-0.8,15.7-0.9,23.6c0,2.4,0.8,4.8,2.5,6.7c0.5,0.5,1.1,0.9,1.8,1.5c-7.5,3.9-11.9,9.9-14.2,17.5
				c2.2,0.7,4.2,1.4,6.3,2.2c0.4,0.2,0.9,0.6,1.1,1c1.2,2.6,2.3,5.2,3.6,7.7c0.5,1.1,0.8,2.1,0.7,3.2c-0.1,3.8-0.2,7.7-0.2,11.5
				c0.1,4.9,2.4,8.4,6.9,10.3c2.6,1.1,5.3,2.1,8,3.1c3.6,1.4,7.3,2.8,10.9,4.2c2.9,1.1,5.8,2.3,8.6,3.5c2.9,1.2,5.7,2.3,8.6,3.5
				c2.5,1,5,2.1,7.5,3.1c3.5,1.4,6.9,2.9,10.4,4.4c3.3,1.4,6.6,2.8,10,4.2c4.2,1.8,8.4,3.6,12.7,5.4c0.9,0.4,1.9,0.8,2.8,1.2
				c0.6-1,1.3-1.9,2-2.6s1.5-1.4,2.3-1.9c-1.7-0.7-3.3-1.5-5-2.2c-4.3-1.8-8.7-3.4-13-5.2c-4.4-1.8-8.8-3.6-13.2-5.4
				c-3.2-1.3-6.4-2.6-9.6-4.1c-2.9-1.3-5.7-2.9-8.7-4.2c-4.8-2.1-9.7-4.3-14.6-6.1c-5.6-2.1-11.4-3.9-17.1-5.9
				c-3.8-1.4-5.6-4.3-5.6-8.4v-5c1.5,1.2,2.7,2.3,4.1,3.2c3.2,1.9,6.3,3.9,9.7,5.6c5,2.4,10.2,4.3,15.1,6.7
				c4.3,2.1,8.3,4.6,12.4,7.1c4.4,2.7,8.8,5.4,13.8,6.8c5.7,1.6,11.6,2.1,17.5,1.7c4.5-0.3,9-0.8,13.4-1.2c0.3,0,0.7,0.1,1,0.3
				c3.9,3.2,7.4,6.8,10.4,10.8c0.4,0.5,0.8,0.9,1.2,1.4c0.2-0.2,0.4-0.3,0.6-0.5c-2.4-4.2-4.6-8.4-6.5-12.8
				c-11.6-12.1-25.9-20.5-41.2-27.9c3.9-0.8,7.6-1.5,11.3-2.2c0.9-0.2,1.9-0.1,2.8-0.1c1.1,0.1,1.5,0.8,1,1.8
				c-0.1,0.2-0.3,0.4-0.4,0.6c-1,1.6-0.6,2.7,1.1,3.3c1.8,0.7,3.8,1.1,5.7,1.6c1.9,0.5,3.4,1.5,4.5,3.1c1.6,2.3,3.9,3.9,6.3,5.3
				c1.7,1,3.5,1.9,5.3,2.7c-0.2-1.1-0.4-2.3-0.5-3.4c-0.5-0.3-0.9-0.5-1.4-0.8c-2.8-1.9-5.5-3.9-7.6-6.6c-0.2-0.3-0.4-0.5-0.5-0.8
				c-0.8-2.3-2.4-2.5-4.3-2.5c-1.2,0-2.4,0-3.5-0.2c-1.3-0.3-1.7-1.1-1.2-2.3c1.1-2.8,3.3-4.7,5.4-6.7c0.2-0.2,0.5-0.4,0.7-0.6
				c1.2-1.1,2.3-1.3,4-0.7c3.2,1.1,6.4,1.9,9.6,2.9c0.3-1.5,0.6-2.9,0.9-4.4c-2.3-0.8-4.6-1.5-6.8-2.3c-3.7-1.2-7.3-2.4-11-3.6
				c-4.3-1.4-8.7-2.9-13-4.4c-3.8-1.3-7.5-2.6-11.2-4.1c-3.3-1.3-6.5-2.8-9.9-4.1c-3.1-1.2-6.2-2.4-9.4-3.3
				c-4.2-1.3-8.5-2.4-12.7-3.5c-3.9-1.1-7.8-2.1-11.6-3.3c-1.4-0.4-2.8-1.1-4.1-1.8c-1.4-0.8-2.1-2.1-2.1-3.7c0-1.9,0.3-3.8,0.5-5.7
				c0.2-3.2,0.3-6.3,0.5-9.5c0.1-0.9,0.4-1.9,0.8-2.7c0.4-1,1.2-1.3,2.3-1c4.4,1.1,8.9,2,13.3,3.2c3,0.8,6,1.8,9,2.6
				c3.7,1.1,7.4,2.2,11.1,3.2c4.2,1.2,8.4,2.3,12.6,3.4c4.1,1.1,8.1,2.1,12.2,3.1c2.9,0.8,5.8,1.6,8.8,2.3c2.7,0.6,5.5,1.1,8.3,1.7
				c2.9,0.7,5.7,1.4,8.5,2.2c2.6,0.7,5.2,1.5,7.8,2.4c0.7,0.2,1.5,0.5,2.2,0.8c0.1-1.6,0.1-3.2,0-4.8c0-0.1,0-0.2,0-0.3
				c-1.9-0.7-3.9-1.3-5.8-1.9c-4.3-1.3-8.7-2.5-13.1-3.5c-4.5-1.1-9.1-1.9-13.7-2.8c-4.4-0.9-8.9-1.6-13.2-2.6
				c-5.4-1.3-10.7-2.9-15.9-4.5c-5.6-1.7-11-3.8-16.6-5.5c-2.1-0.7-4.4-0.9-6.7-1.2c-2.8-0.3-5.6-0.6-8.2-1.9c-0.8-0.4-1.6-1-2-1.8
				c-0.7-1.3,0.3-2.3,1.2-3c1.4-1.1,3-2.1,4.6-2.7c4.7-1.8,9.6-3.3,14.3-5.2c5.3-2,10.5-4.1,15.7-6.4c4.3-1.8,8.4-3.9,12.6-5.9
				c5.2-2.5,10.4-5,15.7-7.4c4.2-2,8.5-4,12.7-5.9c3.3-1.5,6.7-3.1,10.1-4.5c3.6-1.4,7.4-2.5,11-4c3.2-1.3,6.4-2.9,9.5-4.5
				c3.2-1.7,6.3-3.6,9.6-5.2c4.9-2.3,9.8-4.5,14.8-6.5c4.9-1.9,10-3.4,15.4-3.4c5.3,0.7,10.6,1.4,15.9,2c4.1,0.5,8.3,0.7,12.4,1.2
				c3.3,0.4,6.7,0.9,10,1.4c2.8,0.4,5.6,0.9,8.4,1.5c3.4,0.7,6.8,1.4,10.2,2.1c5.7,1.2,11.4,2.4,17.1,3.6c4.4,0.9,8.7,1.8,13.1,2.6
				c4.7,0.8,9.4,1.5,14.1,2.2c3.3,0.5,6.6,1,9.8,1.5c3.7,0.6,7.4,1,11.1,1.7c4,0.7,7.9,1.5,11.8,2.4c0.6,0.1,1.4,0.8,1.4,1.3
				c0.1,0.5-0.5,1.3-1,1.7c-2.3,1.6-4.7,3-6.9,4.6c-3.8,2.7-7.5,5.6-11.2,8.4c-5.4,4.1-10.6,8.4-16.2,12.3c-4.4,3-9.3,5.5-13.9,8.2
				c-4,2.3-7.7,5.1-11.2,8c-3.3,2.7-6.6,5.5-10,8.2c-3.3,2.7-6.5,5.4-9.8,8l0,0c1.3,0.5,2.6,1.1,3.9,1.7c0.2-0.2,0.5-0.4,0.7-0.5
				c4.2-3.1,8.4-6.2,12.6-9.3c4.2-3.1,8.4-6.1,12.7-9.1c2.9-2,5.9-3.9,8.8-5.8c4.7-3.1,9.5-6.1,14.1-9.3c4.3-2.9,8.5-6,12.5-9.2
				c3.3-2.6,6.4-5.4,9.6-8.1c1.8-1.5,3.7-3,5.7-4.3c2.1-1.5,3.8-0.6,4.2,2c0.1,0.8,0.1,1.6,0.2,2.4c0.5,5.2,0.2,10.4-0.3,15.6
				c-0.2,2.5-1.6,4.5-3.7,6c-6.6,4.7-13.3,9.3-19.7,14.3c-4.8,3.7-9.3,7.8-13.8,11.8c-4.8,4.3-9.6,8.6-14.9,12.3
				c-3.4,2.4-6.7,4.9-10.1,7.3c0.8,1,1.5,2.1,2.2,3.2c9.4-7.5,18.7-15,28-22.5c1.4,3.2-0.2,6.8-2.8,8.1c-2.8,1.3-3.6,2.6-2.8,5.6
				c1,3.6-0.4,6.4-3.5,7.9c-1.5,0.8-2.6,2.1-2.9,3.8c-0.6,3-2.3,5.1-5.1,6.2c-1.7,0.7-3.5,1.3-5.3,1.9c0.3,0.8,0.6,1.5,0.9,2.3
				c2.8-0.7,5.5-1.8,8.1-3.2c2-1.1,3.1-2.9,3.9-4.9c0.8-1.8,1.9-3.3,3.4-4.6c2-1.7,2.9-3.8,2.6-6.5c-0.1-0.7,0-1.4-0.1-2.1
				c-0.3-2.2,0.9-3.6,2.5-4.7c2.3-1.4,3.7-3.5,4.4-6c0.2-0.7,0.5-1.4,1-2.2c0.6,1.8,1.3,3.5,1.7,5.3c1.7,7,1.4,14.1,0.3,21.2
				c-0.3,2-0.4,4-0.6,6.1c-9.2,0.6-17.7,2.6-25.9,5.8c0.4,1.2,0.7,2.5,1,3.7c0.2-0.1,0.5-0.2,0.7-0.3c0.3-0.1,0.6-0.2,0.9-0.3
				c0.1,0.1,0.2,0.2,0.3,0.4c-0.6,0.5-1.1,0.9-1.7,1.4c0.1,0.3,0.1,0.6,0.2,0.8c0.5-0.4,1-0.9,1.5-1.3c2-1.8,4-3.5,7.1-3.9
				c-2.7,2.6-5.3,5.4-8,7.9c0.3,1.6,0.6,3.2,0.8,4.8c1.1-0.9,2.2-1.8,3.2-2.9c3.2-3.1,5.9-6.7,9-9.8c0.7-0.7,2.2-0.7,3.3-0.9
				c3.7-0.5,7.4-0.9,11.1-1.4c0.2-1,0-2.1,0.5-2.8c0.5-0.6,1.7-0.7,2.5-1c5.3-2.1,10-5.3,13.7-9.6c2.2-2.7,4-5.7,6-8.6
				c0.2-0.2,0.3-0.4,0.6-0.8c0.5,3.7,0.1,7-2.5,9.5c-1.6,1.5-3.7,2.5-5.4,3.9c-2.7,2.3-5.3,4.8-8,7.2c-4.5,4.1-8.8,8.6-13.6,12.4
				c-4.6,3.7-8.8,7.7-12.9,11.8c-2.1,2.1-4.3,4.1-6.7,6c0,1.9,0,3.7-0.1,5.6c0.3-0.2,0.6-0.5,0.9-0.7c4.8-3.9,9.4-8.2,14.1-12.2
				c3.1-2.7,6.3-5.4,9.5-8c2.2-1.8,4.8-3.3,6.9-5.3c3.6-3.4,7-7.1,10.4-10.7c2.6-2.7,5.2-5.5,8.5-7.4c3.2-1.9,4.6-4.7,4.4-8.3
				c-0.2-3.8-0.6-7.5-0.9-11.3c0-0.4-0.1-0.9,0.1-1.3c1.2-3.9,2.2-7.8,2.3-11.8c0-0.7,0.1-1.4,0.3-2.1c1-3.5,2.2-7,3-10.6
				C169.3,263.8,169.3,260.7,168.3,257.6z M-134.9,318.8c0.5,0.3,0.9,0.4,1.1,0.7c2.7,4,6.7,6.3,10.8,8.5c0.4,0.2,0.8,0.6,1,1
				c0.8,1.1,1.5,2.3,2.2,3.4C-125.4,330.9-134.9,324.9-134.9,318.8z M-132.1,319.6c3.3,1,6.6,2,9.9,3c-0.2,1.5-0.4,2.9-0.6,4.4
				C-126.4,325.1-129.7,323.1-132.1,319.6z M-72,362.7c-3.3-0.8-6.5-1.8-9.6-3.1c-2.6-1.1-4.9-2.8-7.4-4.3
				c-5.7-3.5-11.6-6.6-17.7-9.2c-4.2-1.8-8.3-4-12.2-6.4c-3-1.8-5.7-4-8.6-6.1c-0.2-0.1-0.3-0.4-0.3-0.7c0.5,0.2,1,0.4,1.6,0.6
				c1.6,0.5,3.1,1.1,4.7,1.3c2.4,0.4,4.2,1.6,6,3c5.4,4.1,11.5,7,17.8,9.4c5.3,2,10.8,3.3,16.4,4.4c1.6,0.3,3.3,0.4,5,0.7
				c0.6,0.1,1.3,0.4,1.7,0.9c1.9,2.5,4.3,4.2,7.1,5.5c3.6,1.6,7.4,3,11.2,4.5C-61.6,363.5-66.9,364-72,362.7z M-47.2,360.7
				c-0.1,0.2-0.2,0.3-0.3,0.5c-8.3-1.7-16.6-3.7-23.7-9.1c2.4-1,4,0.5,5.8,1.2c2.9,1.2,5.9,2.3,8.9,3.4c1.6,0.6,3.4,0.8,4.9,1.5
				C-50.1,358.7-48.7,359.8-47.2,360.7z M-61.2,351c2.6,1.6,5.2,3.4,7.8,5c0.1,0.1,0.2,0.2,0.3,0.4c-4.8-1.2-9.4-2.6-13.8-5.1
				c1.2-0.5,2.2-1.2,3.3-1.3C-62.9,350-62,350.5-61.2,351z M-76.4,343.2c3.9,0.1,6.8,2.5,10,4.3c0.5,0.3,0.9,0.6,1.7,1.1
				c-1.4,0.3-2.5,0.8-3.6,0.8c-2.3,0.1-4.7,0.1-7-0.1c-5.1-0.4-10-1.7-14.9-3.2c-5.3-1.6-10.5-3.7-15.5-6.3c-3.7-1.9-7.3-4-10.5-6.8
				c-2.2-1.9-4.1-4-4.6-7c-0.2-0.9-0.1-1.9-0.2-2.8c0.2-0.1,0.3-0.3,0.5-0.4c0.9,0.5,2.1,0.8,2.7,1.6c2.6,3.2,5.9,5.4,9.4,7.3
				c5,2.8,10.3,5.1,15.8,6.8c4.9,1.5,9.9,2.9,14.8,4.4C-77.3,343.1-76.8,343.2-76.4,343.2z M-78.6,340.6c0.3,0.2,0.6,0.4,0.9,0.6
				c-10.3-2-20.2-5-29.5-10.1c2.3-0.2,4.5-0.5,6.7-0.7c0.6,0,1.3,0.2,1.9,0.5c4.6,2.1,9.1,4.2,13.6,6.4
				C-82.8,338.5-80.7,339.6-78.6,340.6z M-97.5,328.6c0-0.1,0-0.2,0-0.3c1-0.1,2.1-0.4,3.1-0.4c1.6-0.1,2,0.3,2.2,1.8
				c0,0.4,0.1,0.7,0.1,1.3C-93.9,330.2-95.7,329.4-97.5,328.6z M-108.7,308.6c4.7,1.4,9.5,2.6,14.1,4.1c4.2,1.3,8.2,2.9,12.3,4.4
				c3.7,1.3,7.3,2.7,10.9,4.1c3.9,1.5,7.8,3,11.7,4.5c1,0.4,1.9,0.7,3.3,1.2c-5.7,1.5-11.1,2.8-16.4,4.2c-3.9,1-7.7,2-11.8,2
				c-1.4,0-2.6-0.3-3.7-1.1c-0.9-0.7-1.4-1.5-1-2.7c0.5-1.4,0.2-2.3-1.1-3.1c-1.4-0.8-2.9-1.3-4.6-0.8c-2.4,0.7-4.8,1.5-7.2,2.2
				c-2.3,0.7-4.6,1.6-7.1,0.6c-1.7-0.7-2-1.5-0.6-2.6c1.9-1.6,4.1-2.9,6.1-4.4c0.3-0.2,0.6-0.5,0.9-0.8c-2.3,0.8-4.6,1.6-6.9,2.3
				c-1.2,0.3-2.4,0.6-3.6,0.6c-1.6,0.1-2.7-0.7-3.3-2.2c-0.3-0.7-0.5-1.4-0.7-2.2c-0.6-2.6-1.7-3.8-4.4-4c-2.3-0.2-3.9-1.4-5-3.3
				c-0.5-0.8-0.9-1.7-1-2.6c-0.2-2.1-0.3-4.3-0.4-6.4C-121.4,304.7-115.1,306.7-108.7,308.6z M-131,306c0.2,1.5,0.3,3,0.5,4.4
				c0.2,1.3,0.6,2.6,1.1,3.7c0.9,1.9,2.7,2.6,4.6,2.7c0.8,0.1,1.6,0.2,2.4,0.3c1.6,0.2,2.3,1.1,2.6,2.5c-6.7-1.8-13.5-3.6-20.3-5.4
				C-139.9,311.7-134.4,306.9-131,306z M126.9,283.8c1.9-1.5,3.6-2.8,5.3-4.2c3.4-2.7,6.7-5.5,10.2-8.1c2.9-2.3,6-4.4,9-6.6
				c2.5-1.8,5-3.6,7.4-5.5c2-1.5,2.6-3.8,2.8-6.2c0-0.5,0.1-1.1,0.1-1.6c0.2,0,0.3-0.1,0.5-0.1c0.2,0.9,0.5,1.7,0.5,2.6
				c0.1,3.6-0.9,6.7-4.2,8.7c-1.1,0.6-2.3,1-3.4,1.6c-2,1.1-3.2,3.1-4,5.1s-2.1,3.4-4.2,4.2c-1.4,0.5-2.6,1.4-2.6,3.2
				c-0.1,2.2-1.3,3.6-3.2,4.6C136.7,283.7,132.1,284.4,126.9,283.8z M133.9,286.9c6.1-0.6,10.3-3.9,13.2-9.1
				c0.7-1.3,2.1-2.2,3.3-3.1c1.7-1.4,2.9-3.1,3.1-5.4c0.1-1.3,0.9-1.9,1.9-2.4c2.1-0.8,4-1.9,5.4-3.7c0.4-0.5,0.7-1,1.1-1.5
				c-5.4,13.3-14.5,23.4-26.4,31.5C135,290.9,134.5,288.9,133.9,286.9z M158.3,290.9c-2.1,4.1-4.1,8.3-6.5,12.2
				c-3.2,5.2-7.7,9.1-13.3,11.7c-0.5,0.2-1,0.6-1.6,0.8c-0.5,0.2-1,0.4-1.6,0.6c0.3-3.1,0.5-6.1,0.8-9c0-0.3,0.4-0.7,0.6-0.8
				c7.8-2.8,13.7-8.2,19.1-14.3c1.1-1.3,2.2-2.7,3.3-4c0.1,0,0.2,0.1,0.3,0.1C159.1,289.1,158.8,290,158.3,290.9z M164,269.7
				c-3,8.9-7.7,16.7-13.8,23.8c-2.9,3.3-6.2,6.2-10,8.4c-1.1,0.7-2.4,1.1-3.6,1.6c-0.2-3.1-0.5-5.9-0.7-8.9
				c5.8-3.1,10.5-7.7,15-12.6c3.6-3.9,6.8-8.1,9.4-12.7c1.8-3.1,3.4-6.2,3.3-10c0.2,0,0.3,0,0.5-0.1c0.3,1.2,1,2.4,1,3.6
				C164.9,265.2,164.8,267.6,164,269.7z"/>
			<path class="st2" d="M151.5,225.7c-3.9-0.9-7.9-1.7-11.8-2.4c-3.7-0.7-7.4-1.1-11.1-1.7c-3.3-0.5-6.6-1-9.8-1.5
				c-4.7-0.7-9.4-1.4-14.1-2.2c-4.4-0.8-8.7-1.7-13.1-2.6c-5.7-1.2-11.4-2.4-17.1-3.6c-3.4-0.7-6.8-1.5-10.2-2.1
				c-2.8-0.5-5.6-1-8.4-1.5c-3.3-0.5-6.7-1-10-1.4c-4.1-0.5-8.3-0.7-12.4-1.2c-5.3-0.6-10.6-1.3-15.9-2c-5.4,0-10.5,1.5-15.4,3.4
				c-5,1.9-10,4.2-14.8,6.5c-3.3,1.6-6.4,3.5-9.6,5.2c-3.1,1.6-6.3,3.2-9.5,4.5c-3.6,1.5-7.4,2.6-11,4c-3.4,1.4-6.8,2.9-10.1,4.5
				c-4.3,1.9-8.5,3.9-12.7,5.9c-5.2,2.5-10.4,5-15.7,7.4c-4.2,2-8.4,4.1-12.6,5.9c-5.2,2.2-10.5,4.3-15.8,6.3
				c-4.7,1.8-9.6,3.3-14.3,5.2c-1.7,0.6-3.2,1.7-4.6,2.7c-0.9,0.7-1.9,1.7-1.2,3c0.4,0.7,1.2,1.4,2,1.8c2.6,1.3,5.4,1.6,8.2,1.9
				c2.2,0.3,4.5,0.5,6.7,1.2c5.6,1.7,11,3.8,16.6,5.5c5.3,1.6,10.6,3.2,15.9,4.5c4.4,1.1,8.8,1.8,13.2,2.6c4.6,0.9,9.1,1.7,13.7,2.8
				c4.4,1,8.8,2.2,13.1,3.5c2,0.6,3.9,1.2,5.8,1.9c-0.1-8.6,7.5-14.9,15.6-15.3c6.5-0.3,11.9,4.1,14.3,9.7
				c12.9-8.1,29.3-8.4,44.3-7.4c11.1,0.7,22.7,1.5,33.1,5.6l0,0c3.3-2.6,6.6-5.3,9.8-8c3.3-2.7,6.6-5.5,10-8.2
				c3.6-2.9,7.2-5.7,11.2-8c4.7-2.7,9.5-5.1,13.9-8.2c5.6-3.8,10.8-8.2,16.2-12.3c3.7-2.8,7.4-5.7,11.2-8.4c2.2-1.6,4.6-3,6.9-4.6
				c0.5-0.4,1.1-1.2,1-1.7C152.9,226.5,152.1,225.8,151.5,225.7z"/>
			<path class="st2" d="M48.8,312.6c-1.1-0.1-2.2-0.2-3.3-0.3c0.3,0.9,0.5,1.7,0.8,2.6C47.1,314.1,47.9,313.4,48.8,312.6z"/>
			<path class="st2" d="M7.2,324.7c0.8,0.6,1.4,1.4,2,2.2c0-4.4,1-8.6,2.7-12.4c-0.1,0.1-0.2,0.1-0.4,0.2c0,0-0.1,0-0.1,0.1
				c-0.1,0.1-0.2,0.2-0.4,0.4c-4.8,4.5-11.7,5.7-17.5,3.1c-0.1,0.4-0.2,0.8-0.3,1.3C-1.3,319.7,2.7,321.2,7.2,324.7z"/>
			<path class="st2" d="M157.8,236.8c-0.1-0.8-0.1-1.6-0.2-2.4c-0.3-2.6-2.1-3.5-4.2-2c-2,1.4-3.8,2.8-5.7,4.3
				c-3.2,2.7-6.3,5.5-9.6,8.1c-4.1,3.2-8.3,6.2-12.5,9.2c-4.6,3.2-9.4,6.2-14.1,9.3c-2.9,1.9-5.9,3.8-8.8,5.8c-4.3,3-8.5,6-12.7,9.1
				c-4.2,3.1-8.4,6.2-12.6,9.3c-0.2,0.2-0.5,0.4-0.7,0.5c2.3,1.1,4.6,2.5,6.7,4c4.7,3.4,8.6,7.5,12,12c3.4-2.4,6.7-4.9,10.1-7.3
				c5.3-3.8,10.1-8,14.9-12.3c4.5-4,9-8.1,13.8-11.8c6.4-4.9,13.1-9.5,19.7-14.3c2.1-1.5,3.5-3.5,3.7-6
				C158,247.2,158.3,242,157.8,236.8z"/>
			<path class="st2" d="M-38.3,317.1c1.1-4.4,2.3-8.8,3.1-13.2c0-0.2,0.3-1.5,0.4-2.2c0.1-0.5,0.1-1.1,0.1-1.1
				c0-0.6,0.1-1.1,0.1-1.7c-0.7-0.3-1.5-0.5-2.2-0.8c-2.6-0.9-5.2-1.6-7.8-2.4c-2.8-0.8-5.7-1.5-8.5-2.2c-2.7-0.6-5.5-1.1-8.3-1.7
				c-2.9-0.7-5.8-1.5-8.8-2.3c-4.1-1-8.1-2-12.2-3.1c-4.2-1.1-8.4-2.2-12.6-3.4c-3.7-1-7.4-2.1-11.1-3.2c-3-0.9-6-1.9-9-2.6
				c-4.4-1.1-8.9-2.1-13.3-3.2c-1.1-0.3-1.9,0-2.3,1c-0.4,0.9-0.7,1.8-0.8,2.7c-0.2,3.1-0.3,6.3-0.5,9.5c-0.1,1.9-0.4,3.8-0.5,5.7
				c0,1.6,0.7,2.9,2.1,3.7c1.3,0.7,2.7,1.4,4.1,1.8c3.8,1.2,7.7,2.2,11.6,3.3c4.2,1.2,8.5,2.2,12.7,3.5c3.2,1,6.3,2.1,9.4,3.3
				c3.3,1.3,6.5,2.8,9.9,4.1c3.7,1.4,7.5,2.8,11.2,4.1c4.3,1.5,8.6,3,13,4.4c3.7,1.2,7.3,2.4,11,3.6c2.3,0.8,4.6,1.5,6.8,2.3
				C-40,323.7-39.2,320.4-38.3,317.1z"/>
			<path class="st2" d="M158.3,300.2c-0.3,0.4-0.5,0.6-0.6,0.8c-2,2.9-3.7,6-6,8.6c-3.7,4.4-8.4,7.5-13.7,9.6c-0.9,0.3-2,0.4-2.5,1
				c-0.5,0.6-0.4,1.8-0.5,2.8c-3.7,0.4-7.4,0.9-11.1,1.4c-1.1,0.2-2.6,0.2-3.3,0.9c-3.1,3.2-5.9,6.7-9,9.8c-1,1-2.1,2-3.2,2.9
				c0.6,4.3,0.9,8.6,0.9,12.9c2.3-1.9,4.5-3.8,6.7-6c4.1-4.1,8.3-8.2,12.9-11.8c4.8-3.8,9.1-8.2,13.6-12.4c2.6-2.4,5.2-4.9,8-7.2
				c1.7-1.4,3.8-2.4,5.4-3.9C158.4,307.2,158.8,303.9,158.3,300.2z"/>
			<path class="st2" d="M-44.7,382.1c4-2.7,8.7-3.1,13.1-1.7c0.2-0.1,0.5-0.3,0.7-0.4c-0.4-0.8-0.9-1.5-1.3-2.3
				c-0.2,0.2-0.4,0.3-0.6,0.5c-0.5-0.5-0.9-1-1.2-1.4c-3.1-4-6.5-7.7-10.4-10.8c-0.2-0.2-0.7-0.3-1-0.3c-4.5,0.4-9,0.9-13.4,1.2
				c-5.9,0.4-11.8-0.1-17.5-1.7c-5-1.4-9.4-4.1-13.8-6.8c-4.1-2.5-8.1-5-12.4-7.1c-4.9-2.5-10.2-4.3-15.1-6.7
				c-3.3-1.6-6.5-3.6-9.7-5.6c-1.4-0.9-2.6-2-4.1-3.2v5c0,4.1,1.8,7,5.6,8.4c5.7,2.1,11.4,3.8,17.1,5.9c4.9,1.9,9.8,4,14.6,6.1
				c2.9,1.3,5.8,2.9,8.7,4.2c3.2,1.4,6.4,2.8,9.6,4.1c4.4,1.8,8.8,3.6,13.2,5.4c4.3,1.7,8.7,3.4,13,5.2
				C-48,380.7-46.4,381.4-44.7,382.1z"/>
			<path class="st2" d="M-128.1,302.7c6.7,2.1,13,4.1,19.4,6c4.7,1.4,9.5,2.6,14.1,4.1c4.2,1.3,8.2,2.9,12.3,4.4
				c3.7,1.3,7.3,2.7,10.9,4.1c3.9,1.5,7.8,3,11.7,4.5c1,0.4,1.9,0.7,3.3,1.2c-5.7,1.5-11.1,2.8-16.4,4.2c-3.9,1-7.7,2-11.8,2
				c-1.4,0-2.6-0.3-3.7-1.1c-0.9-0.7-1.4-1.5-1-2.7c0.5-1.4,0.2-2.3-1.1-3.1c-1.4-0.8-2.9-1.3-4.6-0.8c-2.4,0.7-4.8,1.5-7.2,2.2
				c-2.3,0.7-4.6,1.6-7.1,0.6c-1.7-0.7-2-1.5-0.6-2.6c1.9-1.6,4.1-2.9,6.1-4.4c0.3-0.2,0.6-0.5,0.9-0.8c-2.3,0.8-4.6,1.6-6.9,2.3
				c-1.2,0.3-2.4,0.6-3.6,0.6c-1.6,0.1-2.7-0.7-3.3-2.2c-0.3-0.7-0.5-1.4-0.7-2.2c-0.6-2.6-1.7-3.8-4.4-4c-2.3-0.2-3.9-1.4-5-3.3
				c-0.5-0.8-0.9-1.7-1-2.6C-127.9,306.9-128,304.7-128.1,302.7z"/>
			<path class="st2" d="M-42.3,353.2c-1.8-0.9-3.6-1.7-5.3-2.7c-2.4-1.4-4.7-3-6.3-5.3c-1.2-1.6-2.6-2.6-4.5-3.1s-3.8-1-5.7-1.6
				c-1.8-0.6-2.1-1.8-1.1-3.3c0.1-0.2,0.3-0.4,0.4-0.6c0.4-1.1,0.1-1.7-1-1.8c-0.9-0.1-1.9-0.1-2.8,0.1c-3.7,0.7-7.4,1.4-11.3,2.2
				c15.3,7.4,29.6,15.9,41.2,27.9C-40.3,361.1-41.5,357.3-42.3,353.2z"/>
			<path class="st2" d="M-43,344.8c0-4.5,0.6-9,1.4-13.4c-3.2-1-6.5-1.8-9.6-2.9c-1.6-0.6-2.8-0.4-4,0.7c-0.2,0.2-0.5,0.4-0.7,0.6
				c-2.1,2-4.3,3.9-5.4,6.7c-0.5,1.3-0.2,2.1,1.2,2.3c1.1,0.2,2.3,0.2,3.5,0.2c1.9,0,3.4,0.2,4.3,2.5c0.1,0.3,0.3,0.6,0.5,0.8
				c2.1,2.7,4.8,4.7,7.6,6.6c0.5,0.3,0.9,0.6,1.4,0.8C-43,348.2-43,346.5-43,344.8z"/>
			<path class="st2" d="M131.6,291.7c-0.4-1.8-1.1-3.5-1.7-5.3c-0.5,0.8-0.8,1.5-1,2.2c-0.7,2.5-2.1,4.6-4.4,6
				c-1.7,1-2.8,2.5-2.5,4.7c0.1,0.7,0,1.4,0.1,2.1c0.3,2.6-0.6,4.8-2.6,6.5c-1.5,1.3-2.7,2.7-3.4,4.6c-0.8,2-1.9,3.8-3.9,4.9
				c-2.6,1.4-5.3,2.5-8.1,3.2c0.5,1.4,1,2.8,1.4,4.3c8.2-3.2,16.7-5.3,25.9-5.8c0.2-2.1,0.3-4.1,0.6-6.1
				C133,305.8,133.3,298.8,131.6,291.7z"/>
			<path class="st2" d="M125.5,284.7c-9.3,7.5-18.6,15-28,22.5c2.2,3.5,4.1,7.2,5.7,11c1.8-0.6,3.6-1.2,5.3-1.9
				c2.8-1.1,4.5-3.2,5.1-6.2c0.3-1.7,1.4-3,2.9-3.8c3.1-1.6,4.5-4.3,3.5-7.9c-0.8-3-0.1-4.3,2.8-5.6
				C125.3,291.6,126.9,287.9,125.5,284.7z"/>
			<path class="st2" d="M-120.4,322.9c0.9,0.5,2.1,0.8,2.7,1.6c2.6,3.2,5.9,5.4,9.4,7.3c5,2.8,10.3,5.1,15.8,6.8
				c4.9,1.5,9.9,2.9,14.8,4.4c0.4,0.1,0.9,0.2,1.4,0.2c3.9,0.1,6.8,2.5,10,4.3c0.5,0.3,0.9,0.6,1.7,1.1c-1.4,0.3-2.5,0.8-3.6,0.8
				c-2.3,0.1-4.7,0.1-7-0.1c-5.1-0.4-10-1.7-14.9-3.2c-5.3-1.6-10.5-3.7-15.5-6.3c-3.7-1.9-7.3-4-10.5-6.8c-2.2-1.9-4.1-4-4.6-7
				c-0.2-0.9-0.1-1.9-0.2-2.8C-120.7,323.1-120.5,323-120.4,322.9z"/>
			<path class="st2" d="M-56.4,363.1c-5.2,0.4-10.5,0.9-15.6-0.4c-3.3-0.8-6.5-1.8-9.6-3.1c-2.6-1.1-4.9-2.8-7.4-4.3
				c-5.7-3.5-11.6-6.6-17.7-9.2c-4.2-1.8-8.3-4-12.2-6.4c-3-1.8-5.7-4-8.6-6.1c-0.2-0.1-0.3-0.4-0.3-0.7c0.5,0.2,1,0.4,1.6,0.6
				c1.6,0.5,3.1,1.1,4.7,1.3c2.4,0.4,4.2,1.6,6,3c5.4,4.1,11.5,7,17.8,9.4c5.3,2,10.8,3.3,16.4,4.4c1.6,0.3,3.3,0.4,5,0.7
				c0.6,0.1,1.3,0.4,1.7,0.9c1.9,2.5,4.3,4.2,7.1,5.5C-64,360.3-60.2,361.6-56.4,363.1z"/>
			<path class="st2" d="M135.9,294.7c5.8-3.1,10.5-7.7,15-12.6c3.6-3.9,6.8-8.1,9.4-12.7c1.8-3.1,3.4-6.2,3.3-10
				c0.2,0,0.3,0,0.5-0.1c0.3,1.2,1,2.4,1,3.6c-0.1,2.3-0.2,4.7-0.9,6.8c-3,8.9-7.7,16.7-13.8,23.8c-2.9,3.3-6.2,6.2-10,8.4
				c-1.1,0.7-2.4,1.1-3.6,1.6C136.3,300.5,136.1,297.7,135.9,294.7z"/>
			<path class="st2" d="M162.2,251.5c0.2,0.9,0.5,1.7,0.5,2.6c0.1,3.6-0.9,6.7-4.2,8.7c-1.1,0.6-2.3,1-3.4,1.6c-2,1.1-3.2,3.1-4,5.1
				s-2.1,3.4-4.2,4.2c-1.4,0.5-2.6,1.4-2.6,3.2c-0.1,2.2-1.3,3.6-3.2,4.6c-4.4,2.3-9,3-14.3,2.3c1.9-1.5,3.6-2.8,5.3-4.2
				c3.4-2.7,6.7-5.5,10.2-8.1c2.9-2.3,6-4.4,9-6.6c2.5-1.8,5-3.6,7.4-5.5c2-1.5,2.6-3.8,2.8-6.2c0-0.5,0.1-1.1,0.1-1.6
				C161.9,251.6,162.1,251.5,162.2,251.5z"/>
			<path class="st2" d="M159.5,288.2c-0.4,0.9-0.7,1.8-1.2,2.7c-2.1,4.1-4.1,8.3-6.5,12.2c-3.2,5.2-7.7,9.1-13.3,11.7
				c-0.5,0.2-1,0.6-1.6,0.8c-0.5,0.2-1,0.4-1.6,0.6c0.3-3.1,0.5-6.1,0.8-9c0-0.3,0.4-0.7,0.6-0.8c7.8-2.8,13.7-8.2,19.1-14.3
				c1.1-1.3,2.2-2.7,3.3-4C159.3,288.1,159.4,288.2,159.5,288.2z"/>
			<path class="st2" d="M162,261.6c-5.4,13.3-14.5,23.4-26.4,31.5c-0.6-2.3-1.2-4.3-1.7-6.3c6.1-0.6,10.3-3.9,13.2-9.1
				c0.7-1.3,2.1-2.2,3.3-3.1c1.7-1.4,2.9-3.1,3.1-5.4c0.1-1.3,0.9-1.9,1.9-2.4c2.1-0.8,4-1.9,5.4-3.7
				C161.3,262.7,161.6,262.1,162,261.6z"/>
			<path class="st2" d="M-119.8,319.7c-6.7-1.8-13.5-3.6-20.3-5.4c0.2-2.6,5.7-7.4,9-8.3c0.2,1.5,0.3,3,0.5,4.4
				c0.2,1.3,0.6,2.6,1.1,3.7c0.9,1.9,2.7,2.6,4.6,2.7c0.8,0.1,1.6,0.2,2.4,0.3C-120.8,317.4-120,318.3-119.8,319.7z"/>
			<path class="st2" d="M-107.2,331.2c2.3-0.2,4.5-0.5,6.7-0.7c0.6,0,1.3,0.2,1.9,0.5c4.6,2.1,9.1,4.2,13.6,6.4
				c2.2,1,4.3,2.1,6.4,3.2c0.3,0.2,0.6,0.4,0.9,0.6C-88,339.2-98,336.3-107.2,331.2z"/>
			<path class="st2" d="M-47.5,361.2c-8.3-1.7-16.6-3.7-23.7-9.1c2.4-1,4,0.5,5.7,1.2c2.9,1.2,5.9,2.3,8.9,3.4
				c1.6,0.6,3.4,0.8,4.9,1.5c1.6,0.7,2.9,1.7,4.4,2.6C-47.3,360.8-47.4,361-47.5,361.2z"/>
			<path class="st2" d="M108.5,329.2c-0.5,0.4-1,0.9-1.5,1.3c0.2,0.9,0.4,1.8,0.6,2.7c2.8-2.5,5.3-5.2,8-7.9
				C112.5,325.7,110.5,327.4,108.5,329.2z"/>
			<path class="st2" d="M-134.9,318.8c0.5,0.3,0.9,0.4,1.1,0.7c2.7,4,6.7,6.3,10.8,8.5c0.4,0.2,0.8,0.6,1,1c0.8,1.1,1.5,2.3,2.2,3.4
				C-125.4,330.9-134.9,324.9-134.9,318.8z"/>
			<path class="st2" d="M-132.1,319.6c3.3,1,6.6,2,9.9,3c-0.2,1.5-0.4,2.9-0.6,4.4C-126.4,325.1-129.7,323.1-132.1,319.6z"/>
			<path class="st2" d="M-67,351.4c1.2-0.5,2.2-1.2,3.3-1.3c0.8-0.1,1.7,0.5,2.5,1c2.6,1.6,5.2,3.4,7.8,5c0.1,0.1,0.2,0.2,0.3,0.4
				C-57.9,355.3-62.6,353.9-67,351.4z"/>
			<path class="st2" d="M-97.4,328.3c1-0.1,2.1-0.4,3.1-0.4c1.6-0.1,2,0.3,2.2,1.8c0,0.4,0.1,0.7,0.1,1.3c-1.9-0.9-3.7-1.7-5.4-2.5
				C-97.5,328.5-97.5,328.4-97.4,328.3z"/>
		</g>
	</g>
	<g class="st1">
		<g>
			<path class="st2" d="M-35.9,294.5c-0.9,4.1-1.7,8.2-2.6,12.3c-0.6,2.8-1.8,6.2-0.7,9c1.1,2.7,5.2,3.3,5.1,6.2
				c-0.1,5.4-8.2,4.5-11.7,4.3c-3.2-0.2-3.2,4.8,0,5c6.9,0.5,17.1-0.8,16.8-10.1c0-1.5-0.5-3-1.4-4.2c-0.9-1.1-2.4-1.4-3.2-2.4
				c-1.8-2,0-6.6,0.5-9.1c0.7-3.2,1.3-6.4,2-9.6C-30.4,292.7-35.2,291.4-35.9,294.5L-35.9,294.5z"/>
		</g>
	</g>
	<path class="st3" d="M-39.4,310.8c0,3.1,0.4,6.4-0.7,9.2c-1.2,2.9-4.8,5.1-7.4,3.5c0.6,6.7,2.4,13.3,5.3,19.3
		c1.7,3.6,3.9,7.5,3.1,11.4c-0.4,1.9-1.5,3.6-1.6,5.5c-0.2,6.3,10.2,9.1,9.8,15.4c-0.2,3.1-3.2,5.3-6.1,6.5
		c-2.9,1.2-6.2,1.8-8.5,3.9c4.7,3.1,11.3,2.9,15.8-0.4c6.5-4.9,7.6-14.3,13-20.5c2.7-3.1,6.4-5.2,9.2-8.2
		c3.6-4.1,6.2-10.3,11.6-10.7c4.7-0.4,8.3,4.1,10.5,8.3c2.3,4.2,4.7,9,9.2,10.2c5.1,1.4,10.2-2.4,13.4-6.6c1.8-2.4,3.3-5.2,3.3-8.1
		c0-2.6-1.3-5.2-0.7-7.8c0.3-1.6,1.3-3,2.5-4.1c4.9-4.6,12.6-4.5,19.3-3.4c7,1.2,13.8,3,20.5,5.4c3.3,1.2,6.7,2.5,9.3,4.9
		c2.5,2.3,4.2,5.3,6.8,7.6s6.6,3.5,9.3,1.4c1.8-1.4,2.5-4,2.2-6.3c-0.2-2.3-1.2-4.5-1.9-6.7c-2.7-7.9-3-16.5-5.9-24.2
		c-5.3-13.9-18.2-23.2-30.7-31c-2.4-1.5-5-3.1-6.4-5.5c-2.8-4.6-1-10.5-2.3-15.7c-0.3-1.2-0.9-2.5-2-3.2c-0.9-0.6-2.1-0.6-3.1-0.6
		c-14.8-0.2-29.7,0.3-44.4,1.6c-3.6,0.3-7.6,0.9-9.7,3.8c-1.8,2.4-1.6,5.7-2.8,8.4c-2.2,5-8.1,7.1-13.5,8.2
		c-5.3,1.2-11.3,2.4-14.5,6.8c-2.4,3.2-5.4,5.9-7.9,9C-38.9,302-39.4,305.9-39.4,310.8z"/>
	<path class="st3" d="M-45.5,325.3c1.6,1.8,4.4,2.2,6.7,1.5c2.3-0.7,4.3-2.2,6.2-3.7c2.4-1.8,4.7-3.7,7.1-5.5c1.3-1,2.5-2,3.4-3.4
		c1.2-2.1,1.2-4.7,1.4-7.1c0.3-3.9,1.4-7.6,3.1-11.1c0.3-0.6,0.6-1.2,1.2-1.6c0.6-0.4,1.3-0.4,2-0.5c10.6-0.5,21.3-1.1,31.9-1.6
		c0.1-4.7,1-9.5,2.8-13.9c0.3-0.8,0.7-1.7,1.4-2.3s1.7-0.9,2.6-1.1c6.8-1.7,13.9-2.1,20.8-1.3c0.6,0.1,1.2,0.2,1.7,0.5
		c0.8,0.6,1,1.8,1.2,2.8c0.7,3.1,3.1,5.6,5.4,7.9c4.5,4.6,9.1,9.2,13.6,13.9c1.3,1.3,2.6,2.6,4.2,3.6c2,1.2,4.4,1.8,6.7,1.4
		c0.6-0.1,1.2-0.2,1.7,0.1c0.4,0.3,0.5,0.8,0.6,1.3c0.8,4.5-0.3,10.3,3.5,12.8c1.9,1.2,4.4,1.1,6.5,0.3c4.7-1.8,7.9-7,7.3-12"/>
	<path class="st3" d="M-38,362.9c2.2-0.5,2.7-3.3,3.6-5.3c1-2.1,2.9-3.6,4.8-5c4.1-3.2,8.1-6.3,12.2-9.5c4.7-3.7,9.7-7.5,15.6-8.5
		c7.3-1.3,15.4,1.9,21.9-1.6c2.6-1.4,4.7-3.8,7.2-5.4c3.1-2,6.8-2.7,10.5-3.3c15.5-2.3,31.3-1.6,46.9-0.9c3.1,0.1,6.2,0.3,9,1.7
		c1.8,0.9,3.2,2.2,4.9,3.2c2.8,1.8,6.2,2.7,9.5,2.6"/>
	<path class="st3" d="M-41.7,340.7c2,1.3,4.8,0.9,6.8-0.3c2.1-1.2,3.6-3.1,5.1-5c2.7-3.4,5.4-6.7,8.1-10.1
		c4.6-5.8,10.1-12,17.4-12.7c0.9-0.1,1.8-0.1,2.6,0.4c0.7,0.5,1.1,1.2,1.6,1.9c1.8,2.4,5.1,3.5,8,2.6c0-0.7,0.1-1.5,0.1-2.2
		c15.3-3.4,28.6-12.5,42.7-19.4c3.2-1.6,7.3-3.1,10.3-1.1c3.3,2.1,3.5,7.1,6.4,9.7"/>
</g>
<g id="Layer_1_copy_2" class="st0">
	<g id="X7ZSNy.tif_2_" class="st1">
		<g>
			<path d="M168.3,257.6c-0.4-1.2-0.8-2.4-0.9-3.6c-0.3-3.4-1.3-6.4-4.1-8.7c-0.4-0.3-0.7-0.9-0.7-1.3c-0.1-3.4-0.2-6.9-0.2-10.3
				c0-2.3,0-4.6-0.2-6.9c-0.2-1.8-0.7-3.6-2.6-4.4c-1.1-0.5-2.3-1-3.6-1.2c-5.9-0.8-11.9-1.4-17.8-2.4c-7.9-1.2-15.7-2.6-23.6-3.9
				c-4.1-0.7-8.2-1.6-12.4-2.4c-5.7-1.1-11.4-2-17.1-3.1c-7.7-1.5-15.5-3.2-23.2-4.6c-6-1.1-12.1-2-18.2-2.9
				c-7.4-1-14.8-1.9-22.2-2.7c-4.6-0.5-9.3-0.2-13.7,1.3c-4.6,1.5-9.2,3.2-13.6,5.2c-6.2,2.6-12.3,5.5-18.4,8.4
				c-3.7,1.7-7.2,3.5-10.9,5.1c-7.2,3.1-14.4,6.1-21.6,9.1c-3.9,1.6-7.8,3.3-11.7,5c-0.1,0-0.1,0.1-0.2,0.1c0.7,0.7,1.3,1.5,1.8,2.4
				c0.4,0.6,0.7,1.3,0.9,1.9c0.2-0.1,0.3-0.1,0.5-0.2c4.2-2,8.5-4,12.7-5.9c3.3-1.5,6.7-3.1,10.1-4.5c3.6-1.4,7.4-2.5,11-4
				c3.2-1.3,6.4-2.9,9.5-4.5c3.2-1.7,6.3-3.6,9.6-5.2c4.9-2.3,9.8-4.5,14.8-6.5c4.9-1.9,10-3.4,15.4-3.4c5.3,0.7,10.6,1.4,15.9,2
				c4.1,0.5,8.3,0.7,12.4,1.2c3.3,0.4,6.7,0.9,10,1.4c2.8,0.4,5.6,0.9,8.4,1.5c3.4,0.7,6.8,1.4,10.2,2.1c5.7,1.2,11.4,2.4,17.1,3.6
				c4.4,0.9,8.7,1.8,13.1,2.6c4.7,0.8,9.4,1.5,14.1,2.2c3.3,0.5,6.6,1,9.8,1.5c3.7,0.6,7.4,1,11.1,1.7c4,0.7,7.9,1.5,11.8,2.4
				c0.6,0.1,1.4,0.8,1.4,1.3c0.1,0.5-0.5,1.3-1,1.7c-2.3,1.6-4.7,3-6.9,4.6c-3.8,2.7-7.5,5.6-11.2,8.4c-5.4,4.1-10.6,8.4-16.2,12.3
				c-4.4,3-9.3,5.5-13.9,8.2c-4,2.3-7.7,5.1-11.2,8c-3.3,2.7-6.6,5.5-10,8.2c-3.3,2.7-6.5,5.4-9.8,8l0,0c1.3,0.5,2.6,1.1,3.9,1.7
				c0.2-0.2,0.5-0.4,0.7-0.5c4.2-3.1,8.4-6.2,12.6-9.3c4.2-3.1,8.4-6.1,12.7-9.1c2.9-2,5.9-3.9,8.8-5.8c4.7-3.1,9.5-6.1,14.1-9.3
				c4.3-2.9,8.5-6,12.5-9.2c3.3-2.6,6.4-5.4,9.6-8.1c1.8-1.5,3.7-3,5.7-4.3c2.1-1.5,3.8-0.6,4.2,2c0.1,0.8,0.1,1.6,0.2,2.4
				c0.5,5.2,0.2,10.4-0.3,15.6c-0.2,2.5-1.6,4.5-3.7,6c-6.6,4.7-13.3,9.3-19.7,14.3c-4.8,3.7-9.3,7.8-13.8,11.8
				c-4.8,4.3-9.6,8.6-14.9,12.3c-3.4,2.4-6.7,4.9-10.1,7.3c0.8,1,1.5,2.1,2.2,3.2c9.4-7.5,18.7-15,28-22.5c1.4,3.2-0.2,6.8-2.8,8.1
				c-2.8,1.3-3.6,2.6-2.8,5.6c1,3.6-0.4,6.4-3.5,7.9c-1.5,0.8-2.6,2.1-2.9,3.8c-0.6,3-2.3,5.1-5.1,6.2c-1.7,0.7-3.5,1.3-5.3,1.9
				c0.3,0.8,0.6,1.5,0.9,2.3c2.8-0.7,5.5-1.8,8.1-3.2c2-1.1,3.1-2.9,3.9-4.9c0.8-1.8,1.9-3.3,3.4-4.6c2-1.7,2.9-3.8,2.6-6.5
				c-0.1-0.7,0-1.4-0.1-2.1c-0.3-2.2,0.9-3.6,2.5-4.7c2.3-1.4,3.7-3.5,4.4-6c0.2-0.7,0.5-1.4,1-2.2c0.6,1.8,1.3,3.5,1.7,5.3
				c1.7,7,1.4,14.1,0.3,21.2c-0.3,2-0.4,4-0.6,6.1c-9.2,0.6-17.7,2.6-25.9,5.8c0.4,1.2,0.7,2.5,1,3.7c0.2-0.1,0.5-0.2,0.7-0.3
				c0.3-0.1,0.6-0.2,0.9-0.3c0.1,0.1,0.2,0.2,0.3,0.4c-0.6,0.5-1.1,0.9-1.7,1.4c0.1,0.3,0.1,0.6,0.2,0.8c0.5-0.4,1-0.9,1.5-1.3
				c2-1.8,4-3.5,7.1-3.9c-2.7,2.6-5.3,5.4-8,7.9c0.3,1.6,0.6,3.2,0.8,4.8c1.1-0.9,2.2-1.8,3.2-2.9c3.2-3.1,5.9-6.7,9-9.8
				c0.7-0.7,2.2-0.7,3.3-0.9c3.7-0.5,7.4-0.9,11.1-1.4c0.2-1,0-2.1,0.5-2.8c0.5-0.6,1.7-0.7,2.5-1c5.3-2.1,10-5.3,13.7-9.6
				c2.2-2.7,4-5.7,6-8.6c0.2-0.2,0.3-0.4,0.6-0.8c0.5,3.7,0.1,7-2.5,9.5c-1.6,1.5-3.7,2.5-5.4,3.9c-2.7,2.3-5.3,4.8-8,7.2
				c-4.5,4.1-8.8,8.6-13.6,12.4c-4.6,3.7-8.8,7.7-12.9,11.8c-2.1,2.1-4.3,4.1-6.7,6c0,1.9,0,3.7-0.1,5.6c0.3-0.2,0.6-0.5,0.9-0.7
				c4.8-3.9,9.4-8.2,14.1-12.2c3.1-2.7,6.3-5.4,9.5-8c2.2-1.8,4.8-3.3,6.9-5.3c3.6-3.4,7-7.1,10.4-10.7c2.6-2.7,5.2-5.5,8.5-7.4
				c3.2-1.9,4.6-4.7,4.4-8.3c-0.2-3.8-0.6-7.5-0.9-11.3c0-0.4-0.1-0.9,0.1-1.3c1.2-3.9,2.2-7.8,2.3-11.8c0-0.7,0.1-1.4,0.3-2.1
				c1-3.5,2.2-7,3-10.6C169.3,263.8,169.3,260.7,168.3,257.6z M126.9,283.8c1.9-1.5,3.6-2.8,5.3-4.2c3.4-2.7,6.7-5.5,10.2-8.1
				c2.9-2.3,6-4.4,9-6.6c2.5-1.8,5-3.6,7.4-5.5c2-1.5,2.6-3.8,2.8-6.2c0-0.5,0.1-1.1,0.1-1.6c0.2,0,0.3-0.1,0.5-0.1
				c0.2,0.9,0.5,1.7,0.5,2.6c0.1,3.6-0.9,6.7-4.2,8.7c-1.1,0.6-2.3,1-3.4,1.6c-2,1.1-3.2,3.1-4,5.1s-2.1,3.4-4.2,4.2
				c-1.4,0.5-2.6,1.4-2.6,3.2c-0.1,2.2-1.3,3.6-3.2,4.6C136.7,283.7,132.1,284.4,126.9,283.8z M133.9,286.9
				c6.1-0.6,10.3-3.9,13.2-9.1c0.7-1.3,2.1-2.2,3.3-3.1c1.7-1.4,2.9-3.1,3.1-5.4c0.1-1.3,0.9-1.9,1.9-2.4c2.1-0.8,4-1.9,5.4-3.7
				c0.4-0.5,0.7-1,1.1-1.5c-5.4,13.3-14.5,23.4-26.4,31.5C135,290.9,134.5,288.9,133.9,286.9z M158.3,290.9
				c-2.1,4.1-4.1,8.3-6.5,12.2c-3.2,5.2-7.7,9.1-13.3,11.7c-0.5,0.2-1,0.6-1.6,0.8c-0.5,0.2-1,0.4-1.6,0.6c0.3-3.1,0.5-6.1,0.8-9
				c0-0.3,0.4-0.7,0.6-0.8c7.8-2.8,13.7-8.2,19.1-14.3c1.1-1.3,2.2-2.7,3.3-4c0.1,0,0.2,0.1,0.3,0.1
				C159.1,289.1,158.8,290,158.3,290.9z M164,269.7c-3,8.9-7.7,16.7-13.8,23.8c-2.9,3.3-6.2,6.2-10,8.4c-1.1,0.7-2.4,1.1-3.6,1.6
				c-0.2-3.1-0.5-5.9-0.7-8.9c5.8-3.1,10.5-7.7,15-12.6c3.6-3.9,6.8-8.1,9.4-12.7c1.8-3.1,3.4-6.2,3.3-10c0.2,0,0.3,0,0.5-0.1
				c0.3,1.2,1,2.4,1,3.6C164.9,265.2,164.8,267.6,164,269.7z"/>
			<path class="st2" d="M151.5,225.7c-3.9-0.9-7.9-1.7-11.8-2.4c-3.7-0.7-7.4-1.1-11.1-1.7c-3.3-0.5-6.6-1-9.8-1.5
				c-4.7-0.7-9.4-1.4-14.1-2.2c-4.4-0.8-8.7-1.7-13.1-2.6c-5.7-1.2-11.4-2.4-17.1-3.6c-3.4-0.7-6.8-1.5-10.2-2.1
				c-2.8-0.5-5.6-1-8.4-1.5c-3.3-0.5-6.7-1-10-1.4c-4.1-0.5-8.3-0.7-12.4-1.2c-5.3-0.6-10.6-1.3-15.9-2c-5.4,0-10.5,1.5-15.4,3.4
				c-5,1.9-10,4.2-14.8,6.5c-3.3,1.6-6.4,3.5-9.6,5.2c-3.1,1.6-6.3,3.2-9.5,4.5c-3.6,1.5-7.4,2.6-11,4c-3.4,1.4-6.8,2.9-10.1,4.5
				c-4.3,1.9-8.5,3.9-12.7,5.9c-0.2,0.1-0.3,0.1-0.5,0.2c3,7.2-0.2,15-6.5,19.4c-5.8,4.1-12,7.6-18,11.4c0.2,0.2,0.4,0.4,0.6,0.6
				c2.7,2.7,4.7,5.8,6.4,9.2c0.2,0.5,0.5,1,0.8,1.4c2.4-0.1,4.7-0.2,7.1-0.3c5-0.2,10-0.1,15.1,0c8.4,0.1,17.2-0.2,25.5,1.9
				c1.9,0.5,3.6,1.1,5.2,1.9c2.9-2.7,6.8-4.4,10.9-4.6c6.5-0.3,11.9,4.1,14.3,9.7c12.9-8.1,29.3-8.4,44.3-7.4
				c11.1,0.7,22.7,1.5,33.1,5.6l0,0c3.3-2.6,6.6-5.3,9.8-8c3.3-2.7,6.6-5.5,10-8.2c3.6-2.9,7.2-5.7,11.2-8c4.7-2.7,9.5-5.1,13.9-8.2
				c5.6-3.8,10.8-8.2,16.2-12.3c3.7-2.8,7.4-5.7,11.2-8.4c2.2-1.6,4.6-3,6.9-4.6c0.5-0.4,1.1-1.2,1-1.7
				C152.9,226.5,152.1,225.8,151.5,225.7z"/>
			<path class="st2" d="M48.8,312.6c-1.1-0.1-2.2-0.2-3.3-0.3c0.3,0.9,0.5,1.7,0.8,2.6C47.1,314.1,47.9,313.4,48.8,312.6z"/>
			<path class="st2" d="M7.2,324.7c0.8,0.6,1.4,1.4,2,2.2c0-4.4,1-8.6,2.7-12.4c-0.1,0.1-0.2,0.1-0.4,0.2c0,0-0.1,0-0.1,0.1
				c-0.1,0.1-0.2,0.2-0.4,0.4c-4.8,4.5-11.7,5.7-17.5,3.1c-0.1,0.4-0.2,0.8-0.3,1.3C-1.3,319.7,2.7,321.2,7.2,324.7z"/>
			<path class="st2" d="M157.8,236.8c-0.1-0.8-0.1-1.6-0.2-2.4c-0.3-2.6-2.1-3.5-4.2-2c-2,1.4-3.8,2.8-5.7,4.3
				c-3.2,2.7-6.3,5.5-9.6,8.1c-4.1,3.2-8.3,6.2-12.5,9.2c-4.6,3.2-9.4,6.2-14.1,9.3c-2.9,1.9-5.9,3.8-8.8,5.8c-4.3,3-8.5,6-12.7,9.1
				c-4.2,3.1-8.4,6.2-12.6,9.3c-0.2,0.2-0.5,0.4-0.7,0.5c2.3,1.1,4.6,2.5,6.7,4c4.7,3.4,8.6,7.5,12,12c3.4-2.4,6.7-4.9,10.1-7.3
				c5.3-3.8,10.1-8,14.9-12.3c4.5-4,9-8.1,13.8-11.8c6.4-4.9,13.1-9.5,19.7-14.3c2.1-1.5,3.5-3.5,3.7-6
				C158,247.2,158.3,242,157.8,236.8z"/>
			<path class="st2" d="M158.3,300.2c-0.3,0.4-0.5,0.6-0.6,0.8c-2,2.9-3.7,6-6,8.6c-3.7,4.4-8.4,7.5-13.7,9.6c-0.9,0.3-2,0.4-2.5,1
				c-0.5,0.6-0.4,1.8-0.5,2.8c-3.7,0.4-7.4,0.9-11.1,1.4c-1.1,0.2-2.6,0.2-3.3,0.9c-3.1,3.2-5.9,6.7-9,9.8c-1,1-2.1,2-3.2,2.9
				c0.6,4.3,0.9,8.6,0.9,12.9c2.3-1.9,4.5-3.8,6.7-6c4.1-4.1,8.3-8.2,12.9-11.8c4.8-3.8,9.1-8.2,13.6-12.4c2.6-2.4,5.2-4.9,8-7.2
				c1.7-1.4,3.8-2.4,5.4-3.9C158.4,307.2,158.8,303.9,158.3,300.2z"/>
			<path class="st2" d="M131.6,291.7c-0.4-1.8-1.1-3.5-1.7-5.3c-0.5,0.8-0.8,1.5-1,2.2c-0.7,2.5-2.1,4.6-4.4,6
				c-1.7,1-2.8,2.5-2.5,4.7c0.1,0.7,0,1.4,0.1,2.1c0.3,2.6-0.6,4.8-2.6,6.5c-1.5,1.3-2.7,2.7-3.4,4.6c-0.8,2-1.9,3.8-3.9,4.9
				c-2.6,1.4-5.3,2.5-8.1,3.2c0.5,1.4,1,2.8,1.4,4.3c8.2-3.2,16.7-5.3,25.9-5.8c0.2-2.1,0.3-4.1,0.6-6.1
				C133,305.8,133.3,298.8,131.6,291.7z"/>
			<path class="st2" d="M125.5,284.7c-9.3,7.5-18.6,15-28,22.5c2.2,3.5,4.1,7.2,5.7,11c1.8-0.6,3.6-1.2,5.3-1.9
				c2.8-1.1,4.5-3.2,5.1-6.2c0.3-1.7,1.4-3,2.9-3.8c3.1-1.6,4.5-4.3,3.5-7.9c-0.8-3-0.1-4.3,2.8-5.6
				C125.3,291.6,126.9,287.9,125.5,284.7z"/>
			<path class="st2" d="M135.9,294.7c5.8-3.1,10.5-7.7,15-12.6c3.6-3.9,6.8-8.1,9.4-12.7c1.8-3.1,3.4-6.2,3.3-10
				c0.2,0,0.3,0,0.5-0.1c0.3,1.2,1,2.4,1,3.6c-0.1,2.3-0.2,4.7-0.9,6.8c-3,8.9-7.7,16.7-13.8,23.8c-2.9,3.3-6.2,6.2-10,8.4
				c-1.1,0.7-2.4,1.1-3.6,1.6C136.3,300.5,136.1,297.7,135.9,294.7z"/>
			<path class="st2" d="M162.2,251.5c0.2,0.9,0.5,1.7,0.5,2.6c0.1,3.6-0.9,6.7-4.2,8.7c-1.1,0.6-2.3,1-3.4,1.6c-2,1.1-3.2,3.1-4,5.1
				s-2.1,3.4-4.2,4.2c-1.4,0.5-2.6,1.4-2.6,3.2c-0.1,2.2-1.3,3.6-3.2,4.6c-4.4,2.3-9,3-14.3,2.3c1.9-1.5,3.6-2.8,5.3-4.2
				c3.4-2.7,6.7-5.5,10.2-8.1c2.9-2.3,6-4.4,9-6.6c2.5-1.8,5-3.6,7.4-5.5c2-1.5,2.6-3.8,2.8-6.2c0-0.5,0.1-1.1,0.1-1.6
				C161.9,251.6,162.1,251.5,162.2,251.5z"/>
			<path class="st2" d="M159.5,288.2c-0.4,0.9-0.7,1.8-1.2,2.7c-2.1,4.1-4.1,8.3-6.5,12.2c-3.2,5.2-7.7,9.1-13.3,11.7
				c-0.5,0.2-1,0.6-1.6,0.8c-0.5,0.2-1,0.4-1.6,0.6c0.3-3.1,0.5-6.1,0.8-9c0-0.3,0.4-0.7,0.6-0.8c7.8-2.8,13.7-8.2,19.1-14.3
				c1.1-1.3,2.2-2.7,3.3-4C159.3,288.1,159.4,288.2,159.5,288.2z"/>
			<path class="st2" d="M162,261.6c-5.4,13.3-14.5,23.4-26.4,31.5c-0.6-2.3-1.2-4.3-1.7-6.3c6.1-0.6,10.3-3.9,13.2-9.1
				c0.7-1.3,2.1-2.2,3.3-3.1c1.7-1.4,2.9-3.1,3.1-5.4c0.1-1.3,0.9-1.9,1.9-2.4c2.1-0.8,4-1.9,5.4-3.7
				C161.3,262.7,161.6,262.1,162,261.6z"/>
			<path class="st2" d="M108.5,329.2c-0.5,0.4-1,0.9-1.5,1.3c0.2,0.9,0.4,1.8,0.6,2.7c2.8-2.5,5.3-5.2,8-7.9
				C112.5,325.7,110.5,327.4,108.5,329.2z"/>
		</g>
	</g>
	<path class="st3" d="M-68,236.1c0.6,2.6,2.9,4.3,5.2,5.8c4.4,2.9,8.9,5.8,13.3,8.7c2.3,1.5,4.7,3.1,7.5,3.3
		c4.9,0.4,9.4-3.7,14.3-3.2c6.2,4.4,11,10.9,13.3,18.2c0.7,2.2,1.3,4.6,3.2,5.9c1.2,0.8,2.6,1.1,4,1.3c11.1,1.6,22.4,0.9,33.2-1.9
		c2.1-0.6,4.3-1.2,6.4-0.6c1.3,0.4,2.3,1.2,3.4,1.9c11.2,7.8,25.3,11.4,38.9,10"/>
	<path class="st3" d="M109,355.4c-18.3,0-36.6-3.9-53.3-11.4c-1.1-0.5-2.2-1.1-2.8-2.1c-0.5-1-0.3-2.1-0.8-3.1
		c-0.6-1.4-2.3-1.9-3.7-2.3c-8.3-2-17-1.3-25.6-1.8c-8.6-0.6-17.6-2.7-23.4-9.1c-1.8-2-3.3-4.4-5.8-5.5c-2-0.9-4.2-0.8-6.4-0.7
		c-6.1,0.3-12.3,0.7-18.4,1c-5.8,0.3-12.7,0.2-16.1-4.5c-2.2-3-2.7-7.5-6-9.1s-8,0.6-10.7-1.9c-2.5-2.3-1.9-7.3-5.1-8.2
		c-0.2-4.7-0.3-9.3-0.5-14c3.3,2.7,7.5,4.3,11.7,4.4c2.4,0,5-0.4,7.2,0.7c1.4,0.7,2.5,1.9,3.6,3c7.7,7.2,19.3,7.5,29.8,8.6
		c15.4,1.6,30.5,6,44.4,13c4.4,2.2,8.6,4.6,13.4,5.8c3.4,0.8,7,0.9,10.4,1.8c4.3,1.1,8.3,3.3,11.5,6.5c2,2,3.7,4.4,6.2,5.6
		c1.8,0.9,3.9,1,5.9,1.2c11.4,0.9,22.9,1.8,34.3,2.7c0.3,6.1,0.2,12.2-0.2,18.3"/>
	<path class="st3" d="M105.4,317.7c-10,3.5-19.5-6.7-30.1-7.7c-3.1-0.3-6.3,0.2-9.4-0.5c-5.3-1.2-9.2-5.8-14.4-7.4
		c-2.4-0.7-4.9-0.7-7.4-0.7c-5.8,0-11.6,0-17.4,0.1c-11.4,0-24.1-0.4-32.3-8.3c-3.7-3.6-6.3-8.5-11-10.4c-6.6-2.7-14.4,1.8-21.1-0.6
		c-2.7-1-4.9-3-7.4-4.5c-7.6-4.6-18-3.8-24.8,1.8c-2,1.7-4.2,3.9-6.8,3.5c-3.5-0.4-4.8-5-4.7-8.5c0.1-4.4,0.9-8.7,2.4-12.8
		c7.9,0,13.8-0.6,21.1,2.5c3.5,1.5,7,3,10.4,4.5c11.6,5,23.3,10.1,35.5,13.5c10.6,3,21.5,4.7,32.4,5.5c10.2,0.7,21,0.8,29.7,6.2
		c2.4,1.5,4.5,3.3,7.1,4.4c5.4,2.4,11.7,1.2,17.4,2.9c4.1,1.3,7.5,4,11.3,5.9s8.5,3,12.2,0.9c-3.5-8.2-7.4-17-15-21.7
		c-2.1-1.3-4.3-2.2-6.5-3.1"/>
	<path class="st3" d="M-69.3,235.6c-0.2,7.2-0.3,14.3-0.5,21.5"/>
</g>
<g id="Layer_1_copy_3">
	<g id="X7ZSNy.tif_3_">
		<g>
			<path class="st2" d="M128.6,221.6c-3.3-0.5-6.6-1-9.8-1.5c-4.7-0.7-9.4-1.4-14.1-2.2c-4.4-0.8-8.7-1.7-13.1-2.6
				c-7.3-1.5-8.2-2.4-11,4.1c-2.6,5.9-6.4,10.3-11,14.8c-3.1,3-6.2,6.1-10.1,8.1c-3.5,1.8-7.5,2.7-11,4.7c-3.9,2.3-7.2,6.1-11.7,6.9
				c-1.3,0.2-2.7,0.2-4,0.7c-2.8,1.3-3.4,4.8-3.7,7.9c-0.8,9.1-0.7,17.7-2.6,26.7c-0.3,1.5-0.6,3-0.9,4.5c-1.1,5-2.1,10.1-3.3,15.1
				c-0.4,1.7-0.8,3.4-0.6,5.1c0.3,2,1.4,3.8,2.7,5.4c5.7,6.7,14.8,9.5,23.5,10.8s17.7,1.4,26,4.5c10.4,3.8,18.7,11.8,28.3,17.3
				c1.3,0.7,2.7,1.5,4.2,1.6c3.4,0.2,6.2-2.7,7.8-5.7c1.6-3,2.7-6.4,5.2-8.7c2-1.8,4.6-2.7,7-3.6c10.4-4.1,19.8-10.6,27.3-18.9
				c2.5-2.8,4.8-5.8,6-9.3c2.6-7.3,0-15.4,1.1-23.1c0.9-6,4-11.7,3.6-17.7c-0.4-6-4.4-11.3-5.7-17.2c-1.2-5.4-0.3-11.3-3.1-16.3
				C149.7,221.7,139.2,223.2,128.6,221.6z"/>
			<path d="M168.3,257.6c-0.4-1.2-0.8-2.4-0.9-3.6c-0.3-3.4-1.3-6.4-4.1-8.7c-0.4-0.3-0.7-0.9-0.7-1.3c-0.1-3.4-0.2-6.9-0.2-10.3
				c0-2.3,0-4.6-0.2-6.9c-0.2-1.8-0.7-3.6-2.6-4.4c-1.1-0.5-2.3-1-3.6-1.2c-5.9-0.8-11.9-1.4-17.8-2.4c-7.9-1.2-15.7-2.6-23.6-3.9
				c-4.1-0.7-8.2-1.6-12.4-2.4c-5.2-1-10.4-1.9-15.6-2.8c-0.8,1.4-1.8,2.8-3,3.9c2.7,0.6,5.4,1.1,8.1,1.7c4.4,0.9,8.7,1.8,13.1,2.6
				c4.7,0.8,9.4,1.5,14.1,2.2c3.3,0.5,6.6,1,9.8,1.5c3.7,0.6,7.4,1,11.1,1.7c4,0.7,7.9,1.5,11.8,2.4c0.6,0.1,1.4,0.8,1.4,1.3
				c0.1,0.5-0.5,1.3-1,1.7c-2.3,1.6-4.7,3-6.9,4.6c-3.8,2.7-7.5,5.6-11.2,8.4c-5.4,4.1-10.6,8.4-16.2,12.3c-4.4,3-9.3,5.5-13.9,8.2
				c-4,2.3-7.7,5.1-11.2,8c-3.3,2.7-6.6,5.5-10,8.2c-3.3,2.7-6.5,5.4-9.8,8l0,0c1.3,0.5,2.6,1.1,3.9,1.7c0.2-0.2,0.5-0.4,0.7-0.5
				c4.2-3.1,8.4-6.2,12.6-9.3c4.2-3.1,8.4-6.1,12.7-9.1c2.9-2,5.9-3.9,8.8-5.8c4.7-3.1,9.5-6.1,14.1-9.3c4.3-2.9,8.5-6,12.5-9.2
				c3.3-2.6,6.4-5.4,9.6-8.1c1.8-1.5,3.7-3,5.7-4.3c2.1-1.5,3.8-0.6,4.2,2c0.1,0.8,0.1,1.6,0.2,2.4c0.5,5.2,0.2,10.4-0.3,15.6
				c-0.2,2.5-1.6,4.5-3.7,6c-6.6,4.7-13.3,9.3-19.7,14.3c-4.8,3.7-9.3,7.8-13.8,11.8c-4.8,4.3-9.6,8.6-14.9,12.3
				c-3.4,2.4-6.7,4.9-10.1,7.3c0.8,1,1.5,2.1,2.2,3.2c9.4-7.5,18.7-15,28-22.5c1.4,3.2-0.2,6.8-2.8,8.1c-2.8,1.3-3.6,2.6-2.8,5.6
				c1,3.6-0.4,6.4-3.5,7.9c-1.5,0.8-2.6,2.1-2.9,3.8c-0.6,3-2.3,5.1-5.1,6.2c-1.7,0.7-3.5,1.3-5.3,1.9c0.3,0.8,0.6,1.5,0.9,2.3
				c2.8-0.7,5.5-1.8,8.1-3.2c2-1.1,3.1-2.9,3.9-4.9c0.8-1.8,1.9-3.3,3.4-4.6c2-1.7,2.9-3.8,2.6-6.5c-0.1-0.7,0-1.4-0.1-2.1
				c-0.3-2.2,0.9-3.6,2.5-4.7c2.3-1.4,3.7-3.5,4.4-6c0.2-0.7,0.5-1.4,1-2.2c0.6,1.8,1.3,3.5,1.7,5.3c1.7,7,1.4,14.1,0.3,21.2
				c-0.3,2-0.4,4-0.6,6.1c-9.2,0.6-17.7,2.6-25.9,5.8c0.4,1.2,0.7,2.5,1,3.7c0.2-0.1,0.5-0.2,0.7-0.3c0.3-0.1,0.6-0.2,0.9-0.3
				c0.1,0.1,0.2,0.2,0.3,0.4c-0.6,0.5-1.1,0.9-1.7,1.4c0.1,0.3,0.1,0.6,0.2,0.8c0.5-0.4,1-0.9,1.5-1.3c2-1.8,4-3.5,7.1-3.9
				c-2.7,2.6-5.3,5.4-8,7.9c0.3,1.6,0.6,3.2,0.8,4.8c1.1-0.9,2.2-1.8,3.2-2.9c3.2-3.1,5.9-6.7,9-9.8c0.7-0.7,2.2-0.7,3.3-0.9
				c3.7-0.5,7.4-0.9,11.1-1.4c0.2-1,0-2.1,0.5-2.8c0.5-0.6,1.7-0.7,2.5-1c5.3-2.1,10-5.3,13.7-9.6c2.2-2.7,4-5.7,6-8.6
				c0.2-0.2,0.3-0.4,0.6-0.8c0.5,3.7,0.1,7-2.5,9.5c-1.6,1.5-3.7,2.5-5.4,3.9c-2.7,2.3-5.3,4.8-8,7.2c-4.5,4.1-8.8,8.6-13.6,12.4
				c-4.6,3.7-8.8,7.7-12.9,11.8c-2.1,2.1-4.3,4.1-6.7,6c0,1.9,0,3.7-0.1,5.6c0.3-0.2,0.6-0.5,0.9-0.7c4.8-3.9,9.4-8.2,14.1-12.2
				c3.1-2.7,6.3-5.4,9.5-8c2.2-1.8,4.8-3.3,6.9-5.3c3.6-3.4,7-7.1,10.4-10.7c2.6-2.7,5.2-5.5,8.5-7.4c3.2-1.9,4.6-4.7,4.4-8.3
				c-0.2-3.8-0.6-7.5-0.9-11.3c0-0.4-0.1-0.9,0.1-1.3c1.2-3.9,2.2-7.8,2.3-11.8c0-0.7,0.1-1.4,0.3-2.1c1-3.5,2.2-7,3-10.6
				C169.3,263.8,169.3,260.7,168.3,257.6z M126.9,283.8c1.9-1.5,3.6-2.8,5.3-4.2c3.4-2.7,6.7-5.5,10.2-8.1c2.9-2.3,6-4.4,9-6.6
				c2.5-1.8,5-3.6,7.4-5.5c2-1.5,2.6-3.8,2.8-6.2c0-0.5,0.1-1.1,0.1-1.6c0.2,0,0.3-0.1,0.5-0.1c0.2,0.9,0.5,1.7,0.5,2.6
				c0.1,3.6-0.9,6.7-4.2,8.7c-1.1,0.6-2.3,1-3.4,1.6c-2,1.1-3.2,3.1-4,5.1s-2.1,3.4-4.2,4.2c-1.4,0.5-2.6,1.4-2.6,3.2
				c-0.1,2.2-1.3,3.6-3.2,4.6C136.7,283.7,132.1,284.4,126.9,283.8z M133.9,286.9c6.1-0.6,10.3-3.9,13.2-9.1
				c0.7-1.3,2.1-2.2,3.3-3.1c1.7-1.4,2.9-3.1,3.1-5.4c0.1-1.3,0.9-1.9,1.9-2.4c2.1-0.8,4-1.9,5.4-3.7c0.4-0.5,0.7-1,1.1-1.5
				c-5.4,13.3-14.5,23.4-26.4,31.5C135,290.9,134.5,288.9,133.9,286.9z M158.3,290.9c-2.1,4.1-4.1,8.3-6.5,12.2
				c-3.2,5.2-7.7,9.1-13.3,11.7c-0.5,0.2-1,0.6-1.6,0.8c-0.5,0.2-1,0.4-1.6,0.6c0.3-3.1,0.5-6.1,0.8-9c0-0.3,0.4-0.7,0.6-0.8
				c7.8-2.8,13.7-8.2,19.1-14.3c1.1-1.3,2.2-2.7,3.3-4c0.1,0,0.2,0.1,0.3,0.1C159.1,289.1,158.8,290,158.3,290.9z M164,269.7
				c-3,8.9-7.7,16.7-13.8,23.8c-2.9,3.3-6.2,6.2-10,8.4c-1.1,0.7-2.4,1.1-3.6,1.6c-0.2-3.1-0.5-5.9-0.7-8.9
				c5.8-3.1,10.5-7.7,15-12.6c3.6-3.9,6.8-8.1,9.4-12.7c1.8-3.1,3.4-6.2,3.3-10c0.2,0,0.3,0,0.5-0.1c0.3,1.2,1,2.4,1,3.6
				C164.9,265.2,164.8,267.6,164,269.7z"/>
			<path class="st2" d="M48.8,312.6c-1.1-0.1-2.2-0.2-3.3-0.3c0.3,0.9,0.5,1.7,0.8,2.6C47.1,314.1,47.9,313.4,48.8,312.6z"/>
			<path class="st2" d="M157.8,236.8c-0.1-0.8-0.1-1.6-0.2-2.4c-0.3-2.6-2.1-3.5-4.2-2c-2,1.4-3.8,2.8-5.7,4.3
				c-3.2,2.7-6.3,5.5-9.6,8.1c-4.1,3.2-8.3,6.2-12.5,9.2c-4.6,3.2-9.4,6.2-14.1,9.3c-2.9,1.9-5.9,3.8-8.8,5.8c-4.3,3-8.5,6-12.7,9.1
				c-4.2,3.1-8.4,6.2-12.6,9.3c-0.2,0.2-0.5,0.4-0.7,0.5c2.3,1.1,4.6,2.5,6.7,4c4.7,3.4,8.6,7.5,12,12c3.4-2.4,6.7-4.9,10.1-7.3
				c5.3-3.8,10.1-8,14.9-12.3c4.5-4,9-8.1,13.8-11.8c6.4-4.9,13.1-9.5,19.7-14.3c2.1-1.5,3.5-3.5,3.7-6
				C158,247.2,158.3,242,157.8,236.8z"/>
			<path class="st2" d="M158.3,300.2c-0.3,0.4-0.5,0.6-0.6,0.8c-2,2.9-3.7,6-6,8.6c-3.7,4.4-8.4,7.5-13.7,9.6c-0.9,0.3-2,0.4-2.5,1
				c-0.5,0.6-0.4,1.8-0.5,2.8c-3.7,0.4-7.4,0.9-11.1,1.4c-1.1,0.2-2.6,0.2-3.3,0.9c-3.1,3.2-5.9,6.7-9,9.8c-1,1-2.1,2-3.2,2.9
				c0.6,4.3,0.9,8.6,0.9,12.9c2.3-1.9,4.5-3.8,6.7-6c4.1-4.1,8.3-8.2,12.9-11.8c4.8-3.8,9.1-8.2,13.6-12.4c2.6-2.4,5.2-4.9,8-7.2
				c1.7-1.4,3.8-2.4,5.4-3.9C158.4,307.2,158.8,303.9,158.3,300.2z"/>
			<path class="st2" d="M131.6,291.7c-0.4-1.8-1.1-3.5-1.7-5.3c-0.5,0.8-0.8,1.5-1,2.2c-0.7,2.5-2.1,4.6-4.4,6
				c-1.7,1-2.8,2.5-2.5,4.7c0.1,0.7,0,1.4,0.1,2.1c0.3,2.6-0.6,4.8-2.6,6.5c-1.5,1.3-2.7,2.7-3.4,4.6c-0.8,2-1.9,3.8-3.9,4.9
				c-2.6,1.4-5.3,2.5-8.1,3.2c0.5,1.4,1,2.8,1.4,4.3c8.2-3.2,16.7-5.3,25.9-5.8c0.2-2.1,0.3-4.1,0.6-6.1
				C133,305.8,133.3,298.8,131.6,291.7z"/>
			<path class="st2" d="M125.5,284.7c-9.3,7.5-18.6,15-28,22.5c2.2,3.5,4.1,7.2,5.7,11c1.8-0.6,3.6-1.2,5.3-1.9
				c2.8-1.1,4.5-3.2,5.1-6.2c0.3-1.7,1.4-3,2.9-3.8c3.1-1.6,4.5-4.3,3.5-7.9c-0.8-3-0.1-4.3,2.8-5.6
				C125.3,291.6,126.9,287.9,125.5,284.7z"/>
			<path class="st2" d="M135.9,294.7c5.8-3.1,10.5-7.7,15-12.6c3.6-3.9,6.8-8.1,9.4-12.7c1.8-3.1,3.4-6.2,3.3-10
				c0.2,0,0.3,0,0.5-0.1c0.3,1.2,1,2.4,1,3.6c-0.1,2.3-0.2,4.7-0.9,6.8c-3,8.9-7.7,16.7-13.8,23.8c-2.9,3.3-6.2,6.2-10,8.4
				c-1.1,0.7-2.4,1.1-3.6,1.6C136.3,300.5,136.1,297.7,135.9,294.7z"/>
			<path class="st2" d="M162.2,251.5c0.2,0.9,0.5,1.7,0.5,2.6c0.1,3.6-0.9,6.7-4.2,8.7c-1.1,0.6-2.3,1-3.4,1.6c-2,1.1-3.2,3.1-4,5.1
				s-2.1,3.4-4.2,4.2c-1.4,0.5-2.6,1.4-2.6,3.2c-0.1,2.2-1.3,3.6-3.2,4.6c-4.4,2.3-9,3-14.3,2.3c1.9-1.5,3.6-2.8,5.3-4.2
				c3.4-2.7,6.7-5.5,10.2-8.1c2.9-2.3,6-4.4,9-6.6c2.5-1.8,5-3.6,7.4-5.5c2-1.5,2.6-3.8,2.8-6.2c0-0.5,0.1-1.1,0.1-1.6
				C161.9,251.6,162.1,251.5,162.2,251.5z"/>
			<path class="st2" d="M159.5,288.2c-0.4,0.9-0.7,1.8-1.2,2.7c-2.1,4.1-4.1,8.3-6.5,12.2c-3.2,5.2-7.7,9.1-13.3,11.7
				c-0.5,0.2-1,0.6-1.6,0.8c-0.5,0.2-1,0.4-1.6,0.6c0.3-3.1,0.5-6.1,0.8-9c0-0.3,0.4-0.7,0.6-0.8c7.8-2.8,13.7-8.2,19.1-14.3
				c1.1-1.3,2.2-2.7,3.3-4C159.3,288.1,159.4,288.2,159.5,288.2z"/>
			<path class="st2" d="M162,261.6c-5.4,13.3-14.5,23.4-26.4,31.5c-0.6-2.3-1.2-4.3-1.7-6.3c6.1-0.6,10.3-3.9,13.2-9.1
				c0.7-1.3,2.1-2.2,3.3-3.1c1.7-1.4,2.9-3.1,3.1-5.4c0.1-1.3,0.9-1.9,1.9-2.4c2.1-0.8,4-1.9,5.4-3.7
				C161.3,262.7,161.6,262.1,162,261.6z"/>
			<path class="st2" d="M108.5,329.2c-0.5,0.4-1,0.9-1.5,1.3c0.2,0.9,0.4,1.8,0.6,2.7c2.8-2.5,5.3-5.2,8-7.9
				C112.5,325.7,110.5,327.4,108.5,329.2z"/>
		</g>
	</g>
	<path class="st4" d="M109.4,334.8c-6.5-4.3-14.1-7-21.9-7.6c-3-0.2-6.1-0.2-9-1.3c-3.6-1.4-6.3-4.4-9.6-6.4
		c-6.3-3.8-14.4-3.4-21.1-6.4c-3.9-1.7-7.3-4.6-11.2-6.3s-9-2.1-12.1,0.9c-3.7,3.5-2.8,9.6-1,14.4c0.6,1.7,1.4,3.4,2.9,4.5
		c3,2.2,7.2,0.8,10.9,1c2.8,0.2,5.4,1.4,7.9,2.4c6.3,2.5,13.1,4.1,19.9,4.5c6.8,0.4,14.4,0.1,19.4,4.8c1.8,1.7,3,3.8,4.5,5.8
		c4.4,5.7,11.1,9.8,18.3,10.3c2.7-4.8,3-10.7,2-16.2s-3-10.7-4.5-16c-0.3-1-0.6-2-1.1-2.8c-0.6-0.9-1.4-1.7-2.2-2.4
		c-3.2-3.1-6.6,0.4-11-0.5"/>
	<path class="st4" d="M87.1,212.5c-3,0.4-5.2,3-6.6,5.6c-1.4,2.6-2.1,5.7-3.5,8.3c-4.6,8.3-15.2,10.7-23.2,15.8
		c-3.2,2-6,4.5-9.3,6.3c-5,2.7-10.8,3.4-16.4,4.2c-3.2,2.5-1.6,8,1.8,10.2c3.4,2.2,7.6,2.3,11.6,3c4.7,0.8,9.1,2.4,13.6,4
		c2.2,0.8,4.5,1.7,6,3.5c1.1,1.4,1.6,3.1,2.4,4.7c2.2,4.9,6.8,8.6,12,9.8c3.5,0.8,1.9,5.8,3.2,9.2c1.1,2.9,4.1,4.7,7.1,5.3
		s6.1,0.1,9.2-0.4"/>
	<path class="st4" d="M28.5,261.1c0,4.5-2,15,0.8,18.9c3,4.2,12,3,16.6,5.3c3.7,1.9,7,4.8,11,6c6,1.7,13.1-0.7,18.3,2.8
		c1.3,0.9,2.4,2.1,3.4,3.3c1.3,1.5,2.7,3,4,4.6"/>
	<path class="st4" d="M29.7,283.7c-3.4,3.2-6,7.5-6.9,12c2.4,1.6,1.1,5.4,1.4,8.2c3.5,0.5,6.6-2.2,10-2.8c3.4-0.6,6.7,0.9,9.9,2.4
		c5.9,2.8,11.7,5.5,17.6,8.3c3.3,1.6,6.7,3.1,10.2,4.3c8.9,2.8,18.4,2.7,27.8,2.3"/>
	<path class="st4" d="M98.5,310.6c-3.4-0.5-7.1,0.8-10.2-0.6c-1.2-0.5-2.1-1.4-3.3-2c-4.5-2.3-10.7,0.8-14.5-2.4
		c-2.4-2-2.8-5.6-5.1-7.6c-1-0.9-2.4-1.5-3.7-2c-2.1-0.8-4.3-1.6-6.4-2.5"/>
	<path class="st4" d="M88.1,302.9c4,0.2,8,0.4,12,0.6"/>
</g>
</svg>
