<?xml version="1.0" encoding="utf-8"?>
<!-- Generator: Adobe Illustrator 19.0.1, SVG Export Plug-In . SVG Version: 6.00 Build 0)  -->
<svg version="1.1" xmlns="http://www.w3.org/2000/svg" xmlns:xlink="http://www.w3.org/1999/xlink" x="0px" y="0px"
	 viewBox="0 0 316.1 216" style="enable-background:new 0 0 316.1 216;" xml:space="preserve">
<style type="text/css">
	.st0{display:none;}
	.st1{display:inline;}
	.st2{fill:#FFFFFF;}
	.st3{fill:none;stroke:#000000;stroke-width:4;stroke-miterlimit:10;}
	.st4{display:inline;fill:none;stroke:#000000;stroke-width:4;stroke-miterlimit:10;}
</style>
<g id="Layer_1_copy" class="st0">
	<g id="X7ZSNy.tif_1_" class="st1">
		<g>
			<path d="M0,119.1c2.3-7.7,6.7-13.6,14.1-17.7c-0.7-0.5-1.3-0.9-1.8-1.5c-1.7-1.9-2.6-4.3-2.5-6.7c0.1-7.9,0.4-15.7,0.9-23.6
				c0.2-3.8,2.6-6.6,5.8-8.5c3.7-2.2,7.8-3.6,11.8-4.8c7.2-2.3,14.4-4.6,21.2-8.3c5.6-3,11.2-5.9,16.9-8.7c4-1.9,8.1-3.4,12.1-5.2
				c3.9-1.6,7.8-3.3,11.7-5c7.2-3,14.5-6,21.6-9.1c3.7-1.6,7.3-3.4,10.9-5.1c6.1-2.8,12.2-5.7,18.4-8.4c4.5-1.9,9-3.6,13.6-5.2
				c4.4-1.5,9.1-1.8,13.7-1.3c7.4,0.8,14.8,1.7,22.2,2.7c6.1,0.8,12.1,1.8,18.2,2.9c7.8,1.4,15.5,3.1,23.2,4.6
				c5.7,1.1,11.4,2.1,17.1,3.1c4.1,0.8,8.2,1.6,12.4,2.4c7.9,1.4,15.7,2.7,23.6,3.9c5.9,0.9,11.9,1.5,17.8,2.4
				c1.2,0.2,2.4,0.7,3.6,1.2c1.9,0.8,2.4,2.6,2.6,4.4c0.2,2.3,0.2,4.6,0.2,6.9c0.1,3.4,0.1,6.9,0.2,10.3c0,0.5,0.4,1,0.7,1.3
				c2.8,2.2,3.8,5.3,4.1,8.7c0.1,1.2,0.5,2.4,0.9,3.6c1,3.1,1,6.2,0.3,9.2c-0.8,3.6-2,7.1-3,10.6c-0.2,0.7-0.2,1.4-0.3,2.1
				c-0.2,4.1-1.1,8-2.3,11.8c-0.1,0.4-0.1,0.9-0.1,1.3c0.3,3.8,0.7,7.5,0.9,11.3c0.2,3.6-1.3,6.4-4.4,8.3c-3.3,1.9-5.9,4.7-8.5,7.4
				c-3.4,3.6-6.8,7.3-10.4,10.7c-2.1,2-4.6,3.4-6.9,5.3c-3.2,2.6-6.4,5.3-9.5,8c-4.7,4.1-9.3,8.3-14.1,12.2c-3.2,2.6-6.7,5-10.2,7.3
				c-7.1,4.9-14.4,9.6-21.3,14.7c-5.1,3.8-9.9,8.1-14.9,12.1c-5.2,4.2-10.3,8.6-15.5,12.7c-3,2.3-6.2,4.3-9.3,6.4
				c-2.2,1.5-4.4,3-6.7,4.4c-2.4,1.4-4.9,2-7.6,1.1c-5-1.6-9.9-3.3-14.9-5c-4-1.4-8-2.8-12-4.2c-4.7-1.8-9.4-3.6-14.1-5.4
				c-3.6-1.4-7.3-2.8-10.9-4.3c-4.9-2-9.7-4-14.5-6c-3.3-1.4-6.7-2.8-10-4.2c-4.2-1.8-8.5-3.6-12.7-5.4c-3.3-1.4-6.6-2.8-10-4.2
				c-3.5-1.5-6.9-2.9-10.4-4.4c-2.5-1-5-2.1-7.5-3.1c-2.9-1.2-5.7-2.4-8.6-3.5c-2.9-1.2-5.7-2.3-8.6-3.5c-3.6-1.4-7.3-2.8-10.9-4.2
				c-2.7-1-5.3-2-8-3.1c-4.5-1.9-6.9-5.4-6.9-10.3c-0.1-3.8,0.1-7.7,0.2-11.5c0-1.2-0.2-2.2-0.7-3.2c-1.3-2.5-2.3-5.2-3.6-7.7
				c-0.2-0.4-0.7-0.8-1.1-1C4.2,120.6,2.2,119.9,0,119.1z M164.5,4.5c-5.4,0-10.5,1.5-15.4,3.4c-5,1.9-10,4.2-14.8,6.5
				c-3.3,1.6-6.4,3.5-9.6,5.2c-3.1,1.6-6.3,3.2-9.5,4.5c-3.6,1.5-7.4,2.6-11,4c-3.4,1.4-6.8,2.9-10.1,4.5c-4.3,1.9-8.5,3.9-12.7,5.9
				c-5.2,2.5-10.4,5-15.7,7.4c-4.2,2-8.4,4.1-12.6,5.9C48,54,42.7,56.1,37.4,58.1c-4.7,1.8-9.6,3.3-14.3,5.2
				c-1.7,0.6-3.2,1.7-4.6,2.7c-0.9,0.7-1.9,1.7-1.2,3c0.4,0.7,1.2,1.4,2,1.8c2.6,1.3,5.4,1.6,8.2,1.9c2.2,0.3,4.5,0.5,6.7,1.2
				c5.6,1.7,11,3.8,16.6,5.5c5.3,1.6,10.6,3.2,15.9,4.5c4.4,1.1,8.8,1.8,13.2,2.6c4.6,0.9,9.1,1.7,13.7,2.8c4.4,1,8.8,2.2,13.1,3.5
				c3.4,1,6.7,2.2,10,3.3c2.1,0.7,4.2,1.5,6.3,2.2c4.3,1.5,8.7,2.9,13,4.3c3.8,1.2,7.6,2.3,11.4,3.5c3.1,1,6.3,1.8,9.3,3.1
				c4,1.8,8.2,3.1,12.6,3.4c5.4,0.4,10.6-0.1,15.6-2.1c4.5-1.8,8.8-4.1,12.8-6.9c3.8-2.6,7.6-5.3,11.3-8.1c3.7-2.7,7.2-5.5,10.8-8.4
				c3.3-2.6,6.6-5.3,9.8-8c3.3-2.7,6.6-5.5,10-8.2c3.6-2.9,7.2-5.7,11.2-8c4.7-2.7,9.5-5.1,13.9-8.2c5.6-3.8,10.8-8.2,16.2-12.3
				c3.7-2.8,7.4-5.7,11.2-8.4c2.2-1.6,4.6-3,6.9-4.6c0.5-0.4,1.1-1.2,1-1.7c-0.1-0.5-0.9-1.1-1.4-1.3c-3.9-0.9-7.9-1.7-11.8-2.4
				c-3.7-0.7-7.4-1.1-11.1-1.7c-3.3-0.5-6.6-1-9.8-1.5c-4.7-0.7-9.4-1.4-14.1-2.2c-4.4-0.8-8.7-1.7-13.1-2.6
				c-5.7-1.2-11.4-2.4-17.1-3.6c-3.4-0.7-6.8-1.5-10.2-2.1c-2.8-0.5-5.6-1-8.4-1.5c-3.3-0.5-6.7-1-10-1.4c-4.1-0.5-8.3-0.7-12.4-1.2
				C175.1,5.8,169.8,5.1,164.5,4.5z M185.7,148.9c1.7-1.3,3.2-2.4,4.6-3.6c5.2-4.1,10.5-8.2,15.7-12.4c4.2-3.4,8.3-7.1,12.6-10.4
				c5.5-4.3,11.2-8.4,16.8-12.5c5.6-4.1,11.3-8.2,17-12.3c5.3-3.8,10.1-8,14.9-12.3c4.5-4,9-8.1,13.8-11.8
				c6.4-4.9,13.1-9.5,19.7-14.3c2.1-1.5,3.5-3.5,3.7-6c0.5-5.2,0.8-10.4,0.3-15.6c-0.1-0.8-0.1-1.6-0.2-2.4c-0.3-2.6-2.1-3.5-4.2-2
				c-2,1.4-3.8,2.8-5.7,4.3c-3.2,2.7-6.3,5.5-9.6,8.1c-4.1,3.2-8.3,6.2-12.5,9.2c-4.6,3.2-9.4,6.2-14.1,9.3
				c-2.9,1.9-5.9,3.8-8.8,5.8c-4.3,3-8.5,6-12.7,9.1c-4.2,3.1-8.4,6.2-12.6,9.3c-4.1,3-8.2,6.1-12.3,9.1c-3.7,2.7-7.5,5.5-11.3,8.1
				c-3.9,2.7-7.8,5.4-11.8,8.1c-1.9,1.2-3.7,2.4-4.5,4.7c-0.3,1.1-1,2-1.6,3.3c-0.3-0.6-0.4-0.8-0.4-1.1c-0.9-3.1-1.4-3.4-4.6-3.2
				c-1.7,0.1-3.5,0.7-5.1,0.4c-5.1-1-10.2-2.4-15.3-3.6c-4.5-1.1-9-2.3-13.5-3.5c-3.4-0.9-6.8-1.9-10.1-3.1c-2.3-0.8-4.5-2-6.8-2.9
				c-2.2-0.8-4.4-1.4-6.6-2.2c-3.4-1.2-6.8-2.4-10.2-3.6c-2.6-0.9-5.2-1.6-7.8-2.4c-2.8-0.8-5.7-1.5-8.5-2.2
				c-2.7-0.6-5.5-1.1-8.3-1.7c-2.9-0.7-5.8-1.5-8.8-2.3c-4.1-1-8.1-2-12.2-3.1c-4.2-1.1-8.4-2.2-12.6-3.4c-3.7-1-7.4-2.1-11.1-3.2
				c-3-0.9-6-1.9-9-2.6c-4.4-1.1-8.9-2.1-13.3-3.2c-1.1-0.3-1.9,0-2.3,1c-0.4,0.9-0.7,1.8-0.8,2.7c-0.2,3.1-0.3,6.3-0.5,9.5
				c-0.1,1.9-0.4,3.8-0.5,5.7c0,1.6,0.7,2.9,2.1,3.7c1.3,0.7,2.7,1.4,4.1,1.8c3.8,1.2,7.7,2.2,11.6,3.3c4.2,1.2,8.5,2.2,12.7,3.5
				c3.2,1,6.3,2.1,9.4,3.3c3.3,1.3,6.5,2.8,9.9,4.1c3.7,1.4,7.5,2.8,11.2,4.1c4.3,1.5,8.6,3,13,4.4c3.7,1.2,7.3,2.4,11,3.6
				c3.5,1.1,6.9,2.3,10.4,3.5c3,1,6,2.1,9,3.2c3.9,1.4,7.7,2.9,11.5,4.3c2.9,1.1,5.7,2.2,8.6,3.1c3,1,6.1,1.8,9.2,2.6
				c3.2,0.8,6.5,1.2,9.7,2.2c6,1.9,11.9,4.1,17.8,6.1c1,0.3,2,0.4,2.7-0.5c1.2-1.7,2.6-3.4,3.4-5.3c0.8-1.7,1.5-3.7,1.4-5.5
				c-0.2-3.6-0.1-7,0.9-10.5c0.4-1.3,0.9-2.5,1.3-3.7C185.5,133,185.6,140.8,185.7,148.9z M15.5,136.6c0,1.8,0,3.4,0,5
				c0,4.1,1.8,7,5.6,8.4c5.7,2.1,11.4,3.8,17.1,5.9c4.9,1.9,9.8,4,14.6,6.1c2.9,1.3,5.8,2.9,8.7,4.2c3.2,1.4,6.4,2.8,9.6,4.1
				c4.4,1.8,8.8,3.6,13.2,5.4c4.3,1.7,8.7,3.4,13,5.2c5.6,2.3,11.1,4.8,16.6,7.2c4.7,2.1,9.4,4.1,14.1,6.2c4.3,1.9,8.8,3.6,13.4,4.7
				c2.2,0.5,4.4,1.1,6.5,2c5.6,2.2,11.1,4.6,16.7,6.9c2.2,0.9,4.6,1.4,7,1.1c2.6-0.3,4.7-1.4,5.8-4c1-2.4,0.9-4.9,0.5-7.3
				c-0.8-4.7,0.3-8.9,2.4-13.4c0,7.7,0,15.1,0,22.7c1.8-1.2,3.3-2.3,4.9-3.3c6.1-3.8,11.4-8.4,17-12.8c4.3-3.4,8.6-6.8,13-10
				c5.3-3.8,10.7-7.5,16.1-11.2c6.2-4.3,12.3-8.8,18.6-13c4.7-3.2,9.1-6.7,13.1-10.7c4.1-4.1,8.3-8.2,12.9-11.8
				c4.8-3.8,9.1-8.2,13.6-12.4c2.6-2.4,5.2-4.9,8-7.2c1.7-1.4,3.8-2.4,5.4-3.9c2.7-2.5,3-5.8,2.5-9.5c-0.3,0.4-0.5,0.6-0.6,0.8
				c-2,2.9-3.7,6-6,8.6c-3.7,4.4-8.4,7.5-13.7,9.6c-0.9,0.3-2,0.4-2.5,1c-0.5,0.6-0.4,1.8-0.5,2.8c-3.7,0.4-7.4,0.9-11.1,1.4
				c-1.1,0.2-2.6,0.2-3.3,0.9c-3.1,3.2-5.9,6.7-9,9.8c-3.9,3.8-8.3,6.9-13.7,8.3c-1.2,0.3-2.3,0.7-3.2,1.8c-2.1,2.5-4.3,4.9-6.5,7.3
				c-1,1-2.3,1.8-3,3c-2,3.7-4.3,7.1-6.9,10.3c-2,2.5-4.3,4.8-7.3,6.2c-7.3,3.3-15.1,4.5-22.9,5.6c-4.4,0.6-8.8,1.4-13.1,2.6
				c-4.8,1.3-9.4,3.2-14.1,4.7c-5.4,1.8-10.9,1.9-16.5,1.1c-3.3-0.5-6.5-1.4-9.6-2.4c-4-1.3-7.9-2.8-11.8-4.3
				c-3.4-1.3-6.6-2.8-9.9-4.2c-0.9-0.4-1.6-0.2-2.4,0.5c-1.1,1-2.3,1.8-3.5,2.7c-0.5-0.5-0.9-1-1.2-1.4c-3.1-4-6.5-7.7-10.4-10.8
				c-0.2-0.2-0.7-0.3-1-0.3c-4.5,0.4-9,0.9-13.4,1.2c-5.9,0.4-11.8-0.1-17.5-1.7c-5-1.4-9.4-4.1-13.8-6.8c-4.1-2.5-8.1-5-12.4-7.1
				c-4.9-2.5-10.2-4.3-15.1-6.7c-3.3-1.6-6.5-3.6-9.7-5.6C18.2,138.9,17,137.8,15.5,136.6z M199.8,152.1c0.2,0.6,0.2,1.1,0.4,1.5
				c0.6,1.8,1.9,2.8,3.3,2.4c2.1-0.6,3.7-1.8,4.3-4c0.3-1.1,0.4-2.3,0.8-3.4c0.3-1.1,0.6-2.2,1.2-3.2c1.4-2.4,3.8-2.7,5.6-0.8
				c0.7,0.8,1.4,0.7,2.1,0.2c1.6-1.1,3.3-2.2,4.7-3.5c2.8-2.7,5.3-5.7,6-9.8c0.5-2.8-0.4-5.1-2.5-7c-0.5-0.5-1.1-0.6-1.7,0
				c-1,0.9-2,1.6-3.1,2.4c-3.4,2.4-6.9,4.7-10.2,7.2c-3.4,2.6-6.6,5.4-9.9,8c-4.8,3.8-9.6,7.6-14.5,11.3c-2.6,1.9-5.5,3-8.7,2
				c-4.2-1.3-8.3-2.7-12.5-4c-4-1.2-8-2.4-12-3.5c-1.9-0.5-3.9-1-5.9-1.4c-1.9-0.4-3.7-0.8-5.7-1.3c-0.2,2,0.1,3.9,0.9,5.6
				c1.9,4.2,5.3,7,9.6,8.5c1.2,0.4,2.9,0.6,3.9,0c2.1-1.3,3.7-0.8,5.4,0.4c2,1.5,4,1.2,6.2,0.3c2.3-0.9,4.6-1.3,6.9,0
				c1.7,1,3.2,2.1,4.9,3c2,1,4.1,1.8,6.4,1.6c1.3-0.1,2.1-0.6,2.6-1.8c0.3-0.7,0.5-1.4,1-1.9c0.8-0.9,1.9-1,3.1-0.8
				c2.9,0.6,4.1,0,5.4-2.6C198.4,155.9,199,154.1,199.8,152.1z M18.9,103.7c0.1,2.1,0.2,4.3,0.4,6.4c0.1,0.9,0.5,1.8,1,2.6
				c1.1,1.9,2.7,3.1,5,3.3c2.7,0.3,3.8,1.4,4.4,4c0.2,0.7,0.4,1.5,0.7,2.2c0.6,1.5,1.6,2.3,3.3,2.2c1.2-0.1,2.4-0.3,3.6-0.6
				c2.3-0.7,4.6-1.5,6.9-2.3c-0.2,0.3-0.6,0.6-0.9,0.8c-2,1.4-4.2,2.8-6.1,4.4c-1.4,1.1-1,1.9,0.6,2.6c2.5,1,4.8,0.1,7.1-0.6
				c2.4-0.7,4.8-1.5,7.2-2.2c1.6-0.5,3.2,0,4.6,0.8c1.3,0.8,1.6,1.6,1.1,3.1c-0.4,1.2,0.1,2,1,2.7c1.1,0.8,2.3,1.1,3.7,1.1
				c4,0,7.9-1,11.8-2c5.3-1.4,10.7-2.8,16.4-4.2c-1.3-0.5-2.3-0.8-3.3-1.2c-3.9-1.5-7.8-3-11.7-4.5c-3.6-1.4-7.3-2.8-10.9-4.1
				c-4.1-1.5-8.2-3-12.3-4.4c-4.7-1.5-9.4-2.7-14.1-4.1C31.9,107.7,25.6,105.7,18.9,103.7z M67.1,137.9c18,8.8,34.8,18.9,47.2,34.8
				c8.8-5.6,15.7-9.3,32-13.1c-3.2-2.1-6-4.6-7.8-8c-0.5,0.2-1,0.3-1.3,0.6c-1.8,1.3-3.7,1.3-5.6,0.3c-2.4-1.2-4.5-0.8-6.5,0.9
				c-2.5,2.2-5.3,3.3-8.6,2.1c-1.9-0.7-3.7-0.7-5.5-0.2c-1.4,0.4-2.9,0.5-4.3-0.2c-2.4-1.2-4.9-2.3-7.3-3.7c-2.4-1.4-4.7-3-6.3-5.3
				c-1.2-1.6-2.6-2.6-4.5-3.1c-1.9-0.5-3.8-1-5.7-1.6c-1.8-0.6-2.1-1.8-1.1-3.3c0.1-0.2,0.3-0.4,0.4-0.6c0.4-1.1,0.1-1.7-1-1.8
				c-0.9-0.1-1.9-0.1-2.8,0.1C74.7,136.4,71,137.1,67.1,137.9z M139.9,144.8c-4.1-1.5-8-2.9-11.8-4.3c-3.6-1.4-7.3-2.8-10.9-4.1
				c-3.4-1.2-6.9-2.4-10.4-3.5c-3.7-1.2-7.4-2.1-11.1-3.3c-1.6-0.6-2.8-0.4-4,0.7c-0.2,0.2-0.5,0.4-0.7,0.6c-2.1,2-4.3,3.9-5.4,6.7
				c-0.5,1.3-0.2,2.1,1.2,2.3c1.1,0.2,2.3,0.2,3.5,0.2c1.9,0,3.4,0.2,4.3,2.5c0.1,0.3,0.3,0.6,0.5,0.8c2.1,2.7,4.8,4.7,7.6,6.6
				c2.5,1.7,5.1,2.6,8.2,1.3c1.8-0.7,3.7-0.6,5.4,0.5c1.9,1.2,4,1.6,5.9,0.2c1.2-0.9,2.2-2,3.3-3c1.4-1.3,3-1.4,4.6-0.3
				c1.1,0.8,2.3,1,3.7,0.7C136.5,148.7,138.2,146.9,139.9,144.8z M227.9,139.2c15.3-10.5,31.7-18,50.5-19.2c0.2-2.1,0.3-4.1,0.6-6.1
				c1.1-7.1,1.3-14.2-0.3-21.2c-0.4-1.8-1.1-3.5-1.7-5.3c-0.5,0.8-0.8,1.5-1,2.2c-0.7,2.5-2.1,4.6-4.4,6c-1.7,1-2.8,2.5-2.5,4.7
				c0.1,0.7,0,1.4,0.1,2.1c0.3,2.6-0.6,4.8-2.6,6.5c-1.5,1.3-2.7,2.7-3.4,4.6c-0.8,2-1.9,3.8-3.9,4.9c-3.9,2.1-8.2,3.5-12.6,4.1
				c-0.6,0.1-1.3,0.2-1.8,0.5c-1.5,1.1-3.1,2.3-4.5,3.6c-2.1,1.9-3.7,2.8-5.9,1.4c-0.6-0.4-1.2-0.9-1.7-1.4c-1.1-1.2-2.2-2.5-3.4-4
				C231.5,128.5,231.7,134,227.9,139.2z M230,119.9c1.6,1.5,3.1,3,4.8,4.2c1.5,1.1,2.9,0.9,4.2-0.4c0.6-0.5,1-1.1,1.5-1.7
				c1.3-1.4,2.8-2.1,4.7-1.9c1,0.1,2.1,0,3.1-0.3c2.4-0.7,4.8-1.6,7.1-2.5c2.8-1.1,4.5-3.2,5.1-6.2c0.3-1.7,1.4-3,2.9-3.8
				c3.1-1.6,4.5-4.3,3.5-7.9c-0.8-3-0.1-4.3,2.8-5.6c2.6-1.2,4.2-4.9,2.8-8.1C258.4,97.1,244.3,108.4,230,119.9z M225.1,160.9
				c-0.1-0.1-0.2-0.2-0.3-0.3c-0.2,0.1-0.5,0.3-0.7,0.4c-5.4,4.1-11.2,7.6-17.9,9.3c-5.7,1.5-11.3,1.5-16.8-0.6
				c-1.3-0.5-2.6-1.2-3.8-1.9c-1.1-0.6-2.3-0.2-2.9,0.8c-0.7,1.1-1.4,2.3-2.4,3.2c-2.8,2.8-6.4,4.1-10.1,4.6
				c-7.3,1.2-14.6,0.5-21.8-1.1c-5.8-1.3-11.6-2.9-17.1-5.4c-1.4-0.6-2.6-0.3-3.8,0.2c-1,0.4-1.9,1-2.9,1.5
				c-0.7,0.4-1.5,0.8-2.4,1.3c0.6,0.3,0.9,0.4,1.2,0.6c3.9,1.5,7.8,2.9,11.7,4.4c5.1,1.9,10.1,3.9,15.4,4.9c5.1,0.9,10.2,1,15.2-0.6
				c4.7-1.5,9.3-3.5,14.1-5c3.3-1,6.6-1.9,10-2.4c7.4-1.1,14.9-1.8,22-4.1c2.6-0.8,5.3-1.7,7.3-3.6
				C221.2,165.3,223.1,163.1,225.1,160.9z M26.6,123.9c-0.2,0.1-0.3,0.3-0.5,0.4c0.1,0.9,0,1.9,0.2,2.8c0.6,3,2.5,5.1,4.6,7
				c3.2,2.8,6.8,4.9,10.5,6.8c5,2.6,10.1,4.7,15.5,6.3c4.9,1.5,9.8,2.8,14.9,3.2c2.3,0.2,4.7,0.2,7,0.1c1.1,0,2.2-0.5,3.6-0.8
				c-0.8-0.5-1.2-0.8-1.7-1.1c-3.2-1.8-6.1-4.2-10-4.3c-0.5,0-0.9-0.1-1.4-0.2c-4.9-1.4-9.9-2.9-14.8-4.4c-5.5-1.7-10.7-4-15.8-6.8
				c-3.5-2-6.8-4.2-9.4-7.3C28.7,124.7,27.5,124.4,26.6,123.9z M90.6,164.1c-3.8-1.5-7.5-2.8-11.2-4.5c-2.8-1.2-5.3-2.9-7.1-5.5
				c-0.3-0.5-1.1-0.8-1.7-0.9c-1.7-0.3-3.4-0.3-5-0.7c-5.5-1.1-11-2.4-16.4-4.4c-6.4-2.4-12.4-5.3-17.8-9.4c-1.9-1.4-3.6-2.7-6-3
				c-1.6-0.2-3.1-0.8-4.7-1.3c-0.5-0.2-1-0.4-1.6-0.6c0,0.4,0.2,0.6,0.3,0.7c2.8,2,5.6,4.3,8.6,6.1c4,2.3,8,4.6,12.2,6.4
				c6.2,2.6,12,5.7,17.7,9.2c2.4,1.5,4.8,3.2,7.4,4.3c3.1,1.3,6.3,2.3,9.6,3.1C80.1,165,85.4,164.5,90.6,164.1z M282.9,95.7
				c0.2,2.9,0.5,5.8,0.7,8.9c1.2-0.5,2.5-0.9,3.6-1.6c3.8-2.2,7.2-5.1,10-8.4c6.1-7.1,10.9-14.9,13.8-23.8c0.7-2.1,0.8-4.5,0.9-6.8
				c0-1.2-0.6-2.4-1-3.6c-0.2,0-0.3,0-0.5,0.1c0.2,3.8-1.5,6.9-3.3,10c-2.6,4.6-5.8,8.8-9.4,12.7C293.4,88,288.7,92.6,282.9,95.7z
				 M243,134.4c-0.5,0.8-0.8,1.5-1.3,2.1c-2.1,2.5-4.2,5.1-6.5,7.4c-4.2,4.2-8.8,7.9-13.9,10.9c-3.3,2-6.8,3.7-10.4,5.2
				c-5,2.2-10.4,3.1-15.9,2.9c-1.2,0-2.6-0.6-3.6-0.2c-1,0.5-1.4,1.9-2.1,3c0,0.1,0,0.2,0,0.3c2.3,1.3,4.7,2.1,7.4,2.2
				c6,0.3,11.4-1.6,16.7-4c5.8-2.6,11.2-6.1,16.1-10.1c4.8-4,9.3-8.2,12.3-13.7C242.8,138.6,243.7,136.8,243,134.4z M177.6,165.8
				c-0.9,0.5-1.8,1.1-2.8,1.5c-3.1,1.2-6.4,1.3-9.7,1.3c-2.4,0-4.9-0.1-7.3-0.3c-5.2-0.4-10.2-1.3-15.2-2.9c-1.7-0.5-3.4-1-5.2-0.2
				c-1.9,0.8-3.9,1.4-6.1,2.2c0.5,0.4,0.6,0.5,0.8,0.6c2.7,1,5.3,2.1,8.1,2.8c3.6,1,7.2,1.8,10.8,2.3c7.4,1.2,14.8,1.5,22.2-0.2
				C176.8,172.2,178.6,169.9,177.6,165.8z M309.2,52.5c-0.2,0-0.3,0.1-0.5,0.1c0,0.5-0.1,1.1-0.1,1.6c-0.2,2.4-0.8,4.7-2.8,6.2
				c-2.4,1.9-4.9,3.7-7.4,5.5c-3,2.2-6.1,4.3-9,6.6c-3.4,2.6-6.8,5.4-10.2,8.1c-1.7,1.3-3.4,2.7-5.3,4.2c5.2,0.6,9.9-0.1,14.3-2.3
				c1.9-1,3.1-2.4,3.2-4.6c0.1-1.8,1.2-2.6,2.6-3.2c2.1-0.8,3.3-2.2,4.2-4.2c0.8-2.1,2-4,4-5.1c1.1-0.6,2.3-1,3.4-1.6
				c3.3-1.9,4.3-5.1,4.2-8.7C309.7,54.2,309.4,53.4,309.2,52.5z M198.5,161.4c1.7-0.3,3.2-0.3,4.5-0.8c3.4-1.2,6.7-2.3,9.9-3.8
				c9.1-4.3,17.5-9.7,24.1-17.4c1.1-1.3,2-2.8,3-4.3c-0.1-0.1-0.2-0.2-0.4-0.3c-4,2.5-8,5-12,7.5c-5,3.2-9.9,6.4-14.8,9.7
				c-1,0.7-2.2,1.4-2.8,2.4c-1.5,2.5-3.4,4.1-6.3,4.4c-1.2,0.1-2.5,0-3.7,0C199.7,159.6,199.2,160.4,198.5,161.4z M306.5,89.2
				c-0.1,0-0.2-0.1-0.3-0.1c-1.1,1.3-2.1,2.7-3.3,4c-5.4,6.1-11.2,11.5-19.1,14.3c-0.3,0.1-0.6,0.5-0.6,0.8c-0.3,3-0.5,5.9-0.8,9
				c0.6-0.2,1.2-0.4,1.6-0.6c0.5-0.2,1-0.6,1.6-0.8c5.6-2.6,10.1-6.5,13.3-11.7c2.4-3.9,4.3-8.1,6.5-12.2
				C305.8,91,306.1,90.1,306.5,89.2z M309,62.6c-0.4,0.5-0.7,1-1.1,1.5c-1.4,1.8-3.3,2.9-5.4,3.7c-1.1,0.4-1.8,1.1-1.9,2.4
				c-0.2,2.3-1.4,3.9-3.1,5.4c-1.2,1-2.6,1.9-3.3,3.1c-2.9,5.3-7.1,8.6-13.2,9.1c0.5,2,1.1,4,1.7,6.3C294.5,86.1,303.7,76,309,62.6z
				 M143.5,163.2c0,0.1,0,0.3,0.1,0.4c0.3,0.1,0.6,0.3,0.9,0.3c3.9,0.8,7.9,1.7,11.8,2.3c4.5,0.7,9.1,1.1,13.7,0.4
				c2-0.3,4.1-0.4,5.8-1.5c-0.9-0.6-1.8-1.1-2.7-1.7c-1.4-1.1-3-1.3-4.6-1c-0.7,0.2-1.5,0.4-2.2,0.6c-2.2,0.5-4.3,0.9-6.5-0.4
				c-0.7-0.4-1.8-0.7-2.6-0.5c-2.1,0.4-4.1,0.2-6-0.8c-0.3-0.2-0.7-0.3-0.9-0.3C148,161.8,145.8,162.5,143.5,163.2z M27.2,120.7
				c-0.3-1.4-1-2.4-2.6-2.5c-0.8-0.1-1.6-0.2-2.4-0.3c-2-0.2-3.7-0.9-4.6-2.7c-0.5-1.2-0.9-2.4-1.1-3.7c-0.3-1.5-0.4-2.9-0.5-4.4
				c-3.3,0.9-8.9,5.7-9,8.3C13.7,117.1,20.5,118.9,27.2,120.7z M39.8,132.2c9.2,5.1,19.2,8,29.5,10.1c-0.3-0.3-0.5-0.5-0.9-0.6
				c-2.1-1.1-4.2-2.2-6.4-3.2c-4.5-2.2-9.1-4.3-13.6-6.4c-0.6-0.3-1.3-0.6-1.9-0.5C44.3,131.7,42.1,132,39.8,132.2z M99.5,162.2
				c0.1-0.2,0.2-0.3,0.3-0.5c-1.5-0.9-2.9-1.9-4.4-2.6c-1.6-0.7-3.3-0.9-4.9-1.5c-3-1.1-6-2.2-8.9-3.4c-1.8-0.7-3.3-2.1-5.7-1.2
				C82.9,158.4,91.2,160.4,99.5,162.2z M262.5,126.3c-3.1,0.4-5,2.1-7.1,3.9c-3.2,2.8-6.5,5.4-9.9,7.9c-1.3,0.9-2.2,2-2.7,3.7
				C251.1,138.6,256.5,132.2,262.5,126.3z M12.1,119.8c0,6.1,9.5,12.1,15.2,13.5c-0.7-1.1-1.4-2.3-2.2-3.4c-0.3-0.4-0.6-0.7-1-1
				c-4.1-2.2-8.1-4.5-10.8-8.5C13,120.3,12.6,120.1,12.1,119.8z M14.9,120.6c2.3,3.5,5.7,5.6,9.2,7.3c0.2-1.5,0.4-2.8,0.6-4.4
				C21.5,122.5,18.2,121.6,14.9,120.6z M80,152.4c4.4,2.5,9,3.9,13.8,5.1c-0.1-0.2-0.1-0.4-0.3-0.4c-2.6-1.7-5.1-3.4-7.8-5
				c-0.8-0.5-1.7-1-2.5-1C82.2,151.2,81.2,151.9,80,152.4z M244.7,138c3.7-3,7.2-5.8,10.7-8.7c-0.1-0.1-0.2-0.2-0.3-0.4
				c-0.3,0.1-0.7,0.1-0.9,0.3c-2.8,1.3-5.7,2.7-8.5,4c-0.8,0.4-1.2,0.8-1,1.8C244.8,135.8,244.7,136.7,244.7,138z M49.6,129.3
				c0,0.1,0,0.2,0,0.3c1.8,0.8,3.5,1.6,5.4,2.5c0-0.6-0.1-1-0.1-1.3c-0.2-1.5-0.7-2-2.2-1.8C51.6,128.9,50.6,129.1,49.6,129.3z
				 M209.6,150.5c0.1,0.1,0.2,0.2,0.4,0.3c1.6-1,3.1-2.1,4.8-3.2c-0.5-0.2-0.8-0.3-1.1-0.5c-0.9-0.8-1.7-0.7-2.3,0.3
				C210.7,148.3,210.2,149.4,209.6,150.5z"/>
			<path class="st2" d="M164.5,4.5c5.3,0.7,10.6,1.4,15.9,2c4.1,0.5,8.3,0.7,12.4,1.2c3.3,0.4,6.7,0.9,10,1.4
				c2.8,0.4,5.6,0.9,8.4,1.5c3.4,0.7,6.8,1.4,10.2,2.1c5.7,1.2,11.4,2.4,17.1,3.6c4.4,0.9,8.7,1.8,13.1,2.6
				c4.7,0.8,9.4,1.5,14.1,2.2c3.3,0.5,6.6,1,9.8,1.5c3.7,0.6,7.4,1,11.1,1.7c4,0.7,7.9,1.5,11.8,2.4c0.6,0.1,1.4,0.8,1.4,1.3
				c0.1,0.5-0.5,1.3-1,1.7c-2.3,1.6-4.7,3-6.9,4.6c-3.8,2.7-7.5,5.6-11.2,8.4c-5.4,4.1-10.6,8.4-16.2,12.3c-4.4,3-9.3,5.5-13.9,8.2
				c-4,2.3-7.7,5.1-11.2,8c-3.3,2.7-6.6,5.5-10,8.2c-3.3,2.7-6.5,5.4-9.8,8c-3.6,2.8-7.1,5.6-10.8,8.4c-3.7,2.8-7.5,5.5-11.3,8.1
				c-4,2.8-8.3,5.1-12.8,6.9c-5,1.9-10.3,2.5-15.6,2.1c-4.4-0.4-8.5-1.6-12.6-3.4c-3-1.3-6.2-2.1-9.3-3.1c-3.8-1.2-7.6-2.3-11.4-3.5
				c-4.3-1.4-8.7-2.9-13-4.3c-2.1-0.7-4.2-1.5-6.3-2.2c-3.3-1.1-6.7-2.3-10-3.3c-4.3-1.3-8.7-2.5-13.1-3.5
				c-4.5-1.1-9.1-1.9-13.7-2.8c-4.4-0.9-8.9-1.6-13.2-2.6c-5.4-1.3-10.7-2.9-15.9-4.5c-5.6-1.7-11-3.8-16.6-5.5
				c-2.1-0.7-4.4-0.9-6.7-1.2c-2.8-0.3-5.6-0.6-8.2-1.9c-0.8-0.4-1.6-1-2-1.8c-0.7-1.3,0.3-2.3,1.2-3c1.4-1.1,3-2.1,4.6-2.7
				c4.7-1.8,9.6-3.3,14.3-5.2c5.3-2,10.5-4.1,15.7-6.4c4.3-1.8,8.4-3.9,12.6-5.9c5.2-2.5,10.4-5,15.7-7.4c4.2-2,8.5-4,12.7-5.9
				c3.3-1.5,6.7-3.1,10.1-4.5c3.6-1.4,7.4-2.5,11-4c3.2-1.3,6.4-2.9,9.5-4.5c3.2-1.7,6.3-3.6,9.6-5.2c4.9-2.3,9.8-4.5,14.8-6.5
				C154.1,5.9,159.1,4.5,164.5,4.5z"/>
			<path class="st2" d="M185.7,148.9c-0.1-8.1-0.3-15.8-0.4-23.6c-0.4,1.2-0.9,2.5-1.3,3.7c-1,3.4-1.2,6.9-0.9,10.5
				c0.1,1.8-0.6,3.8-1.4,5.5c-0.9,1.9-2.2,3.6-3.4,5.3c-0.7,0.9-1.7,0.8-2.7,0.5c-5.9-2.1-11.8-4.2-17.8-6.1c-3.1-1-6.5-1.4-9.7-2.2
				c-3.1-0.8-6.2-1.6-9.2-2.6c-2.9-0.9-5.8-2-8.6-3.1c-3.9-1.4-7.7-2.9-11.5-4.3c-3-1.1-6-2.2-9-3.2c-3.4-1.2-6.9-2.3-10.4-3.5
				c-3.7-1.2-7.3-2.4-11-3.6c-4.3-1.4-8.7-2.9-13-4.4c-3.8-1.3-7.5-2.6-11.2-4.1c-3.3-1.3-6.5-2.8-9.9-4.1c-3.1-1.2-6.2-2.4-9.4-3.3
				c-4.2-1.3-8.5-2.4-12.7-3.5c-3.9-1.1-7.8-2.1-11.6-3.3c-1.4-0.4-2.8-1.1-4.1-1.8c-1.4-0.8-2.1-2.1-2.1-3.7c0-1.9,0.3-3.8,0.5-5.7
				c0.2-3.2,0.3-6.3,0.5-9.5c0.1-0.9,0.4-1.9,0.8-2.7c0.4-1,1.2-1.3,2.3-1c4.4,1.1,8.9,2,13.3,3.2c3,0.8,6,1.8,9,2.6
				c3.7,1.1,7.4,2.2,11.1,3.2c4.2,1.2,8.4,2.3,12.6,3.4c4.1,1.1,8.1,2.1,12.2,3.1c2.9,0.8,5.8,1.6,8.8,2.3c2.7,0.6,5.5,1.1,8.3,1.7
				c2.9,0.7,5.7,1.4,8.5,2.2c2.6,0.7,5.2,1.5,7.8,2.4c3.4,1.1,6.8,2.4,10.2,3.6c2.2,0.7,4.4,1.3,6.6,2.2c2.3,0.9,4.5,2.1,6.8,2.9
				c3.3,1.1,6.7,2.1,10.1,3.1c4.5,1.2,9,2.4,13.5,3.5c5.1,1.3,10.2,2.6,15.3,3.6c1.6,0.3,3.4-0.2,5.1-0.4c3.2-0.3,3.7,0,4.6,3.2
				c0.1,0.2,0.2,0.5,0.4,1.1c0.7-1.3,1.3-2.2,1.6-3.3c0.8-2.3,2.6-3.4,4.5-4.7c4-2.6,7.9-5.3,11.8-8.1c3.8-2.7,7.6-5.4,11.3-8.1
				c4.1-3,8.2-6.1,12.3-9.1c4.2-3.1,8.4-6.2,12.6-9.3c4.2-3.1,8.4-6.1,12.7-9.1c2.9-2,5.9-3.9,8.8-5.8c4.7-3.1,9.5-6.1,14.1-9.3
				c4.3-2.9,8.5-6,12.5-9.2c3.3-2.6,6.4-5.4,9.6-8.1c1.8-1.5,3.7-3,5.7-4.3c2.1-1.5,3.8-0.6,4.2,2c0.1,0.8,0.1,1.6,0.2,2.4
				c0.5,5.2,0.2,10.4-0.3,15.6c-0.2,2.5-1.6,4.5-3.7,6c-6.6,4.7-13.3,9.3-19.7,14.3c-4.8,3.7-9.3,7.8-13.8,11.8
				c-4.8,4.3-9.6,8.6-14.9,12.3c-5.7,4.1-11.3,8.2-17,12.3c-5.6,4.1-11.3,8.2-16.8,12.5c-4.3,3.3-8.3,7-12.6,10.4
				c-5.2,4.2-10.4,8.3-15.7,12.4C188.9,146.5,187.4,147.6,185.7,148.9z"/>
			<path class="st2" d="M15.5,136.6c1.5,1.2,2.7,2.3,4.1,3.2c3.2,1.9,6.3,3.9,9.7,5.6c5,2.4,10.2,4.3,15.1,6.7
				c4.3,2.1,8.3,4.6,12.4,7.1c4.4,2.7,8.8,5.4,13.8,6.8c5.7,1.6,11.6,2.1,17.5,1.7c4.5-0.3,9-0.8,13.4-1.2c0.3,0,0.7,0.1,1,0.3
				c3.9,3.2,7.4,6.8,10.4,10.8c0.4,0.5,0.8,0.9,1.2,1.4c1.2-0.9,2.4-1.7,3.5-2.7c0.8-0.7,1.4-0.9,2.4-0.5c3.3,1.4,6.6,2.9,9.9,4.2
				c3.9,1.5,7.8,3,11.8,4.3c3.1,1,6.4,1.9,9.6,2.4c5.5,0.9,11.1,0.8,16.5-1.1c4.7-1.6,9.3-3.4,14.1-4.7c4.3-1.2,8.7-1.9,13.1-2.6
				c7.8-1.1,15.6-2.2,22.9-5.6c3-1.4,5.2-3.7,7.3-6.2c2.6-3.2,4.9-6.6,6.9-10.3c0.6-1.2,2-2,3-3c2.2-2.4,4.4-4.8,6.5-7.3
				c0.9-1.1,2-1.4,3.2-1.8c5.4-1.4,9.8-4.5,13.7-8.3c3.2-3.1,5.9-6.7,9-9.8c0.7-0.7,2.2-0.7,3.3-0.9c3.7-0.5,7.4-0.9,11.1-1.4
				c0.2-1,0-2.1,0.5-2.8c0.5-0.6,1.7-0.7,2.5-1c5.3-2.1,10-5.3,13.7-9.6c2.2-2.7,4-5.7,6-8.6c0.2-0.2,0.3-0.4,0.6-0.8
				c0.5,3.7,0.1,7-2.5,9.5c-1.6,1.5-3.7,2.5-5.4,3.9c-2.7,2.3-5.3,4.8-8,7.2c-4.5,4.1-8.8,8.6-13.6,12.4c-4.6,3.7-8.8,7.7-12.9,11.8
				c-4,4-8.4,7.5-13.1,10.7c-6.3,4.2-12.4,8.7-18.6,13c-5.3,3.7-10.8,7.4-16.1,11.2c-4.4,3.2-8.7,6.6-13,10c-5.6,4.4-11,9-17,12.8
				c-1.6,1-3.1,2.1-4.9,3.3c0-7.6,0-15,0-22.7c-2.1,4.5-3.2,8.8-2.4,13.4c0.4,2.4,0.6,4.9-0.5,7.3c-1.1,2.6-3.2,3.7-5.8,4
				c-2.4,0.3-4.8-0.2-7-1.1c-5.6-2.3-11.1-4.7-16.7-6.9c-2.1-0.8-4.3-1.5-6.5-2c-4.6-1.1-9.1-2.7-13.4-4.7
				c-4.7-2.1-9.4-4.2-14.1-6.2c-5.5-2.4-11-4.9-16.6-7.2c-4.3-1.8-8.7-3.4-13-5.2c-4.4-1.8-8.8-3.6-13.2-5.4
				c-3.2-1.3-6.4-2.6-9.6-4.1c-2.9-1.3-5.7-2.9-8.7-4.2c-4.8-2.1-9.7-4.3-14.6-6.1c-5.6-2.1-11.4-3.9-17.1-5.9
				c-3.8-1.4-5.6-4.3-5.6-8.4C15.5,140,15.5,138.4,15.5,136.6z"/>
			<path class="st2" d="M199.8,152.1c-0.8,2-1.4,3.8-2.2,5.5c-1.3,2.6-2.5,3.2-5.4,2.6c-1.2-0.2-2.3-0.1-3.1,0.8
				c-0.5,0.5-0.7,1.2-1,1.9c-0.5,1.2-1.3,1.7-2.6,1.8c-2.3,0.2-4.4-0.6-6.4-1.6c-1.7-0.9-3.3-2-4.9-3c-2.3-1.3-4.6-1-6.9,0
				c-2.1,0.9-4.1,1.2-6.2-0.3c-1.6-1.2-3.3-1.7-5.4-0.4c-1,0.6-2.7,0.4-3.9,0c-4.3-1.5-7.6-4.2-9.6-8.5c-0.8-1.7-1-3.6-0.9-5.6
				c1.9,0.4,3.8,0.8,5.7,1.3c2,0.5,3.9,0.9,5.9,1.4c4,1.1,8,2.3,12,3.5c4.2,1.3,8.3,2.8,12.5,4c3.2,1,6.2-0.1,8.7-2
				c4.9-3.7,9.7-7.5,14.5-11.3c3.3-2.6,6.5-5.5,9.9-8c3.3-2.5,6.8-4.8,10.2-7.2c1.1-0.8,2.1-1.5,3.1-2.4c0.6-0.6,1.2-0.5,1.7,0
				c2,1.9,3,4.2,2.5,7c-0.7,4-3.1,7.1-6,9.8c-1.4,1.3-3.1,2.4-4.7,3.5c-0.7,0.5-1.4,0.5-2.1-0.2c-1.8-1.9-4.2-1.6-5.6,0.8
				c-0.6,1-0.9,2.1-1.2,3.2c-0.3,1.1-0.5,2.3-0.8,3.4c-0.6,2.2-2.2,3.4-4.3,4c-1.5,0.4-2.7-0.5-3.3-2.4
				C200.1,153.2,200,152.7,199.8,152.1z"/>
			<path class="st2" d="M18.9,103.7c6.7,2.1,13,4.1,19.4,6c4.7,1.4,9.5,2.6,14.1,4.1c4.2,1.3,8.2,2.9,12.3,4.4
				c3.7,1.3,7.3,2.7,10.9,4.1c3.9,1.5,7.8,3,11.7,4.5c1,0.4,1.9,0.7,3.3,1.2c-5.7,1.5-11.1,2.8-16.4,4.2c-3.9,1-7.7,2-11.8,2
				c-1.4,0-2.6-0.3-3.7-1.1c-0.9-0.7-1.4-1.5-1-2.7c0.5-1.4,0.2-2.3-1.1-3.1c-1.4-0.8-2.9-1.3-4.6-0.8c-2.4,0.7-4.8,1.5-7.2,2.2
				c-2.3,0.7-4.6,1.6-7.1,0.6c-1.7-0.7-2-1.5-0.6-2.6c1.9-1.6,4.1-2.9,6.1-4.4c0.3-0.2,0.6-0.5,0.9-0.8c-2.3,0.8-4.6,1.6-6.9,2.3
				c-1.2,0.3-2.4,0.6-3.6,0.6c-1.6,0.1-2.7-0.7-3.3-2.2c-0.3-0.7-0.5-1.4-0.7-2.2c-0.6-2.6-1.7-3.8-4.4-4c-2.3-0.2-3.9-1.4-5-3.3
				c-0.5-0.8-0.9-1.7-1-2.6C19.1,107.9,19,105.7,18.9,103.7z"/>
			<path class="st2" d="M67.1,137.9c3.9-0.8,7.6-1.5,11.3-2.2c0.9-0.2,1.9-0.1,2.8-0.1c1.1,0.1,1.5,0.8,1,1.8
				c-0.1,0.2-0.3,0.4-0.4,0.6c-1,1.6-0.6,2.7,1.1,3.3c1.8,0.7,3.8,1.1,5.7,1.6c1.9,0.5,3.4,1.5,4.5,3.1c1.6,2.3,3.9,3.9,6.3,5.3
				c2.3,1.4,4.8,2.5,7.3,3.7c1.4,0.7,2.9,0.6,4.3,0.2c1.9-0.5,3.6-0.6,5.5,0.2c3.2,1.2,6.1,0.2,8.6-2.1c2-1.8,4-2.1,6.5-0.9
				c1.9,0.9,3.8,1,5.6-0.3c0.4-0.3,0.8-0.4,1.3-0.6c1.8,3.4,4.6,5.9,7.8,8c-16.3,3.8-23.2,7.5-32,13.1
				C101.9,156.8,85.1,146.7,67.1,137.9z"/>
			<path class="st2" d="M139.9,144.8c-1.7,2.1-3.4,3.8-6,4.5c-1.4,0.3-2.6,0.1-3.7-0.7c-1.5-1.1-3.2-0.9-4.6,0.3
				c-1.1,1-2.1,2.1-3.3,3c-2,1.4-4,1-5.9-0.2c-1.8-1.1-3.7-1.2-5.4-0.5c-3.1,1.3-5.7,0.4-8.2-1.3c-2.8-1.9-5.5-3.9-7.6-6.6
				c-0.2-0.3-0.4-0.5-0.5-0.8c-0.8-2.3-2.4-2.5-4.3-2.5c-1.2,0-2.4,0-3.5-0.2c-1.3-0.3-1.7-1.1-1.2-2.3c1.1-2.8,3.3-4.7,5.4-6.7
				c0.2-0.2,0.5-0.4,0.7-0.6c1.2-1.1,2.3-1.3,4-0.7c3.6,1.3,7.4,2.2,11.1,3.3c3.5,1.1,6.9,2.3,10.4,3.5c3.7,1.3,7.3,2.8,10.9,4.1
				C132,141.9,135.8,143.3,139.9,144.8z"/>
			<path class="st2" d="M227.9,139.2c3.8-5.2,3.6-10.7,1.4-16.6c1.2,1.5,2.3,2.8,3.4,4c0.5,0.5,1.1,1,1.7,1.4
				c2.2,1.4,3.8,0.5,5.9-1.4c1.4-1.3,2.9-2.4,4.5-3.6c0.5-0.3,1.2-0.4,1.8-0.5c4.4-0.6,8.7-2,12.6-4.1c2-1.1,3.1-2.9,3.9-4.9
				c0.8-1.8,1.9-3.3,3.4-4.6c2-1.7,2.9-3.8,2.6-6.5c-0.1-0.7,0-1.4-0.1-2.1c-0.3-2.2,0.9-3.6,2.5-4.7c2.3-1.4,3.7-3.5,4.4-6
				c0.2-0.7,0.5-1.4,1-2.2c0.6,1.8,1.3,3.5,1.7,5.3c1.7,7,1.4,14.1,0.3,21.2c-0.3,2-0.4,4-0.6,6.1
				C259.5,121.2,243.2,128.7,227.9,139.2z"/>
			<path class="st2" d="M230,119.9c14.3-11.5,28.4-22.8,42.5-34.1c1.4,3.2-0.2,6.8-2.8,8.1c-2.8,1.3-3.6,2.6-2.8,5.6
				c1,3.6-0.4,6.4-3.5,7.9c-1.5,0.8-2.6,2.1-2.9,3.8c-0.6,3-2.3,5.1-5.1,6.2c-2.3,0.9-4.7,1.8-7.1,2.5c-1,0.3-2.1,0.4-3.1,0.3
				c-2-0.2-3.4,0.5-4.7,1.9c-0.5,0.6-1,1.1-1.5,1.7c-1.3,1.2-2.8,1.5-4.2,0.4C233.1,122.8,231.6,121.3,230,119.9z"/>
			<path class="st2" d="M225.1,160.9c-2,2.1-3.9,4.4-6,6.4c-2,1.9-4.7,2.8-7.3,3.6c-7.2,2.3-14.6,3-22,4.1c-3.4,0.5-6.8,1.4-10,2.4
				c-4.7,1.5-9.3,3.5-14.1,5c-5,1.6-10.1,1.6-15.2,0.6c-5.3-1-10.4-2.9-15.4-4.9c-3.9-1.5-7.8-3-11.7-4.4c-0.3-0.1-0.6-0.3-1.2-0.6
				c0.9-0.5,1.7-0.9,2.4-1.3c1-0.5,1.9-1,2.9-1.5c1.2-0.5,2.4-0.9,3.8-0.2c5.5,2.5,11.2,4.1,17.1,5.4c7.2,1.6,14.5,2.3,21.8,1.1
				c3.7-0.6,7.3-1.8,10.1-4.6c0.9-0.9,1.7-2.1,2.4-3.2c0.6-1,1.8-1.4,2.9-0.8c1.3,0.6,2.5,1.4,3.8,1.9c5.5,2.1,11.2,2,16.8,0.6
				c6.7-1.7,12.5-5.2,17.9-9.3c0.2-0.2,0.5-0.3,0.7-0.4C224.9,160.7,225,160.8,225.1,160.9z"/>
			<path class="st2" d="M26.6,123.9c0.9,0.5,2.1,0.8,2.7,1.6c2.6,3.2,5.9,5.4,9.4,7.3c5,2.8,10.3,5.1,15.8,6.8
				c4.9,1.5,9.9,2.9,14.8,4.4c0.4,0.1,0.9,0.2,1.4,0.2c3.9,0.1,6.8,2.5,10,4.3c0.5,0.3,0.9,0.6,1.7,1.1c-1.4,0.3-2.5,0.8-3.6,0.8
				c-2.3,0.1-4.7,0.1-7-0.1c-5.1-0.4-10-1.7-14.9-3.2c-5.3-1.6-10.5-3.7-15.5-6.3c-3.7-1.9-7.3-4-10.5-6.8c-2.2-1.9-4.1-4-4.6-7
				c-0.2-0.9-0.1-1.9-0.2-2.8C26.3,124.1,26.5,124,26.6,123.9z"/>
			<path class="st2" d="M90.6,164.1c-5.2,0.4-10.5,0.9-15.6-0.4c-3.3-0.8-6.5-1.8-9.6-3.1c-2.6-1.1-4.9-2.8-7.4-4.3
				c-5.7-3.5-11.6-6.6-17.7-9.2c-4.2-1.8-8.3-4-12.2-6.4c-3-1.8-5.7-4-8.6-6.1c-0.2-0.1-0.3-0.4-0.3-0.7c0.5,0.2,1,0.4,1.6,0.6
				c1.6,0.5,3.1,1.1,4.7,1.3c2.4,0.4,4.2,1.6,6,3c5.4,4.1,11.5,7,17.8,9.4c5.3,2,10.8,3.3,16.4,4.4c1.6,0.3,3.3,0.4,5,0.7
				c0.6,0.1,1.3,0.4,1.7,0.9c1.9,2.5,4.3,4.2,7.1,5.5C83,161.3,86.8,162.6,90.6,164.1z"/>
			<path class="st2" d="M282.9,95.7c5.8-3.1,10.5-7.7,15-12.6c3.6-3.9,6.8-8.1,9.4-12.7c1.8-3.1,3.4-6.2,3.3-10c0.2,0,0.3,0,0.5-0.1
				c0.3,1.2,1,2.4,1,3.6c-0.1,2.3-0.2,4.7-0.9,6.8c-3,8.9-7.7,16.7-13.8,23.8c-2.9,3.3-6.2,6.2-10,8.4c-1.1,0.7-2.4,1.1-3.6,1.6
				C283.3,101.5,283.1,98.7,282.9,95.7z"/>
			<path class="st2" d="M243,134.4c0.6,2.4-0.2,4.3-1.1,6c-3,5.5-7.5,9.8-12.3,13.7c-4.9,4.1-10.3,7.5-16.1,10.1
				c-5.3,2.4-10.8,4.2-16.7,4c-2.6-0.1-5.1-0.9-7.4-2.2c0-0.2,0-0.3,0-0.3c0.7-1,1.1-2.5,2.1-3c0.9-0.5,2.4,0.1,3.6,0.2
				c5.5,0.2,10.8-0.8,15.9-2.9c3.6-1.5,7.1-3.2,10.4-5.2c5.1-3,9.7-6.7,13.9-10.9c2.3-2.3,4.4-4.9,6.5-7.4
				C242.2,135.9,242.5,135.2,243,134.4z"/>
			<path class="st2" d="M177.6,165.8c1,4.1-0.8,6.3-4.4,7.2c-7.4,1.8-14.8,1.4-22.2,0.2c-3.6-0.6-7.2-1.4-10.8-2.3
				c-2.7-0.7-5.4-1.9-8.1-2.8c-0.2-0.1-0.3-0.2-0.8-0.6c2.2-0.8,4.2-1.4,6.1-2.2c1.8-0.8,3.5-0.3,5.2,0.2c4.9,1.5,10,2.5,15.2,2.9
				c2.4,0.2,4.9,0.3,7.3,0.3c3.3,0,6.6-0.1,9.7-1.3C175.8,166.9,176.7,166.3,177.6,165.8z"/>
			<path class="st2" d="M309.2,52.5c0.2,0.9,0.5,1.7,0.5,2.6c0.1,3.6-0.9,6.7-4.2,8.7c-1.1,0.6-2.3,1-3.4,1.6c-2,1.1-3.2,3.1-4,5.1
				c-0.8,2-2.1,3.4-4.2,4.2c-1.4,0.5-2.6,1.4-2.6,3.2c-0.1,2.2-1.3,3.6-3.2,4.6c-4.4,2.3-9,3-14.3,2.3c1.9-1.5,3.6-2.8,5.3-4.2
				c3.4-2.7,6.7-5.5,10.2-8.1c2.9-2.3,6-4.4,9-6.6c2.5-1.8,5-3.6,7.4-5.5c2-1.5,2.6-3.8,2.8-6.2c0-0.5,0.1-1.1,0.1-1.6
				C308.9,52.6,309.1,52.5,309.2,52.5z"/>
			<path class="st2" d="M198.5,161.4c0.7-1.1,1.2-1.9,1.6-2.5c1.2,0,2.5,0.1,3.7,0c2.9-0.3,4.8-1.9,6.3-4.4c0.6-1,1.8-1.7,2.8-2.4
				c4.9-3.3,9.8-6.5,14.8-9.7c4-2.6,8-5,12-7.5c0.1,0.1,0.2,0.2,0.4,0.3c-1,1.4-1.9,3-3,4.3c-6.6,7.7-15,13.2-24.1,17.4
				c-3.2,1.5-6.6,2.7-9.9,3.8C201.7,161.1,200.2,161.1,198.5,161.4z"/>
			<path class="st2" d="M306.5,89.2c-0.4,0.9-0.7,1.8-1.2,2.7c-2.1,4.1-4.1,8.3-6.5,12.2c-3.2,5.2-7.7,9.1-13.3,11.7
				c-0.5,0.2-1,0.6-1.6,0.8c-0.5,0.2-1,0.4-1.6,0.6c0.3-3.1,0.5-6.1,0.8-9c0-0.3,0.4-0.7,0.6-0.8c7.8-2.8,13.7-8.2,19.1-14.3
				c1.1-1.3,2.2-2.7,3.3-4C306.3,89.1,306.4,89.2,306.5,89.2z"/>
			<path class="st2" d="M309,62.6c-5.4,13.3-14.5,23.4-26.4,31.5c-0.6-2.3-1.2-4.3-1.7-6.3c6.1-0.6,10.3-3.9,13.2-9.1
				c0.7-1.3,2.1-2.2,3.3-3.1c1.7-1.4,2.9-3.1,3.1-5.4c0.1-1.3,0.9-1.9,1.9-2.4c2.1-0.8,4-1.9,5.4-3.7
				C308.3,63.7,308.6,63.1,309,62.6z"/>
			<path class="st2" d="M143.5,163.2c2.3-0.7,4.5-1.4,6.8-2c0.3-0.1,0.6,0.1,0.9,0.3c1.9,1,3.8,1.2,6,0.8c0.8-0.2,1.9,0.1,2.6,0.5
				c2.1,1.2,4.3,0.9,6.5,0.4c0.7-0.2,1.4-0.4,2.2-0.6c1.7-0.4,3.2-0.1,4.6,1c0.8,0.6,1.7,1.1,2.7,1.7c-1.7,1.1-3.8,1.2-5.8,1.5
				c-4.6,0.7-9.2,0.2-13.7-0.4c-4-0.6-7.9-1.5-11.8-2.3c-0.3-0.1-0.6-0.2-0.9-0.3C143.6,163.5,143.5,163.3,143.5,163.2z"/>
			<path class="st2" d="M27.2,120.7c-6.7-1.8-13.5-3.6-20.3-5.4c0.2-2.6,5.7-7.4,9-8.3c0.2,1.5,0.3,3,0.5,4.4
				c0.2,1.3,0.6,2.6,1.1,3.7c0.9,1.9,2.7,2.6,4.6,2.7c0.8,0.1,1.6,0.2,2.4,0.3C26.2,118.4,27,119.3,27.2,120.7z"/>
			<path class="st2" d="M39.8,132.2c2.3-0.2,4.5-0.5,6.7-0.7c0.6,0,1.3,0.2,1.9,0.5c4.6,2.1,9.1,4.2,13.6,6.4c2.2,1,4.3,2.1,6.4,3.2
				c0.3,0.2,0.6,0.4,0.9,0.6C59,140.2,49,137.3,39.8,132.2z"/>
			<path class="st2" d="M99.5,162.2c-8.3-1.7-16.6-3.7-23.7-9.1c2.4-1,4,0.5,5.7,1.2c2.9,1.2,5.9,2.3,8.9,3.4
				c1.6,0.6,3.4,0.8,4.9,1.5c1.6,0.7,2.9,1.7,4.4,2.6C99.7,161.8,99.6,162,99.5,162.2z"/>
			<path class="st2" d="M262.5,126.3c-6,5.9-11.5,12.3-19.6,15.4c0.5-1.8,1.4-2.8,2.7-3.7c3.4-2.5,6.7-5.1,9.9-7.9
				C257.5,128.4,259.5,126.7,262.5,126.3z"/>
			<path class="st2" d="M12.1,119.8c0.5,0.3,0.9,0.4,1.1,0.7c2.7,4,6.7,6.3,10.8,8.5c0.4,0.2,0.8,0.6,1,1c0.8,1.1,1.5,2.3,2.2,3.4
				C21.6,131.9,12.1,125.9,12.1,119.8z"/>
			<path class="st2" d="M14.9,120.6c3.3,1,6.6,2,9.9,3c-0.2,1.5-0.4,2.9-0.6,4.4C20.6,126.1,17.3,124.1,14.9,120.6z"/>
			<path class="st2" d="M80,152.4c1.2-0.5,2.2-1.2,3.3-1.3c0.8-0.1,1.7,0.5,2.5,1c2.6,1.6,5.2,3.4,7.8,5c0.1,0.1,0.2,0.2,0.3,0.4
				C89.1,156.3,84.4,154.9,80,152.4z"/>
			<path class="st2" d="M244.7,138c0-1.3,0.1-2.2,0-3c-0.1-0.9,0.2-1.4,1-1.8c2.8-1.3,5.7-2.7,8.5-4c0.3-0.1,0.6-0.2,0.9-0.3
				c0.1,0.1,0.2,0.2,0.3,0.4C251.9,132.1,248.5,135,244.7,138z"/>
			<path class="st2" d="M49.6,129.3c1-0.1,2.1-0.4,3.1-0.4c1.6-0.1,2,0.3,2.2,1.8c0,0.4,0.1,0.7,0.1,1.3c-1.9-0.9-3.7-1.7-5.4-2.5
				C49.5,129.5,49.5,129.4,49.6,129.3z"/>
			<path class="st2" d="M209.6,150.5c0.6-1.1,1.1-2.2,1.8-3.2c0.6-0.9,1.4-1.1,2.3-0.3c0.2,0.2,0.6,0.3,1.1,0.5
				c-1.7,1.1-3.2,2.2-4.8,3.2C209.8,150.6,209.7,150.6,209.6,150.5z"/>
		</g>
	</g>
</g>
<g id="Layer_1">
	<g id="X7ZSNy.tif">
		<g>
			<path d="M315.3,58.6c-0.4-1.2-0.8-2.4-0.9-3.6c-0.3-3.4-1.3-6.4-4.1-8.7c-0.4-0.3-0.7-0.9-0.7-1.3c-0.1-3.4-0.2-6.9-0.2-10.3
				c0-2.3,0-4.6-0.2-6.9c-0.2-1.8-0.7-3.6-2.6-4.4c-1.1-0.5-2.3-1-3.6-1.2c-5.9-0.8-11.9-1.4-17.8-2.4c-7.9-1.2-15.7-2.6-23.6-3.9
				c-4.1-0.7-8.2-1.6-12.4-2.4c-5.7-1.1-11.4-2-17.1-3.1c-7.7-1.5-15.5-3.2-23.2-4.6c-6-1.1-12.1-2-18.2-2.9
				c-7.4-1-14.8-1.9-22.2-2.7c-4.6-0.5-9.3-0.2-13.7,1.3c-4.6,1.5-9.2,3.2-13.6,5.2c-6.2,2.6-12.3,5.5-18.4,8.4
				c-3.7,1.7-7.2,3.5-10.9,5.1c-7.2,3.1-14.4,6.1-21.6,9.1c-3.9,1.6-7.8,3.3-11.7,5c-4,1.7-8.2,3.2-12.1,5.2
				c-5.7,2.8-11.3,5.7-16.9,8.7c-6.7,3.6-13.9,6-21.2,8.3c-4.1,1.3-8.1,2.6-11.8,4.8c-3.2,1.9-5.6,4.7-5.8,8.5
				c-0.5,7.8-0.8,15.7-0.9,23.6c0,2.4,0.8,4.8,2.5,6.7c0.5,0.5,1.1,0.9,1.8,1.5C6.7,105.5,2.3,111.5,0,119.1
				c2.2,0.7,4.2,1.4,6.3,2.2c0.4,0.2,0.9,0.6,1.1,1c1.2,2.6,2.3,5.2,3.6,7.7c0.5,1.1,0.8,2.1,0.7,3.2c-0.1,3.8-0.2,7.7-0.2,11.5
				c0.1,4.9,2.4,8.4,6.9,10.3c2.6,1.1,5.3,2.1,8,3.1c3.6,1.4,7.3,2.8,10.9,4.2c2.9,1.1,5.8,2.3,8.6,3.5c2.9,1.2,5.7,2.3,8.6,3.5
				c2.5,1,5,2.1,7.5,3.1c3.5,1.4,6.9,2.9,10.4,4.4c3.3,1.4,6.6,2.8,10,4.2c4.2,1.8,8.4,3.6,12.7,5.4c0.9,0.4,1.9,0.8,2.8,1.2
				c0.6-1,1.3-1.9,2-2.6c0.7-0.7,1.5-1.4,2.3-1.9c-1.7-0.7-3.3-1.5-5-2.2c-4.3-1.8-8.7-3.4-13-5.2c-4.4-1.8-8.8-3.6-13.2-5.4
				c-3.2-1.3-6.4-2.6-9.6-4.1c-2.9-1.3-5.7-2.9-8.7-4.2c-4.8-2.1-9.7-4.3-14.6-6.1c-5.6-2.1-11.4-3.9-17.1-5.9
				c-3.8-1.4-5.6-4.3-5.6-8.4v-5c1.5,1.2,2.7,2.3,4.1,3.2c3.2,1.9,6.3,3.9,9.7,5.6c5,2.4,10.2,4.3,15.1,6.7
				c4.3,2.1,8.3,4.6,12.4,7.1c4.4,2.7,8.8,5.4,13.8,6.8c5.7,1.6,11.6,2.1,17.5,1.7c4.5-0.3,9-0.8,13.4-1.2c0.3,0,0.7,0.1,1,0.3
				c3.9,3.2,7.4,6.8,10.4,10.8c0.4,0.5,0.8,0.9,1.2,1.4c0.2-0.2,0.4-0.3,0.6-0.5c-2.4-4.2-4.6-8.4-6.5-12.8
				c-11.6-12.1-25.9-20.5-41.2-27.9c3.9-0.8,7.6-1.5,11.3-2.2c0.9-0.2,1.9-0.1,2.8-0.1c1.1,0.1,1.5,0.8,1,1.8
				c-0.1,0.2-0.3,0.4-0.4,0.6c-1,1.6-0.6,2.7,1.1,3.3c1.8,0.7,3.8,1.1,5.7,1.6c1.9,0.5,3.4,1.5,4.5,3.1c1.6,2.3,3.9,3.9,6.3,5.3
				c1.7,1,3.5,1.9,5.3,2.7c-0.2-1.1-0.4-2.3-0.5-3.4c-0.5-0.3-0.9-0.5-1.4-0.8c-2.8-1.9-5.5-3.9-7.6-6.6c-0.2-0.3-0.4-0.5-0.5-0.8
				c-0.8-2.3-2.4-2.5-4.3-2.5c-1.2,0-2.4,0-3.5-0.2c-1.3-0.3-1.7-1.1-1.2-2.3c1.1-2.8,3.3-4.7,5.4-6.7c0.2-0.2,0.5-0.4,0.7-0.6
				c1.2-1.1,2.3-1.3,4-0.7c3.2,1.1,6.4,1.9,9.6,2.9c0.3-1.5,0.6-2.9,0.9-4.4c-2.3-0.8-4.6-1.5-6.8-2.3c-3.7-1.2-7.3-2.4-11-3.6
				c-4.3-1.4-8.7-2.9-13-4.4c-3.8-1.3-7.5-2.6-11.2-4.1c-3.3-1.3-6.5-2.8-9.9-4.1c-3.1-1.2-6.2-2.4-9.4-3.3
				c-4.2-1.3-8.5-2.4-12.7-3.5c-3.9-1.1-7.8-2.1-11.6-3.3c-1.4-0.4-2.8-1.1-4.1-1.8c-1.4-0.8-2.1-2.1-2.1-3.7c0-1.9,0.3-3.8,0.5-5.7
				c0.2-3.2,0.3-6.3,0.5-9.5c0.1-0.9,0.4-1.9,0.8-2.7c0.4-1,1.2-1.3,2.3-1c4.4,1.1,8.9,2,13.3,3.2c3,0.8,6,1.8,9,2.6
				c3.7,1.1,7.4,2.2,11.1,3.2c4.2,1.2,8.4,2.3,12.6,3.4c4.1,1.1,8.1,2.1,12.2,3.1c2.9,0.8,5.8,1.6,8.8,2.3c2.7,0.6,5.5,1.1,8.3,1.7
				c2.9,0.7,5.7,1.4,8.5,2.2c2.6,0.7,5.2,1.5,7.8,2.4c0.7,0.2,1.5,0.5,2.2,0.8c0.1-1.6,0.1-3.2,0-4.8c0-0.1,0-0.2,0-0.3
				c-1.9-0.7-3.9-1.3-5.8-1.9c-4.3-1.3-8.7-2.5-13.1-3.5c-4.5-1.1-9.1-1.9-13.7-2.8c-4.4-0.9-8.9-1.6-13.2-2.6
				c-5.4-1.3-10.7-2.9-15.9-4.5c-5.6-1.7-11-3.8-16.6-5.5c-2.1-0.7-4.4-0.9-6.7-1.2c-2.8-0.3-5.6-0.6-8.2-1.9c-0.8-0.4-1.6-1-2-1.8
				c-0.7-1.3,0.3-2.3,1.2-3c1.4-1.1,3-2.1,4.6-2.7c4.7-1.8,9.6-3.3,14.3-5.2c5.3-2,10.5-4.1,15.7-6.4c4.3-1.8,8.4-3.9,12.6-5.9
				c5.2-2.5,10.4-5,15.7-7.4c4.2-2,8.5-4,12.7-5.9c3.3-1.5,6.7-3.1,10.1-4.5c3.6-1.4,7.4-2.5,11-4c3.2-1.3,6.4-2.9,9.5-4.5
				c3.2-1.7,6.3-3.6,9.6-5.2c4.9-2.3,9.8-4.5,14.8-6.5c4.9-1.9,10-3.4,15.4-3.4c5.3,0.7,10.6,1.4,15.9,2c4.1,0.5,8.3,0.7,12.4,1.2
				c3.3,0.4,6.7,0.9,10,1.4c2.8,0.4,5.6,0.9,8.4,1.5c3.4,0.7,6.8,1.4,10.2,2.1c5.7,1.2,11.4,2.4,17.1,3.6c4.4,0.9,8.7,1.8,13.1,2.6
				c4.7,0.8,9.4,1.5,14.1,2.2c3.3,0.5,6.6,1,9.8,1.5c3.7,0.6,7.4,1,11.1,1.7c4,0.7,7.9,1.5,11.8,2.4c0.6,0.1,1.4,0.8,1.4,1.3
				c0.1,0.5-0.5,1.3-1,1.7c-2.3,1.6-4.7,3-6.9,4.6c-3.8,2.7-7.5,5.6-11.2,8.4c-5.4,4.1-10.6,8.4-16.2,12.3c-4.4,3-9.3,5.5-13.9,8.2
				c-4,2.3-7.7,5.1-11.2,8c-3.3,2.7-6.6,5.5-10,8.2c-3.3,2.7-6.5,5.4-9.8,8c0,0,0,0,0,0c1.3,0.5,2.6,1.1,3.9,1.7
				c0.2-0.2,0.5-0.4,0.7-0.5c4.2-3.1,8.4-6.2,12.6-9.3c4.2-3.1,8.4-6.1,12.7-9.1c2.9-2,5.9-3.9,8.8-5.8c4.7-3.1,9.5-6.1,14.1-9.3
				c4.3-2.9,8.5-6,12.5-9.2c3.3-2.6,6.4-5.4,9.6-8.1c1.8-1.5,3.7-3,5.7-4.3c2.1-1.5,3.8-0.6,4.2,2c0.1,0.8,0.1,1.6,0.2,2.4
				c0.5,5.2,0.2,10.4-0.3,15.6c-0.2,2.5-1.6,4.5-3.7,6c-6.6,4.7-13.3,9.3-19.7,14.3c-4.8,3.7-9.3,7.8-13.8,11.8
				c-4.8,4.3-9.6,8.6-14.9,12.3c-3.4,2.4-6.7,4.9-10.1,7.3c0.8,1,1.5,2.1,2.2,3.2c9.4-7.5,18.7-15,28-22.5c1.4,3.2-0.2,6.8-2.8,8.1
				c-2.8,1.3-3.6,2.6-2.8,5.6c1,3.6-0.4,6.4-3.5,7.9c-1.5,0.8-2.6,2.1-2.9,3.8c-0.6,3-2.3,5.1-5.1,6.2c-1.7,0.7-3.5,1.3-5.3,1.9
				c0.3,0.8,0.6,1.5,0.9,2.3c2.8-0.7,5.5-1.8,8.1-3.2c2-1.1,3.1-2.9,3.9-4.9c0.8-1.8,1.9-3.3,3.4-4.6c2-1.7,2.9-3.8,2.6-6.5
				c-0.1-0.7,0-1.4-0.1-2.1c-0.3-2.2,0.9-3.6,2.5-4.7c2.3-1.4,3.7-3.5,4.4-6c0.2-0.7,0.5-1.4,1-2.2c0.6,1.8,1.3,3.5,1.7,5.3
				c1.7,7,1.4,14.1,0.3,21.2c-0.3,2-0.4,4-0.6,6.1c-9.2,0.6-17.7,2.6-25.9,5.8c0.4,1.2,0.7,2.5,1,3.7c0.2-0.1,0.5-0.2,0.7-0.3
				c0.3-0.1,0.6-0.2,0.9-0.3c0.1,0.1,0.2,0.2,0.3,0.4c-0.6,0.5-1.1,0.9-1.7,1.4c0.1,0.3,0.1,0.6,0.2,0.8c0.5-0.4,1-0.9,1.5-1.3
				c2-1.8,4-3.5,7.1-3.9c-2.7,2.6-5.3,5.4-8,7.9c0.3,1.6,0.6,3.2,0.8,4.8c1.1-0.9,2.2-1.8,3.2-2.9c3.2-3.1,5.9-6.7,9-9.8
				c0.7-0.7,2.2-0.7,3.3-0.9c3.7-0.5,7.4-0.9,11.1-1.4c0.2-1,0-2.1,0.5-2.8c0.5-0.6,1.7-0.7,2.5-1c5.3-2.1,10-5.3,13.7-9.6
				c2.2-2.7,4-5.7,6-8.6c0.2-0.2,0.3-0.4,0.6-0.8c0.5,3.7,0.1,7-2.5,9.5c-1.6,1.5-3.7,2.5-5.4,3.9c-2.7,2.3-5.3,4.8-8,7.2
				c-4.5,4.1-8.8,8.6-13.6,12.4c-4.6,3.7-8.8,7.7-12.9,11.8c-2.1,2.1-4.3,4.1-6.7,6c0,1.9,0,3.7-0.1,5.6c0.3-0.2,0.6-0.5,0.9-0.7
				c4.8-3.9,9.4-8.2,14.1-12.2c3.1-2.7,6.3-5.4,9.5-8c2.2-1.8,4.8-3.3,6.9-5.3c3.6-3.4,7-7.1,10.4-10.7c2.6-2.7,5.2-5.5,8.5-7.4
				c3.2-1.9,4.6-4.7,4.4-8.3c-0.2-3.8-0.6-7.5-0.9-11.3c0-0.4-0.1-0.9,0.1-1.3c1.2-3.9,2.2-7.8,2.3-11.8c0-0.7,0.1-1.4,0.3-2.1
				c1-3.5,2.2-7,3-10.6C316.3,64.8,316.3,61.7,315.3,58.6z M12.1,119.8c0.5,0.3,0.9,0.4,1.1,0.7c2.7,4,6.7,6.3,10.8,8.5
				c0.4,0.2,0.8,0.6,1,1c0.8,1.1,1.5,2.3,2.2,3.4C21.6,131.9,12.1,125.9,12.1,119.8z M14.9,120.6c3.3,1,6.6,2,9.9,3
				c-0.2,1.5-0.4,2.9-0.6,4.4C20.6,126.1,17.3,124.1,14.9,120.6z M75,163.7c-3.3-0.8-6.5-1.8-9.6-3.1c-2.6-1.1-4.9-2.8-7.4-4.3
				c-5.7-3.5-11.6-6.6-17.7-9.2c-4.2-1.8-8.3-4-12.2-6.4c-3-1.8-5.7-4-8.6-6.1c-0.2-0.1-0.3-0.4-0.3-0.7c0.5,0.2,1,0.4,1.6,0.6
				c1.6,0.5,3.1,1.1,4.7,1.3c2.4,0.4,4.2,1.6,6,3c5.4,4.1,11.5,7,17.8,9.4c5.3,2,10.8,3.3,16.4,4.4c1.6,0.3,3.3,0.4,5,0.7
				c0.6,0.1,1.3,0.4,1.7,0.9c1.9,2.5,4.3,4.2,7.1,5.5c3.6,1.6,7.4,3,11.2,4.5C85.4,164.5,80.1,165,75,163.7z M99.8,161.7
				c-0.1,0.2-0.2,0.3-0.3,0.5c-8.3-1.7-16.6-3.7-23.7-9.1c2.4-1,4,0.5,5.8,1.2c2.9,1.2,5.9,2.3,8.9,3.4c1.6,0.6,3.4,0.8,4.9,1.5
				C96.9,159.7,98.3,160.8,99.8,161.7z M85.8,152c2.6,1.6,5.2,3.4,7.8,5c0.1,0.1,0.2,0.2,0.3,0.4c-4.8-1.2-9.4-2.6-13.8-5.1
				c1.2-0.5,2.2-1.2,3.3-1.3C84.1,151,85,151.5,85.8,152z M70.6,144.2c3.9,0.1,6.8,2.5,10,4.3c0.5,0.3,0.9,0.6,1.7,1.1
				c-1.4,0.3-2.5,0.8-3.6,0.8c-2.3,0.1-4.7,0.1-7-0.1c-5.1-0.4-10-1.7-14.9-3.2c-5.3-1.6-10.5-3.7-15.5-6.3c-3.7-1.9-7.3-4-10.5-6.8
				c-2.2-1.9-4.1-4-4.6-7c-0.2-0.9-0.1-1.9-0.2-2.8c0.2-0.1,0.3-0.3,0.5-0.4c0.9,0.5,2.1,0.8,2.7,1.6c2.6,3.2,5.9,5.4,9.4,7.3
				c5,2.8,10.3,5.1,15.8,6.8c4.9,1.5,9.9,2.9,14.8,4.4C69.7,144.1,70.2,144.2,70.6,144.2z M68.4,141.6c0.3,0.2,0.6,0.4,0.9,0.6
				c-10.3-2-20.2-5-29.5-10.1c2.3-0.2,4.5-0.5,6.7-0.7c0.6,0,1.3,0.2,1.9,0.5c4.6,2.1,9.1,4.2,13.6,6.4
				C64.2,139.5,66.3,140.6,68.4,141.6z M49.5,129.6c0-0.1,0-0.2,0-0.3c1-0.1,2.1-0.4,3.1-0.4c1.6-0.1,2,0.3,2.2,1.8
				c0,0.4,0.1,0.7,0.1,1.3C53.1,131.2,51.3,130.4,49.5,129.6z M38.3,109.6c4.7,1.4,9.5,2.6,14.1,4.1c4.2,1.3,8.2,2.9,12.3,4.4
				c3.7,1.3,7.3,2.7,10.9,4.1c3.9,1.5,7.8,3,11.7,4.5c1,0.4,1.9,0.7,3.3,1.2c-5.7,1.5-11.1,2.8-16.4,4.2c-3.9,1-7.7,2-11.8,2
				c-1.4,0-2.6-0.3-3.7-1.1c-0.9-0.7-1.4-1.5-1-2.7c0.5-1.4,0.2-2.3-1.1-3.1c-1.4-0.8-2.9-1.3-4.6-0.8c-2.4,0.7-4.8,1.5-7.2,2.2
				c-2.3,0.7-4.6,1.6-7.1,0.6c-1.7-0.7-2-1.5-0.6-2.6c1.9-1.6,4.1-2.9,6.1-4.4c0.3-0.2,0.6-0.5,0.9-0.8c-2.3,0.8-4.6,1.6-6.9,2.3
				c-1.2,0.3-2.4,0.6-3.6,0.6c-1.6,0.1-2.7-0.7-3.3-2.2c-0.3-0.7-0.5-1.4-0.7-2.2c-0.6-2.6-1.7-3.8-4.4-4c-2.3-0.2-3.9-1.4-5-3.3
				c-0.5-0.8-0.9-1.7-1-2.6c-0.2-2.1-0.3-4.3-0.4-6.4C25.6,105.7,31.9,107.7,38.3,109.6z M16,107c0.2,1.5,0.3,3,0.5,4.4
				c0.2,1.3,0.6,2.6,1.1,3.7c0.9,1.9,2.7,2.6,4.6,2.7c0.8,0.1,1.6,0.2,2.4,0.3c1.6,0.2,2.3,1.1,2.6,2.5c-6.7-1.8-13.5-3.6-20.3-5.4
				C7.1,112.7,12.6,107.9,16,107z M273.9,84.8c1.9-1.5,3.6-2.8,5.3-4.2c3.4-2.7,6.7-5.5,10.2-8.1c2.9-2.3,6-4.4,9-6.6
				c2.5-1.8,5-3.6,7.4-5.5c2-1.5,2.6-3.8,2.8-6.2c0-0.5,0.1-1.1,0.1-1.6c0.2,0,0.3-0.1,0.5-0.1c0.2,0.9,0.5,1.7,0.5,2.6
				c0.1,3.6-0.9,6.7-4.2,8.7c-1.1,0.6-2.3,1-3.4,1.6c-2,1.1-3.2,3.1-4,5.1c-0.8,2-2.1,3.4-4.2,4.2c-1.4,0.5-2.6,1.4-2.6,3.2
				c-0.1,2.2-1.3,3.6-3.2,4.6C283.7,84.7,279.1,85.4,273.9,84.8z M280.9,87.9c6.1-0.6,10.3-3.9,13.2-9.1c0.7-1.3,2.1-2.2,3.3-3.1
				c1.7-1.4,2.9-3.1,3.1-5.4c0.1-1.3,0.9-1.9,1.9-2.4c2.1-0.8,4-1.9,5.4-3.7c0.4-0.5,0.7-1,1.1-1.5c-5.4,13.3-14.5,23.4-26.4,31.5
				C282,91.9,281.5,89.9,280.9,87.9z M305.3,91.9c-2.1,4.1-4.1,8.3-6.5,12.2c-3.2,5.2-7.7,9.1-13.3,11.7c-0.5,0.2-1,0.6-1.6,0.8
				c-0.5,0.2-1,0.4-1.6,0.6c0.3-3.1,0.5-6.1,0.8-9c0-0.3,0.4-0.7,0.6-0.8c7.8-2.8,13.7-8.2,19.1-14.3c1.1-1.3,2.2-2.7,3.3-4
				c0.1,0,0.2,0.1,0.3,0.1C306.1,90.1,305.8,91,305.3,91.9z M311,70.7c-3,8.9-7.7,16.7-13.8,23.8c-2.9,3.3-6.2,6.2-10,8.4
				c-1.1,0.7-2.4,1.1-3.6,1.6c-0.2-3.1-0.5-5.9-0.7-8.9c5.8-3.1,10.5-7.7,15-12.6c3.6-3.9,6.8-8.1,9.4-12.7c1.8-3.1,3.4-6.2,3.3-10
				c0.2,0,0.3,0,0.5-0.1c0.3,1.2,1,2.4,1,3.6C311.9,66.2,311.8,68.6,311,70.7z"/>
			<path class="st2" d="M298.5,26.7c-3.9-0.9-7.9-1.7-11.8-2.4c-3.7-0.7-7.4-1.1-11.1-1.7c-3.3-0.5-6.6-1-9.8-1.5
				c-4.7-0.7-9.4-1.4-14.1-2.2c-4.4-0.8-8.7-1.7-13.1-2.6c-5.7-1.2-11.4-2.4-17.1-3.6c-3.4-0.7-6.8-1.5-10.2-2.1
				c-2.8-0.5-5.6-1-8.4-1.5c-3.3-0.5-6.7-1-10-1.4c-4.1-0.5-8.3-0.7-12.4-1.2c-5.3-0.6-10.6-1.3-15.9-2c-5.4,0-10.5,1.5-15.4,3.4
				c-5,1.9-10,4.2-14.8,6.5c-3.3,1.6-6.4,3.5-9.6,5.2c-3.1,1.6-6.3,3.2-9.5,4.5c-3.6,1.5-7.4,2.6-11,4c-3.4,1.4-6.8,2.9-10.1,4.5
				c-4.3,1.9-8.5,3.9-12.7,5.9c-5.2,2.5-10.4,5-15.7,7.4c-4.2,2-8.4,4.1-12.6,5.9C48,54,42.7,56.1,37.4,58.1
				c-4.7,1.8-9.6,3.3-14.3,5.2c-1.7,0.6-3.2,1.7-4.6,2.7c-0.9,0.7-1.9,1.7-1.2,3c0.4,0.7,1.2,1.4,2,1.8c2.6,1.3,5.4,1.6,8.2,1.9
				c2.2,0.3,4.5,0.5,6.7,1.2c5.6,1.7,11,3.8,16.6,5.5c5.3,1.6,10.6,3.2,15.9,4.5c4.4,1.1,8.8,1.8,13.2,2.6c4.6,0.9,9.1,1.7,13.7,2.8
				c4.4,1,8.8,2.2,13.1,3.5c2,0.6,3.9,1.2,5.8,1.9c-0.1-8.6,7.5-14.9,15.6-15.3c6.5-0.3,11.9,4.1,14.3,9.7
				c12.9-8.1,29.3-8.4,44.3-7.4c11.1,0.7,22.7,1.5,33.1,5.6c0,0,0,0,0,0c3.3-2.6,6.6-5.3,9.8-8c3.3-2.7,6.6-5.5,10-8.2
				c3.6-2.9,7.2-5.7,11.2-8c4.7-2.7,9.5-5.1,13.9-8.2c5.6-3.8,10.8-8.2,16.2-12.3c3.7-2.8,7.4-5.7,11.2-8.4c2.2-1.6,4.6-3,6.9-4.6
				c0.5-0.4,1.1-1.2,1-1.7C299.9,27.5,299.1,26.8,298.5,26.7z"/>
			<path class="st2" d="M195.8,113.6c-1.1-0.1-2.2-0.2-3.3-0.3c0.3,0.9,0.5,1.7,0.8,2.6C194.1,115.1,194.9,114.4,195.8,113.6z"/>
			<path class="st2" d="M154.2,125.7c0.8,0.6,1.4,1.4,2,2.2c0-4.4,1-8.6,2.7-12.4c-0.1,0.1-0.2,0.1-0.4,0.2c0,0-0.1,0-0.1,0.1
				c-0.1,0.1-0.2,0.2-0.4,0.4c-4.8,4.5-11.7,5.7-17.5,3.1c-0.1,0.4-0.2,0.8-0.3,1.3C145.7,120.7,149.7,122.2,154.2,125.7z"/>
			<path class="st2" d="M304.8,37.8c-0.1-0.8-0.1-1.6-0.2-2.4c-0.3-2.6-2.1-3.5-4.2-2c-2,1.4-3.8,2.8-5.7,4.3
				c-3.2,2.7-6.3,5.5-9.6,8.1c-4.1,3.2-8.3,6.2-12.5,9.2c-4.6,3.2-9.4,6.2-14.1,9.3c-2.9,1.9-5.9,3.8-8.8,5.8c-4.3,3-8.5,6-12.7,9.1
				c-4.2,3.1-8.4,6.2-12.6,9.3c-0.2,0.2-0.5,0.4-0.7,0.5c2.3,1.1,4.6,2.5,6.7,4c4.7,3.4,8.6,7.5,12,12c3.4-2.4,6.7-4.9,10.1-7.3
				c5.3-3.8,10.1-8,14.9-12.3c4.5-4,9-8.1,13.8-11.8c6.4-4.9,13.1-9.5,19.7-14.3c2.1-1.5,3.5-3.5,3.7-6
				C305,48.2,305.3,43,304.8,37.8z"/>
			<path class="st2" d="M108.7,118.1c1.1-4.4,2.3-8.8,3.1-13.2c0-0.2,0.3-1.5,0.4-2.2c0.1-0.5,0.1-1.1,0.1-1.1
				c0-0.6,0.1-1.1,0.1-1.7c-0.7-0.3-1.5-0.5-2.2-0.8c-2.6-0.9-5.2-1.6-7.8-2.4c-2.8-0.8-5.7-1.5-8.5-2.2c-2.7-0.6-5.5-1.1-8.3-1.7
				c-2.9-0.7-5.8-1.5-8.8-2.3c-4.1-1-8.1-2-12.2-3.1c-4.2-1.1-8.4-2.2-12.6-3.4c-3.7-1-7.4-2.1-11.1-3.2c-3-0.9-6-1.9-9-2.6
				c-4.4-1.1-8.9-2.1-13.3-3.2c-1.1-0.3-1.9,0-2.3,1c-0.4,0.9-0.7,1.8-0.8,2.7c-0.2,3.1-0.3,6.3-0.5,9.5c-0.1,1.9-0.4,3.8-0.5,5.7
				c0,1.6,0.7,2.9,2.1,3.7c1.3,0.7,2.7,1.4,4.1,1.8c3.8,1.2,7.7,2.2,11.6,3.3c4.2,1.2,8.5,2.2,12.7,3.5c3.2,1,6.3,2.1,9.4,3.3
				c3.3,1.3,6.5,2.8,9.9,4.1c3.7,1.4,7.5,2.8,11.2,4.1c4.3,1.5,8.6,3,13,4.4c3.7,1.2,7.3,2.4,11,3.6c2.3,0.8,4.6,1.5,6.8,2.3
				C107,124.7,107.8,121.4,108.7,118.1z"/>
			<path class="st2" d="M305.3,101.2c-0.3,0.4-0.5,0.6-0.6,0.8c-2,2.9-3.7,6-6,8.6c-3.7,4.4-8.4,7.5-13.7,9.6c-0.9,0.3-2,0.4-2.5,1
				c-0.5,0.6-0.4,1.8-0.5,2.8c-3.7,0.4-7.4,0.9-11.1,1.4c-1.1,0.2-2.6,0.2-3.3,0.9c-3.1,3.2-5.9,6.7-9,9.8c-1,1-2.1,2-3.2,2.9
				c0.6,4.3,0.9,8.6,0.9,12.9c2.3-1.9,4.5-3.8,6.7-6c4.1-4.1,8.3-8.2,12.9-11.8c4.8-3.8,9.1-8.2,13.6-12.4c2.6-2.4,5.2-4.9,8-7.2
				c1.7-1.4,3.8-2.4,5.4-3.9C305.4,108.2,305.8,104.9,305.3,101.2z"/>
			<path class="st2" d="M102.3,183.1c4-2.7,8.7-3.1,13.1-1.7c0.2-0.1,0.5-0.3,0.7-0.4c-0.4-0.8-0.9-1.5-1.3-2.3
				c-0.2,0.2-0.4,0.3-0.6,0.5c-0.5-0.5-0.9-1-1.2-1.4c-3.1-4-6.5-7.7-10.4-10.8c-0.2-0.2-0.7-0.3-1-0.3c-4.5,0.4-9,0.9-13.4,1.2
				c-5.9,0.4-11.8-0.1-17.5-1.7c-5-1.4-9.4-4.1-13.8-6.8c-4.1-2.5-8.1-5-12.4-7.1c-4.9-2.5-10.2-4.3-15.1-6.7
				c-3.3-1.6-6.5-3.6-9.7-5.6c-1.4-0.9-2.6-2-4.1-3.2v5c0,4.1,1.8,7,5.6,8.4c5.7,2.1,11.4,3.8,17.1,5.9c4.9,1.9,9.8,4,14.6,6.1
				c2.9,1.3,5.8,2.9,8.7,4.2c3.2,1.4,6.4,2.8,9.6,4.1c4.4,1.8,8.8,3.6,13.2,5.4c4.3,1.7,8.7,3.4,13,5.2
				C99,181.7,100.6,182.4,102.3,183.1z"/>
			<path class="st2" d="M18.9,103.7c6.7,2.1,13,4.1,19.4,6c4.7,1.4,9.5,2.6,14.1,4.1c4.2,1.3,8.2,2.9,12.3,4.4
				c3.7,1.3,7.3,2.7,10.9,4.1c3.9,1.5,7.8,3,11.7,4.5c1,0.4,1.9,0.7,3.3,1.2c-5.7,1.5-11.1,2.8-16.4,4.2c-3.9,1-7.7,2-11.8,2
				c-1.4,0-2.6-0.3-3.7-1.1c-0.9-0.7-1.4-1.5-1-2.7c0.5-1.4,0.2-2.3-1.1-3.1c-1.4-0.8-2.9-1.3-4.6-0.8c-2.4,0.7-4.8,1.5-7.2,2.2
				c-2.3,0.7-4.6,1.6-7.1,0.6c-1.7-0.7-2-1.5-0.6-2.6c1.9-1.6,4.1-2.9,6.1-4.4c0.3-0.2,0.6-0.5,0.9-0.8c-2.3,0.8-4.6,1.6-6.9,2.3
				c-1.2,0.3-2.4,0.6-3.6,0.6c-1.6,0.1-2.7-0.7-3.3-2.2c-0.3-0.7-0.5-1.4-0.7-2.2c-0.6-2.6-1.7-3.8-4.4-4c-2.3-0.2-3.9-1.4-5-3.3
				c-0.5-0.8-0.9-1.7-1-2.6C19.1,107.9,19,105.7,18.9,103.7z"/>
			<path class="st2" d="M104.7,154.2c-1.8-0.9-3.6-1.7-5.3-2.7c-2.4-1.4-4.7-3-6.3-5.3c-1.2-1.6-2.6-2.6-4.5-3.1
				c-1.9-0.5-3.8-1-5.7-1.6c-1.8-0.6-2.1-1.8-1.1-3.3c0.1-0.2,0.3-0.4,0.4-0.6c0.4-1.1,0.1-1.7-1-1.8c-0.9-0.1-1.9-0.1-2.8,0.1
				c-3.7,0.7-7.4,1.4-11.3,2.2c15.3,7.4,29.6,15.9,41.2,27.9C106.7,162.1,105.5,158.3,104.7,154.2z"/>
			<path class="st2" d="M104,145.8c0-4.5,0.6-9,1.4-13.4c-3.2-1-6.5-1.8-9.6-2.9c-1.6-0.6-2.8-0.4-4,0.7c-0.2,0.2-0.5,0.4-0.7,0.6
				c-2.1,2-4.3,3.9-5.4,6.7c-0.5,1.3-0.2,2.1,1.2,2.3c1.1,0.2,2.3,0.2,3.5,0.2c1.9,0,3.4,0.2,4.3,2.5c0.1,0.3,0.3,0.6,0.5,0.8
				c2.1,2.7,4.8,4.7,7.6,6.6c0.5,0.3,0.9,0.6,1.4,0.8C104,149.2,104,147.5,104,145.8z"/>
			<path class="st2" d="M278.6,92.7c-0.4-1.8-1.1-3.5-1.7-5.3c-0.5,0.8-0.8,1.5-1,2.2c-0.7,2.5-2.1,4.6-4.4,6
				c-1.7,1-2.8,2.5-2.5,4.7c0.1,0.7,0,1.4,0.1,2.1c0.3,2.6-0.6,4.8-2.6,6.5c-1.5,1.3-2.7,2.7-3.4,4.6c-0.8,2-1.9,3.8-3.9,4.9
				c-2.6,1.4-5.3,2.5-8.1,3.2c0.5,1.4,1,2.8,1.4,4.3c8.2-3.2,16.7-5.3,25.9-5.8c0.2-2.1,0.3-4.1,0.6-6.1
				C280,106.8,280.3,99.8,278.6,92.7z"/>
			<path class="st2" d="M272.5,85.7c-9.3,7.5-18.6,15-28,22.5c2.2,3.5,4.1,7.2,5.7,11c1.8-0.6,3.6-1.2,5.3-1.9
				c2.8-1.1,4.5-3.2,5.1-6.2c0.3-1.7,1.4-3,2.9-3.8c3.1-1.6,4.5-4.3,3.5-7.9c-0.8-3-0.1-4.3,2.8-5.6
				C272.3,92.6,273.9,88.9,272.5,85.7z"/>
			<path class="st2" d="M26.6,123.9c0.9,0.5,2.1,0.8,2.7,1.6c2.6,3.2,5.9,5.4,9.4,7.3c5,2.8,10.3,5.1,15.8,6.8
				c4.9,1.5,9.9,2.9,14.8,4.4c0.4,0.1,0.9,0.2,1.4,0.2c3.9,0.1,6.8,2.5,10,4.3c0.5,0.3,0.9,0.6,1.7,1.1c-1.4,0.3-2.5,0.8-3.6,0.8
				c-2.3,0.1-4.7,0.1-7-0.1c-5.1-0.4-10-1.7-14.9-3.2c-5.3-1.6-10.5-3.7-15.5-6.3c-3.7-1.9-7.3-4-10.5-6.8c-2.2-1.9-4.1-4-4.6-7
				c-0.2-0.9-0.1-1.9-0.2-2.8C26.3,124.1,26.5,124,26.6,123.9z"/>
			<path class="st2" d="M90.6,164.1c-5.2,0.4-10.5,0.9-15.6-0.4c-3.3-0.8-6.5-1.8-9.6-3.1c-2.6-1.1-4.9-2.8-7.4-4.3
				c-5.7-3.5-11.6-6.6-17.7-9.2c-4.2-1.8-8.3-4-12.2-6.4c-3-1.8-5.7-4-8.6-6.1c-0.2-0.1-0.3-0.4-0.3-0.7c0.5,0.2,1,0.4,1.6,0.6
				c1.6,0.5,3.1,1.1,4.7,1.3c2.4,0.4,4.2,1.6,6,3c5.4,4.1,11.5,7,17.8,9.4c5.3,2,10.8,3.3,16.4,4.4c1.6,0.3,3.3,0.4,5,0.7
				c0.6,0.1,1.3,0.4,1.7,0.9c1.9,2.5,4.3,4.2,7.1,5.5C83,161.3,86.8,162.6,90.6,164.1z"/>
			<path class="st2" d="M282.9,95.7c5.8-3.1,10.5-7.7,15-12.6c3.6-3.9,6.8-8.1,9.4-12.7c1.8-3.1,3.4-6.2,3.3-10c0.2,0,0.3,0,0.5-0.1
				c0.3,1.2,1,2.4,1,3.6c-0.1,2.3-0.2,4.7-0.9,6.8c-3,8.9-7.7,16.7-13.8,23.8c-2.9,3.3-6.2,6.2-10,8.4c-1.1,0.7-2.4,1.1-3.6,1.6
				C283.3,101.5,283.1,98.7,282.9,95.7z"/>
			<path class="st2" d="M309.2,52.5c0.2,0.9,0.5,1.7,0.5,2.6c0.1,3.6-0.9,6.7-4.2,8.7c-1.1,0.6-2.3,1-3.4,1.6c-2,1.1-3.2,3.1-4,5.1
				c-0.8,2-2.1,3.4-4.2,4.2c-1.4,0.5-2.6,1.4-2.6,3.2c-0.1,2.2-1.3,3.6-3.2,4.6c-4.4,2.3-9,3-14.3,2.3c1.9-1.5,3.6-2.8,5.3-4.2
				c3.4-2.7,6.7-5.5,10.2-8.1c2.9-2.3,6-4.4,9-6.6c2.5-1.8,5-3.6,7.4-5.5c2-1.5,2.6-3.8,2.8-6.2c0-0.5,0.1-1.1,0.1-1.6
				C308.9,52.6,309.1,52.5,309.2,52.5z"/>
			<path class="st2" d="M306.5,89.2c-0.4,0.9-0.7,1.8-1.2,2.7c-2.1,4.1-4.1,8.3-6.5,12.2c-3.2,5.2-7.7,9.1-13.3,11.7
				c-0.5,0.2-1,0.6-1.6,0.8c-0.5,0.2-1,0.4-1.6,0.6c0.3-3.1,0.5-6.1,0.8-9c0-0.3,0.4-0.7,0.6-0.8c7.8-2.8,13.7-8.2,19.1-14.3
				c1.1-1.3,2.2-2.7,3.3-4C306.3,89.1,306.4,89.2,306.5,89.2z"/>
			<path class="st2" d="M309,62.6c-5.4,13.3-14.5,23.4-26.4,31.5c-0.6-2.3-1.2-4.3-1.7-6.3c6.1-0.6,10.3-3.9,13.2-9.1
				c0.7-1.3,2.1-2.2,3.3-3.1c1.7-1.4,2.9-3.1,3.1-5.4c0.1-1.3,0.9-1.9,1.9-2.4c2.1-0.8,4-1.9,5.4-3.7
				C308.3,63.7,308.6,63.1,309,62.6z"/>
			<path class="st2" d="M27.2,120.7c-6.7-1.8-13.5-3.6-20.3-5.4c0.2-2.6,5.7-7.4,9-8.3c0.2,1.5,0.3,3,0.5,4.4
				c0.2,1.3,0.6,2.6,1.1,3.7c0.9,1.9,2.7,2.6,4.6,2.7c0.8,0.1,1.6,0.2,2.4,0.3C26.2,118.4,27,119.3,27.2,120.7z"/>
			<path class="st2" d="M39.8,132.2c2.3-0.2,4.5-0.5,6.7-0.7c0.6,0,1.3,0.2,1.9,0.5c4.6,2.1,9.1,4.2,13.6,6.4c2.2,1,4.3,2.1,6.4,3.2
				c0.3,0.2,0.6,0.4,0.9,0.6C59,140.2,49,137.3,39.8,132.2z"/>
			<path class="st2" d="M99.5,162.2c-8.3-1.7-16.6-3.7-23.7-9.1c2.4-1,4,0.5,5.7,1.2c2.9,1.2,5.9,2.3,8.9,3.4
				c1.6,0.6,3.4,0.8,4.9,1.5c1.6,0.7,2.9,1.7,4.4,2.6C99.7,161.8,99.6,162,99.5,162.2z"/>
			<path class="st2" d="M255.5,130.2c-0.5,0.4-1,0.9-1.5,1.3c0.2,0.9,0.4,1.8,0.6,2.7c2.8-2.5,5.3-5.2,8-7.9
				C259.5,126.7,257.5,128.4,255.5,130.2z"/>
			<path class="st2" d="M12.1,119.8c0.5,0.3,0.9,0.4,1.1,0.7c2.7,4,6.7,6.3,10.8,8.5c0.4,0.2,0.8,0.6,1,1c0.8,1.1,1.5,2.3,2.2,3.4
				C21.6,131.9,12.1,125.9,12.1,119.8z"/>
			<path class="st2" d="M14.9,120.6c3.3,1,6.6,2,9.9,3c-0.2,1.5-0.4,2.9-0.6,4.4C20.6,126.1,17.3,124.1,14.9,120.6z"/>
			<path class="st2" d="M80,152.4c1.2-0.5,2.2-1.2,3.3-1.3c0.8-0.1,1.7,0.5,2.5,1c2.6,1.6,5.2,3.4,7.8,5c0.1,0.1,0.2,0.2,0.3,0.4
				C89.1,156.3,84.4,154.9,80,152.4z"/>
			<path class="st2" d="M49.6,129.3c1-0.1,2.1-0.4,3.1-0.4c1.6-0.1,2,0.3,2.2,1.8c0,0.4,0.1,0.7,0.1,1.3c-1.9-0.9-3.7-1.7-5.4-2.5
				C49.5,129.5,49.5,129.4,49.6,129.3z"/>
		</g>
	</g>
	<g>
		<g>
			<path class="st2" d="M111.1,95.5c-0.9,4.1-1.7,8.2-2.6,12.3c-0.6,2.8-1.8,6.2-0.7,9c1.1,2.7,5.2,3.3,5.1,6.2
				c-0.1,5.4-8.2,4.5-11.7,4.3c-3.2-0.2-3.2,4.8,0,5c6.9,0.5,17.1-0.8,16.8-10.1c0-1.5-0.5-3-1.4-4.2c-0.9-1.1-2.4-1.4-3.2-2.4
				c-1.8-2,0-6.6,0.5-9.1c0.7-3.2,1.3-6.4,2-9.6C116.6,93.7,111.8,92.4,111.1,95.5L111.1,95.5z"/>
		</g>
	</g>
	<path class="st3" d="M107.6,111.8c0,3.1,0.4,6.4-0.7,9.2c-1.2,2.9-4.8,5.1-7.4,3.5c0.6,6.7,2.4,13.3,5.3,19.3
		c1.7,3.6,3.9,7.5,3.1,11.4c-0.4,1.9-1.5,3.6-1.6,5.5c-0.2,6.3,10.2,9.1,9.8,15.4c-0.2,3.1-3.2,5.3-6.1,6.5
		c-2.9,1.2-6.2,1.8-8.5,3.9c4.7,3.1,11.3,2.9,15.8-0.4c6.5-4.9,7.6-14.3,13-20.5c2.7-3.1,6.4-5.2,9.2-8.2
		c3.6-4.1,6.2-10.3,11.6-10.7c4.7-0.4,8.3,4.1,10.5,8.3c2.3,4.2,4.7,9,9.2,10.2c5.1,1.4,10.2-2.4,13.4-6.6c1.8-2.4,3.3-5.2,3.3-8.1
		c0-2.6-1.3-5.2-0.7-7.8c0.3-1.6,1.3-3,2.5-4.1c4.9-4.6,12.6-4.5,19.3-3.4c7,1.2,13.8,3,20.5,5.4c3.3,1.2,6.7,2.5,9.3,4.9
		c2.5,2.3,4.2,5.3,6.8,7.6s6.6,3.5,9.3,1.4c1.8-1.4,2.5-4,2.2-6.3c-0.2-2.3-1.2-4.5-1.9-6.7c-2.7-7.9-3-16.5-5.9-24.2
		c-5.3-13.9-18.2-23.2-30.7-31c-2.4-1.5-5-3.1-6.4-5.5c-2.8-4.6-1-10.5-2.3-15.7c-0.3-1.2-0.9-2.5-2-3.2c-0.9-0.6-2.1-0.6-3.1-0.6
		c-14.8-0.2-29.7,0.3-44.4,1.6c-3.6,0.3-7.6,0.9-9.7,3.8c-1.8,2.4-1.6,5.7-2.8,8.4c-2.2,5-8.1,7.1-13.5,8.2
		c-5.3,1.2-11.3,2.4-14.5,6.8c-2.4,3.2-5.4,5.9-7.9,9C108.1,103,107.6,106.9,107.6,111.8z"/>
	<path class="st3" d="M101.5,126.3c1.6,1.8,4.4,2.2,6.7,1.5c2.3-0.7,4.3-2.2,6.2-3.7c2.4-1.8,4.7-3.7,7.1-5.5c1.3-1,2.5-2,3.4-3.4
		c1.2-2.1,1.2-4.7,1.4-7.1c0.3-3.9,1.4-7.6,3.1-11.1c0.3-0.6,0.6-1.2,1.2-1.6c0.6-0.4,1.3-0.4,2-0.5c10.6-0.5,21.3-1.1,31.9-1.6
		c0.1-4.7,1-9.5,2.8-13.9c0.3-0.8,0.7-1.7,1.4-2.3c0.7-0.6,1.7-0.9,2.6-1.1c6.8-1.7,13.9-2.1,20.8-1.3c0.6,0.1,1.2,0.2,1.7,0.5
		c0.8,0.6,1,1.8,1.2,2.8c0.7,3.1,3.1,5.6,5.4,7.9c4.5,4.6,9.1,9.2,13.6,13.9c1.3,1.3,2.6,2.6,4.2,3.6c2,1.2,4.4,1.8,6.7,1.4
		c0.6-0.1,1.2-0.2,1.7,0.1c0.4,0.3,0.5,0.8,0.6,1.3c0.8,4.5-0.3,10.3,3.5,12.8c1.9,1.2,4.4,1.1,6.5,0.3c4.7-1.8,7.9-7,7.3-12"/>
	<path class="st3" d="M109,163.9c2.2-0.5,2.7-3.3,3.6-5.3c1-2.1,2.9-3.6,4.8-5c4.1-3.2,8.1-6.3,12.2-9.5c4.7-3.7,9.7-7.5,15.6-8.5
		c7.3-1.3,15.4,1.9,21.9-1.6c2.6-1.4,4.7-3.8,7.2-5.4c3.1-2,6.8-2.7,10.5-3.3c15.5-2.3,31.3-1.6,46.9-0.9c3.1,0.1,6.2,0.3,9,1.7
		c1.8,0.9,3.2,2.2,4.9,3.2c2.8,1.8,6.2,2.7,9.5,2.6"/>
	<path class="st3" d="M105.3,141.7c2,1.3,4.8,0.9,6.8-0.3c2.1-1.2,3.6-3.1,5.1-5c2.7-3.4,5.4-6.7,8.1-10.1
		c4.6-5.8,10.1-12,17.4-12.7c0.9-0.1,1.8-0.1,2.6,0.4c0.7,0.5,1.1,1.2,1.6,1.9c1.8,2.4,5.1,3.5,8,2.6c0-0.7,0.1-1.5,0.1-2.2
		c15.3-3.4,28.6-12.5,42.7-19.4c3.2-1.6,7.3-3.1,10.3-1.1c3.3,2.1,3.5,7.1,6.4,9.7"/>
</g>
<g id="Layer_1_copy_2" class="st0">
	<g id="X7ZSNy.tif_2_" class="st1">
		<g>
			<path d="M315.3,58.6c-0.4-1.2-0.8-2.4-0.9-3.6c-0.3-3.4-1.3-6.4-4.1-8.7c-0.4-0.3-0.7-0.9-0.7-1.3c-0.1-3.4-0.2-6.9-0.2-10.3
				c0-2.3,0-4.6-0.2-6.9c-0.2-1.8-0.7-3.6-2.6-4.4c-1.1-0.5-2.3-1-3.6-1.2c-5.9-0.8-11.9-1.4-17.8-2.4c-7.9-1.2-15.7-2.6-23.6-3.9
				c-4.1-0.7-8.2-1.6-12.4-2.4c-5.7-1.1-11.4-2-17.1-3.1c-7.7-1.5-15.5-3.2-23.2-4.6c-6-1.1-12.1-2-18.2-2.9
				c-7.4-1-14.8-1.9-22.2-2.7c-4.6-0.5-9.3-0.2-13.7,1.3c-4.6,1.5-9.2,3.2-13.6,5.2c-6.2,2.6-12.3,5.5-18.4,8.4
				c-3.7,1.7-7.2,3.5-10.9,5.1c-7.2,3.1-14.4,6.1-21.6,9.1c-3.9,1.6-7.8,3.3-11.7,5c-0.1,0-0.1,0.1-0.2,0.1c0.7,0.7,1.3,1.5,1.8,2.4
				c0.4,0.6,0.7,1.3,0.9,1.9c0.2-0.1,0.3-0.1,0.5-0.2c4.2-2,8.5-4,12.7-5.9c3.3-1.5,6.7-3.1,10.1-4.5c3.6-1.4,7.4-2.5,11-4
				c3.2-1.3,6.4-2.9,9.5-4.5c3.2-1.7,6.3-3.6,9.6-5.2c4.9-2.3,9.8-4.5,14.8-6.5c4.9-1.9,10-3.4,15.4-3.4c5.3,0.7,10.6,1.4,15.9,2
				c4.1,0.5,8.3,0.7,12.4,1.2c3.3,0.4,6.7,0.9,10,1.4c2.8,0.4,5.6,0.9,8.4,1.5c3.4,0.7,6.8,1.4,10.2,2.1c5.7,1.2,11.4,2.4,17.1,3.6
				c4.4,0.9,8.7,1.8,13.1,2.6c4.7,0.8,9.4,1.5,14.1,2.2c3.3,0.5,6.6,1,9.8,1.5c3.7,0.6,7.4,1,11.1,1.7c4,0.7,7.9,1.5,11.8,2.4
				c0.6,0.1,1.4,0.8,1.4,1.3c0.1,0.5-0.5,1.3-1,1.7c-2.3,1.6-4.7,3-6.9,4.6c-3.8,2.7-7.5,5.6-11.2,8.4c-5.4,4.1-10.6,8.4-16.2,12.3
				c-4.4,3-9.3,5.5-13.9,8.2c-4,2.3-7.7,5.1-11.2,8c-3.3,2.7-6.6,5.5-10,8.2c-3.3,2.7-6.5,5.4-9.8,8c0,0,0,0,0,0
				c1.3,0.5,2.6,1.1,3.9,1.7c0.2-0.2,0.5-0.4,0.7-0.5c4.2-3.1,8.4-6.2,12.6-9.3c4.2-3.1,8.4-6.1,12.7-9.1c2.9-2,5.9-3.9,8.8-5.8
				c4.7-3.1,9.5-6.1,14.1-9.3c4.3-2.9,8.5-6,12.5-9.2c3.3-2.6,6.4-5.4,9.6-8.1c1.8-1.5,3.7-3,5.7-4.3c2.1-1.5,3.8-0.6,4.2,2
				c0.1,0.8,0.1,1.6,0.2,2.4c0.5,5.2,0.2,10.4-0.3,15.6c-0.2,2.5-1.6,4.5-3.7,6c-6.6,4.7-13.3,9.3-19.7,14.3
				c-4.8,3.7-9.3,7.8-13.8,11.8c-4.8,4.3-9.6,8.6-14.9,12.3c-3.4,2.4-6.7,4.9-10.1,7.3c0.8,1,1.5,2.1,2.2,3.2
				c9.4-7.5,18.7-15,28-22.5c1.4,3.2-0.2,6.8-2.8,8.1c-2.8,1.3-3.6,2.6-2.8,5.6c1,3.6-0.4,6.4-3.5,7.9c-1.5,0.8-2.6,2.1-2.9,3.8
				c-0.6,3-2.3,5.1-5.1,6.2c-1.7,0.7-3.5,1.3-5.3,1.9c0.3,0.8,0.6,1.5,0.9,2.3c2.8-0.7,5.5-1.8,8.1-3.2c2-1.1,3.1-2.9,3.9-4.9
				c0.8-1.8,1.9-3.3,3.4-4.6c2-1.7,2.9-3.8,2.6-6.5c-0.1-0.7,0-1.4-0.1-2.1c-0.3-2.2,0.9-3.6,2.5-4.7c2.3-1.4,3.7-3.5,4.4-6
				c0.2-0.7,0.5-1.4,1-2.2c0.6,1.8,1.3,3.5,1.7,5.3c1.7,7,1.4,14.1,0.3,21.2c-0.3,2-0.4,4-0.6,6.1c-9.2,0.6-17.7,2.6-25.9,5.8
				c0.4,1.2,0.7,2.5,1,3.7c0.2-0.1,0.5-0.2,0.7-0.3c0.3-0.1,0.6-0.2,0.9-0.3c0.1,0.1,0.2,0.2,0.3,0.4c-0.6,0.5-1.1,0.9-1.7,1.4
				c0.1,0.3,0.1,0.6,0.2,0.8c0.5-0.4,1-0.9,1.5-1.3c2-1.8,4-3.5,7.1-3.9c-2.7,2.6-5.3,5.4-8,7.9c0.3,1.6,0.6,3.2,0.8,4.8
				c1.1-0.9,2.2-1.8,3.2-2.9c3.2-3.1,5.9-6.7,9-9.8c0.7-0.7,2.2-0.7,3.3-0.9c3.7-0.5,7.4-0.9,11.1-1.4c0.2-1,0-2.1,0.5-2.8
				c0.5-0.6,1.7-0.7,2.5-1c5.3-2.1,10-5.3,13.7-9.6c2.2-2.7,4-5.7,6-8.6c0.2-0.2,0.3-0.4,0.6-0.8c0.5,3.7,0.1,7-2.5,9.5
				c-1.6,1.5-3.7,2.5-5.4,3.9c-2.7,2.3-5.3,4.8-8,7.2c-4.5,4.1-8.8,8.6-13.6,12.4c-4.6,3.7-8.8,7.7-12.9,11.8
				c-2.1,2.1-4.3,4.1-6.7,6c0,1.9,0,3.7-0.1,5.6c0.3-0.2,0.6-0.5,0.9-0.7c4.8-3.9,9.4-8.2,14.1-12.2c3.1-2.7,6.3-5.4,9.5-8
				c2.2-1.8,4.8-3.3,6.9-5.3c3.6-3.4,7-7.1,10.4-10.7c2.6-2.7,5.2-5.5,8.5-7.4c3.2-1.9,4.6-4.7,4.4-8.3c-0.2-3.8-0.6-7.5-0.9-11.3
				c0-0.4-0.1-0.9,0.1-1.3c1.2-3.9,2.2-7.8,2.3-11.8c0-0.7,0.1-1.4,0.3-2.1c1-3.5,2.2-7,3-10.6C316.3,64.8,316.3,61.7,315.3,58.6z
				 M273.9,84.8c1.9-1.5,3.6-2.8,5.3-4.2c3.4-2.7,6.7-5.5,10.2-8.1c2.9-2.3,6-4.4,9-6.6c2.5-1.8,5-3.6,7.4-5.5
				c2-1.5,2.6-3.8,2.8-6.2c0-0.5,0.1-1.1,0.1-1.6c0.2,0,0.3-0.1,0.5-0.1c0.2,0.9,0.5,1.7,0.5,2.6c0.1,3.6-0.9,6.7-4.2,8.7
				c-1.1,0.6-2.3,1-3.4,1.6c-2,1.1-3.2,3.1-4,5.1c-0.8,2-2.1,3.4-4.2,4.2c-1.4,0.5-2.6,1.4-2.6,3.2c-0.1,2.2-1.3,3.6-3.2,4.6
				C283.7,84.7,279.1,85.4,273.9,84.8z M280.9,87.9c6.1-0.6,10.3-3.9,13.2-9.1c0.7-1.3,2.1-2.2,3.3-3.1c1.7-1.4,2.9-3.1,3.1-5.4
				c0.1-1.3,0.9-1.9,1.9-2.4c2.1-0.8,4-1.9,5.4-3.7c0.4-0.5,0.7-1,1.1-1.5c-5.4,13.3-14.5,23.4-26.4,31.5
				C282,91.9,281.5,89.9,280.9,87.9z M305.3,91.9c-2.1,4.1-4.1,8.3-6.5,12.2c-3.2,5.2-7.7,9.1-13.3,11.7c-0.5,0.2-1,0.6-1.6,0.8
				c-0.5,0.2-1,0.4-1.6,0.6c0.3-3.1,0.5-6.1,0.8-9c0-0.3,0.4-0.7,0.6-0.8c7.8-2.8,13.7-8.2,19.1-14.3c1.1-1.3,2.2-2.7,3.3-4
				c0.1,0,0.2,0.1,0.3,0.1C306.1,90.1,305.8,91,305.3,91.9z M311,70.7c-3,8.9-7.7,16.7-13.8,23.8c-2.9,3.3-6.2,6.2-10,8.4
				c-1.1,0.7-2.4,1.1-3.6,1.6c-0.2-3.1-0.5-5.9-0.7-8.9c5.8-3.1,10.5-7.7,15-12.6c3.6-3.9,6.8-8.1,9.4-12.7c1.8-3.1,3.4-6.2,3.3-10
				c0.2,0,0.3,0,0.5-0.1c0.3,1.2,1,2.4,1,3.6C311.9,66.2,311.8,68.6,311,70.7z"/>
			<path class="st2" d="M298.5,26.7c-3.9-0.9-7.9-1.7-11.8-2.4c-3.7-0.7-7.4-1.1-11.1-1.7c-3.3-0.5-6.6-1-9.8-1.5
				c-4.7-0.7-9.4-1.4-14.1-2.2c-4.4-0.8-8.7-1.7-13.1-2.6c-5.7-1.2-11.4-2.4-17.1-3.6c-3.4-0.7-6.8-1.5-10.2-2.1
				c-2.8-0.5-5.6-1-8.4-1.5c-3.3-0.5-6.7-1-10-1.4c-4.1-0.5-8.3-0.7-12.4-1.2c-5.3-0.6-10.6-1.3-15.9-2c-5.4,0-10.5,1.5-15.4,3.4
				c-5,1.9-10,4.2-14.8,6.5c-3.3,1.6-6.4,3.5-9.6,5.2c-3.1,1.6-6.3,3.2-9.5,4.5c-3.6,1.5-7.4,2.6-11,4c-3.4,1.4-6.8,2.9-10.1,4.5
				c-4.3,1.9-8.5,3.9-12.7,5.9c-0.2,0.1-0.3,0.1-0.5,0.2c3,7.2-0.2,15-6.5,19.4c-5.8,4.1-12,7.6-18,11.4c0.2,0.2,0.4,0.4,0.6,0.6
				c2.7,2.7,4.7,5.8,6.4,9.2c0.2,0.5,0.5,1,0.8,1.4c2.4-0.1,4.7-0.2,7.1-0.3c5-0.2,10-0.1,15.1,0c8.4,0.1,17.2-0.2,25.5,1.9
				c1.9,0.5,3.6,1.1,5.2,1.9c2.9-2.7,6.8-4.4,10.9-4.6c6.5-0.3,11.9,4.1,14.3,9.7c12.9-8.1,29.3-8.4,44.3-7.4
				c11.1,0.7,22.7,1.5,33.1,5.6c0,0,0,0,0,0c3.3-2.6,6.6-5.3,9.8-8c3.3-2.7,6.6-5.5,10-8.2c3.6-2.9,7.2-5.7,11.2-8
				c4.7-2.7,9.5-5.1,13.9-8.2c5.6-3.8,10.8-8.2,16.2-12.3c3.7-2.8,7.4-5.7,11.2-8.4c2.2-1.6,4.6-3,6.9-4.6c0.5-0.4,1.1-1.2,1-1.7
				C299.9,27.5,299.1,26.8,298.5,26.7z"/>
			<path class="st2" d="M195.8,113.6c-1.1-0.1-2.2-0.2-3.3-0.3c0.3,0.9,0.5,1.7,0.8,2.6C194.1,115.1,194.9,114.4,195.8,113.6z"/>
			<path class="st2" d="M154.2,125.7c0.8,0.6,1.4,1.4,2,2.2c0-4.4,1-8.6,2.7-12.4c-0.1,0.1-0.2,0.1-0.4,0.2c0,0-0.1,0-0.1,0.1
				c-0.1,0.1-0.2,0.2-0.4,0.4c-4.8,4.5-11.7,5.7-17.5,3.1c-0.1,0.4-0.2,0.8-0.3,1.3C145.7,120.7,149.7,122.2,154.2,125.7z"/>
			<path class="st2" d="M304.8,37.8c-0.1-0.8-0.1-1.6-0.2-2.4c-0.3-2.6-2.1-3.5-4.2-2c-2,1.4-3.8,2.8-5.7,4.3
				c-3.2,2.7-6.3,5.5-9.6,8.1c-4.1,3.2-8.3,6.2-12.5,9.2c-4.6,3.2-9.4,6.2-14.1,9.3c-2.9,1.9-5.9,3.8-8.8,5.8c-4.3,3-8.5,6-12.7,9.1
				c-4.2,3.1-8.4,6.2-12.6,9.3c-0.2,0.2-0.5,0.4-0.7,0.5c2.3,1.1,4.6,2.5,6.7,4c4.7,3.4,8.6,7.5,12,12c3.4-2.4,6.7-4.9,10.1-7.3
				c5.3-3.8,10.1-8,14.9-12.3c4.5-4,9-8.1,13.8-11.8c6.4-4.9,13.1-9.5,19.7-14.3c2.1-1.5,3.5-3.5,3.7-6
				C305,48.2,305.3,43,304.8,37.8z"/>
			<path class="st2" d="M305.3,101.2c-0.3,0.4-0.5,0.6-0.6,0.8c-2,2.9-3.7,6-6,8.6c-3.7,4.4-8.4,7.5-13.7,9.6c-0.9,0.3-2,0.4-2.5,1
				c-0.5,0.6-0.4,1.8-0.5,2.8c-3.7,0.4-7.4,0.9-11.1,1.4c-1.1,0.2-2.6,0.2-3.3,0.9c-3.1,3.2-5.9,6.7-9,9.8c-1,1-2.1,2-3.2,2.9
				c0.6,4.3,0.9,8.6,0.9,12.9c2.3-1.9,4.5-3.8,6.7-6c4.1-4.1,8.3-8.2,12.9-11.8c4.8-3.8,9.1-8.2,13.6-12.4c2.6-2.4,5.2-4.9,8-7.2
				c1.7-1.4,3.8-2.4,5.4-3.9C305.4,108.2,305.8,104.9,305.3,101.2z"/>
			<path class="st2" d="M278.6,92.7c-0.4-1.8-1.1-3.5-1.7-5.3c-0.5,0.8-0.8,1.5-1,2.2c-0.7,2.5-2.1,4.6-4.4,6
				c-1.7,1-2.8,2.5-2.5,4.7c0.1,0.7,0,1.4,0.1,2.1c0.3,2.6-0.6,4.8-2.6,6.5c-1.5,1.3-2.7,2.7-3.4,4.6c-0.8,2-1.9,3.8-3.9,4.9
				c-2.6,1.4-5.3,2.5-8.1,3.2c0.5,1.4,1,2.8,1.4,4.3c8.2-3.2,16.7-5.3,25.9-5.8c0.2-2.1,0.3-4.1,0.6-6.1
				C280,106.8,280.3,99.8,278.6,92.7z"/>
			<path class="st2" d="M272.5,85.7c-9.3,7.5-18.6,15-28,22.5c2.2,3.5,4.1,7.2,5.7,11c1.8-0.6,3.6-1.2,5.3-1.9
				c2.8-1.1,4.5-3.2,5.1-6.2c0.3-1.7,1.4-3,2.9-3.8c3.1-1.6,4.5-4.3,3.5-7.9c-0.8-3-0.1-4.3,2.8-5.6
				C272.3,92.6,273.9,88.9,272.5,85.7z"/>
			<path class="st2" d="M282.9,95.7c5.8-3.1,10.5-7.7,15-12.6c3.6-3.9,6.8-8.1,9.4-12.7c1.8-3.1,3.4-6.2,3.3-10c0.2,0,0.3,0,0.5-0.1
				c0.3,1.2,1,2.4,1,3.6c-0.1,2.3-0.2,4.7-0.9,6.8c-3,8.9-7.7,16.7-13.8,23.8c-2.9,3.3-6.2,6.2-10,8.4c-1.1,0.7-2.4,1.1-3.6,1.6
				C283.3,101.5,283.1,98.7,282.9,95.7z"/>
			<path class="st2" d="M309.2,52.5c0.2,0.9,0.5,1.7,0.5,2.6c0.1,3.6-0.9,6.7-4.2,8.7c-1.1,0.6-2.3,1-3.4,1.6c-2,1.1-3.2,3.1-4,5.1
				c-0.8,2-2.1,3.4-4.2,4.2c-1.4,0.5-2.6,1.4-2.6,3.2c-0.1,2.2-1.3,3.6-3.2,4.6c-4.4,2.3-9,3-14.3,2.3c1.9-1.5,3.6-2.8,5.3-4.2
				c3.4-2.7,6.7-5.5,10.2-8.1c2.9-2.3,6-4.4,9-6.6c2.5-1.8,5-3.6,7.4-5.5c2-1.5,2.6-3.8,2.8-6.2c0-0.5,0.1-1.1,0.1-1.6
				C308.9,52.6,309.1,52.5,309.2,52.5z"/>
			<path class="st2" d="M306.5,89.2c-0.4,0.9-0.7,1.8-1.2,2.7c-2.1,4.1-4.1,8.3-6.5,12.2c-3.2,5.2-7.7,9.1-13.3,11.7
				c-0.5,0.2-1,0.6-1.6,0.8c-0.5,0.2-1,0.4-1.6,0.6c0.3-3.1,0.5-6.1,0.8-9c0-0.3,0.4-0.7,0.6-0.8c7.8-2.8,13.7-8.2,19.1-14.3
				c1.1-1.3,2.2-2.7,3.3-4C306.3,89.1,306.4,89.2,306.5,89.2z"/>
			<path class="st2" d="M309,62.6c-5.4,13.3-14.5,23.4-26.4,31.5c-0.6-2.3-1.2-4.3-1.7-6.3c6.1-0.6,10.3-3.9,13.2-9.1
				c0.7-1.3,2.1-2.2,3.3-3.1c1.7-1.4,2.9-3.1,3.1-5.4c0.1-1.3,0.9-1.9,1.9-2.4c2.1-0.8,4-1.9,5.4-3.7
				C308.3,63.7,308.6,63.1,309,62.6z"/>
			<path class="st2" d="M255.5,130.2c-0.5,0.4-1,0.9-1.5,1.3c0.2,0.9,0.4,1.8,0.6,2.7c2.8-2.5,5.3-5.2,8-7.9
				C259.5,126.7,257.5,128.4,255.5,130.2z"/>
		</g>
	</g>
	<path class="st4" d="M79,37.1c0.6,2.6,2.9,4.3,5.2,5.8c4.4,2.9,8.9,5.8,13.3,8.7c2.3,1.5,4.7,3.1,7.5,3.3c4.9,0.4,9.4-3.7,14.3-3.2
		c6.2,4.4,11,10.9,13.3,18.2c0.7,2.2,1.3,4.6,3.2,5.9c1.2,0.8,2.6,1.1,4,1.3c11.1,1.6,22.4,0.9,33.2-1.9c2.1-0.6,4.3-1.2,6.4-0.6
		c1.3,0.4,2.3,1.2,3.4,1.9c11.2,7.8,25.3,11.4,38.9,10"/>
	<path class="st4" d="M256,156.4c-18.3,0-36.6-3.9-53.3-11.4c-1.1-0.5-2.2-1.1-2.8-2.1c-0.5-1-0.3-2.1-0.8-3.1
		c-0.6-1.4-2.3-1.9-3.7-2.3c-8.3-2-17-1.3-25.6-1.8c-8.6-0.6-17.6-2.7-23.4-9.1c-1.8-2-3.3-4.4-5.8-5.5c-2-0.9-4.2-0.8-6.4-0.7
		c-6.1,0.3-12.3,0.7-18.4,1c-5.8,0.3-12.7,0.2-16.1-4.5c-2.2-3-2.7-7.5-6-9.1c-3.3-1.6-8,0.6-10.7-1.9c-2.5-2.3-1.9-7.3-5.1-8.2
		c-0.2-4.7-0.3-9.3-0.5-14c3.3,2.7,7.5,4.3,11.7,4.4c2.4,0,5-0.4,7.2,0.7c1.4,0.7,2.5,1.9,3.6,3c7.7,7.2,19.3,7.5,29.8,8.6
		c15.4,1.6,30.5,6,44.4,13c4.4,2.2,8.6,4.6,13.4,5.8c3.4,0.8,7,0.9,10.4,1.8c4.3,1.1,8.3,3.3,11.5,6.5c2,2,3.7,4.4,6.2,5.6
		c1.8,0.9,3.9,1,5.9,1.2c11.4,0.9,22.9,1.8,34.3,2.7c0.3,6.1,0.2,12.2-0.2,18.3"/>
	<path class="st4" d="M252.4,118.7c-10,3.5-19.5-6.7-30.1-7.7c-3.1-0.3-6.3,0.2-9.4-0.5c-5.3-1.2-9.2-5.8-14.4-7.4
		c-2.4-0.7-4.9-0.7-7.4-0.7c-5.8,0-11.6,0-17.4,0.1c-11.4,0-24.1-0.4-32.3-8.3c-3.7-3.6-6.3-8.5-11-10.4c-6.6-2.7-14.4,1.8-21.1-0.6
		c-2.7-1-4.9-3-7.4-4.5c-7.6-4.6-18-3.8-24.8,1.8c-2,1.7-4.2,3.9-6.8,3.5c-3.5-0.4-4.8-5-4.7-8.5c0.1-4.4,0.9-8.7,2.4-12.8
		c7.9,0,13.8-0.6,21.1,2.5c3.5,1.5,7,3,10.4,4.5c11.6,5,23.3,10.1,35.5,13.5c10.6,3,21.5,4.7,32.4,5.5c10.2,0.7,21,0.8,29.7,6.2
		c2.4,1.5,4.5,3.3,7.1,4.4c5.4,2.4,11.7,1.2,17.4,2.9c4.1,1.3,7.5,4,11.3,5.9c3.8,1.9,8.5,3,12.2,0.9c-3.5-8.2-7.4-17-15-21.7
		c-2.1-1.3-4.3-2.2-6.5-3.1"/>
	<path class="st4" d="M77.7,36.6c-0.2,7.2-0.3,14.3-0.5,21.5"/>
</g>
<g id="Layer_1_copy_3" class="st0">
	<g id="X7ZSNy.tif_3_" class="st1">
		<g>
			<path d="M315.3,58.6c-0.4-1.2-0.8-2.4-0.9-3.6c-0.3-3.4-1.3-6.4-4.1-8.7c-0.4-0.3-0.7-0.9-0.7-1.3c-0.1-3.4-0.2-6.9-0.2-10.3
				c0-2.3,0-4.6-0.2-6.9c-0.2-1.8-0.7-3.6-2.6-4.4c-1.1-0.5-2.3-1-3.6-1.2c-5.9-0.8-11.9-1.4-17.8-2.4c-7.9-1.2-15.7-2.6-23.6-3.9
				c-4.1-0.7-8.2-1.6-12.4-2.4c-5.2-1-10.4-1.9-15.6-2.8c-0.8,1.4-1.8,2.8-3,3.9c2.7,0.6,5.4,1.1,8.1,1.7c4.4,0.9,8.7,1.8,13.1,2.6
				c4.7,0.8,9.4,1.5,14.1,2.2c3.3,0.5,6.6,1,9.8,1.5c3.7,0.6,7.4,1,11.1,1.7c4,0.7,7.9,1.5,11.8,2.4c0.6,0.1,1.4,0.8,1.4,1.3
				c0.1,0.5-0.5,1.3-1,1.7c-2.3,1.6-4.7,3-6.9,4.6c-3.8,2.7-7.5,5.6-11.2,8.4c-5.4,4.1-10.6,8.4-16.2,12.3c-4.4,3-9.3,5.5-13.9,8.2
				c-4,2.3-7.7,5.1-11.2,8c-3.3,2.7-6.6,5.5-10,8.2c-3.3,2.7-6.5,5.4-9.8,8c0,0,0,0,0,0c1.3,0.5,2.6,1.1,3.9,1.7
				c0.2-0.2,0.5-0.4,0.7-0.5c4.2-3.1,8.4-6.2,12.6-9.3c4.2-3.1,8.4-6.1,12.7-9.1c2.9-2,5.9-3.9,8.8-5.8c4.7-3.1,9.5-6.1,14.1-9.3
				c4.3-2.9,8.5-6,12.5-9.2c3.3-2.6,6.4-5.4,9.6-8.1c1.8-1.5,3.7-3,5.7-4.3c2.1-1.5,3.8-0.6,4.2,2c0.1,0.8,0.1,1.6,0.2,2.4
				c0.5,5.2,0.2,10.4-0.3,15.6c-0.2,2.5-1.6,4.5-3.7,6c-6.6,4.7-13.3,9.3-19.7,14.3c-4.8,3.7-9.3,7.8-13.8,11.8
				c-4.8,4.3-9.6,8.6-14.9,12.3c-3.4,2.4-6.7,4.9-10.1,7.3c0.8,1,1.5,2.1,2.2,3.2c9.4-7.5,18.7-15,28-22.5c1.4,3.2-0.2,6.8-2.8,8.1
				c-2.8,1.3-3.6,2.6-2.8,5.6c1,3.6-0.4,6.4-3.5,7.9c-1.5,0.8-2.6,2.1-2.9,3.8c-0.6,3-2.3,5.1-5.1,6.2c-1.7,0.7-3.5,1.3-5.3,1.9
				c0.3,0.8,0.6,1.5,0.9,2.3c2.8-0.7,5.5-1.8,8.1-3.2c2-1.1,3.1-2.9,3.9-4.9c0.8-1.8,1.9-3.3,3.4-4.6c2-1.7,2.9-3.8,2.6-6.5
				c-0.1-0.7,0-1.4-0.1-2.1c-0.3-2.2,0.9-3.6,2.5-4.7c2.3-1.4,3.7-3.5,4.4-6c0.2-0.7,0.5-1.4,1-2.2c0.6,1.8,1.3,3.5,1.7,5.3
				c1.7,7,1.4,14.1,0.3,21.2c-0.3,2-0.4,4-0.6,6.1c-9.2,0.6-17.7,2.6-25.9,5.8c0.4,1.2,0.7,2.5,1,3.7c0.2-0.1,0.5-0.2,0.7-0.3
				c0.3-0.1,0.6-0.2,0.9-0.3c0.1,0.1,0.2,0.2,0.3,0.4c-0.6,0.5-1.1,0.9-1.7,1.4c0.1,0.3,0.1,0.6,0.2,0.8c0.5-0.4,1-0.9,1.5-1.3
				c2-1.8,4-3.5,7.1-3.9c-2.7,2.6-5.3,5.4-8,7.9c0.3,1.6,0.6,3.2,0.8,4.8c1.1-0.9,2.2-1.8,3.2-2.9c3.2-3.1,5.9-6.7,9-9.8
				c0.7-0.7,2.2-0.7,3.3-0.9c3.7-0.5,7.4-0.9,11.1-1.4c0.2-1,0-2.1,0.5-2.8c0.5-0.6,1.7-0.7,2.5-1c5.3-2.1,10-5.3,13.7-9.6
				c2.2-2.7,4-5.7,6-8.6c0.2-0.2,0.3-0.4,0.6-0.8c0.5,3.7,0.1,7-2.5,9.5c-1.6,1.5-3.7,2.5-5.4,3.9c-2.7,2.3-5.3,4.8-8,7.2
				c-4.5,4.1-8.8,8.6-13.6,12.4c-4.6,3.7-8.8,7.7-12.9,11.8c-2.1,2.1-4.3,4.1-6.7,6c0,1.9,0,3.7-0.1,5.6c0.3-0.2,0.6-0.5,0.9-0.7
				c4.8-3.9,9.4-8.2,14.1-12.2c3.1-2.7,6.3-5.4,9.5-8c2.2-1.8,4.8-3.3,6.9-5.3c3.6-3.4,7-7.1,10.4-10.7c2.6-2.7,5.2-5.5,8.5-7.4
				c3.2-1.9,4.6-4.7,4.4-8.3c-0.2-3.8-0.6-7.5-0.9-11.3c0-0.4-0.1-0.9,0.1-1.3c1.2-3.9,2.2-7.8,2.3-11.8c0-0.7,0.1-1.4,0.3-2.1
				c1-3.5,2.2-7,3-10.6C316.3,64.8,316.3,61.7,315.3,58.6z M273.9,84.8c1.9-1.5,3.6-2.8,5.3-4.2c3.4-2.7,6.7-5.5,10.2-8.1
				c2.9-2.3,6-4.4,9-6.6c2.5-1.8,5-3.6,7.4-5.5c2-1.5,2.6-3.8,2.8-6.2c0-0.5,0.1-1.1,0.1-1.6c0.2,0,0.3-0.1,0.5-0.1
				c0.2,0.9,0.5,1.7,0.5,2.6c0.1,3.6-0.9,6.7-4.2,8.7c-1.1,0.6-2.3,1-3.4,1.6c-2,1.1-3.2,3.1-4,5.1c-0.8,2-2.1,3.4-4.2,4.2
				c-1.4,0.5-2.6,1.4-2.6,3.2c-0.1,2.2-1.3,3.6-3.2,4.6C283.7,84.7,279.1,85.4,273.9,84.8z M280.9,87.9c6.1-0.6,10.3-3.9,13.2-9.1
				c0.7-1.3,2.1-2.2,3.3-3.1c1.7-1.4,2.9-3.1,3.1-5.4c0.1-1.3,0.9-1.9,1.9-2.4c2.1-0.8,4-1.9,5.4-3.7c0.4-0.5,0.7-1,1.1-1.5
				c-5.4,13.3-14.5,23.4-26.4,31.5C282,91.9,281.5,89.9,280.9,87.9z M305.3,91.9c-2.1,4.1-4.1,8.3-6.5,12.2
				c-3.2,5.2-7.7,9.1-13.3,11.7c-0.5,0.2-1,0.6-1.6,0.8c-0.5,0.2-1,0.4-1.6,0.6c0.3-3.1,0.5-6.1,0.8-9c0-0.3,0.4-0.7,0.6-0.8
				c7.8-2.8,13.7-8.2,19.1-14.3c1.1-1.3,2.2-2.7,3.3-4c0.1,0,0.2,0.1,0.3,0.1C306.1,90.1,305.8,91,305.3,91.9z M311,70.7
				c-3,8.9-7.7,16.7-13.8,23.8c-2.9,3.3-6.2,6.2-10,8.4c-1.1,0.7-2.4,1.1-3.6,1.6c-0.2-3.1-0.5-5.9-0.7-8.9
				c5.8-3.1,10.5-7.7,15-12.6c3.6-3.9,6.8-8.1,9.4-12.7c1.8-3.1,3.4-6.2,3.3-10c0.2,0,0.3,0,0.5-0.1c0.3,1.2,1,2.4,1,3.6
				C311.9,66.2,311.8,68.6,311,70.7z"/>
			<path class="st2" d="M298.5,26.7c-3.9-0.9-7.9-1.7-11.8-2.4c-3.7-0.7-7.4-1.1-11.1-1.7c-3.3-0.5-6.6-1-9.8-1.5
				c-4.7-0.7-9.4-1.4-14.1-2.2c-4.4-0.8-8.7-1.7-13.1-2.6c-2.7-0.6-5.4-1.1-8.1-1.7c-2.9,2.8-6.9,4.6-11,4.6
				c-6.9,0-13.7-0.5-20.6-0.6c-3.1,0-6.2,0.1-9.4,0.4c-0.1,0-0.2,0-0.2,0c-0.7,0.1-1.5,0.3-2.2,0.4c-1.3,0.3-2.7,0.6-3.9,1.1
				c-3.3,1.1-6.4,2.6-9.7,3.4c-3.8,0.9-7.8,1.3-11.7,1.8c-0.2,0-1.4,0.2-2.2,0.3c-0.2,0-0.8,0.1-1.6,0.3c-0.8,0.1-1.7,0.3-2.5,0.6
				c-0.9,0.2-1.7,0.5-2.6,0.8c0.5-0.1-2.1,0.9-2.6,1.1c-10,5.2-18.2,13.3-28.5,18.2C109,53,95.5,54.1,81.6,55.7
				c-1.4,0.2-2.8,0.1-4.1-0.3c-0.9,1-1.9,1.9-3,2.6c-5.8,4.1-12,7.6-18,11.4c0.2,0.2,0.4,0.4,0.6,0.6c2.7,2.7,4.7,5.8,6.4,9.2
				c0.2,0.5,0.5,1,0.8,1.4c2.4-0.1,4.7-0.2,7.1-0.3c5-0.2,10-0.1,15.1,0c8.4,0.1,17.2-0.2,25.5,1.9c1.9,0.5,3.6,1.1,5.2,1.9
				c2.9-2.7,6.8-4.4,10.9-4.6c6.5-0.3,11.9,4.1,14.3,9.7c12.9-8.1,29.3-8.4,44.3-7.4c11.1,0.7,22.7,1.5,33.1,5.6c0,0,0,0,0,0
				c3.3-2.6,6.6-5.3,9.8-8c3.3-2.7,6.6-5.5,10-8.2c3.6-2.9,7.2-5.7,11.2-8c4.7-2.7,9.5-5.1,13.9-8.2c5.6-3.8,10.8-8.2,16.2-12.3
				c3.7-2.8,7.4-5.7,11.2-8.4c2.2-1.6,4.6-3,6.9-4.6c0.5-0.4,1.1-1.2,1-1.7C299.9,27.5,299.1,26.8,298.5,26.7z"/>
			<path class="st2" d="M195.8,113.6c-1.1-0.1-2.2-0.2-3.3-0.3c0.3,0.9,0.5,1.7,0.8,2.6C194.1,115.1,194.9,114.4,195.8,113.6z"/>
			<path class="st2" d="M154.2,125.7c0.8,0.6,1.4,1.4,2,2.2c0-4.4,1-8.6,2.7-12.4c-0.1,0.1-0.2,0.1-0.4,0.2c0,0-0.1,0-0.1,0.1
				c-0.1,0.1-0.2,0.2-0.4,0.4c-4.8,4.5-11.7,5.7-17.5,3.1c-0.1,0.4-0.2,0.8-0.3,1.3C145.7,120.7,149.7,122.2,154.2,125.7z"/>
			<path class="st2" d="M304.8,37.8c-0.1-0.8-0.1-1.6-0.2-2.4c-0.3-2.6-2.1-3.5-4.2-2c-2,1.4-3.8,2.8-5.7,4.3
				c-3.2,2.7-6.3,5.5-9.6,8.1c-4.1,3.2-8.3,6.2-12.5,9.2c-4.6,3.2-9.4,6.2-14.1,9.3c-2.9,1.9-5.9,3.8-8.8,5.8c-4.3,3-8.5,6-12.7,9.1
				c-4.2,3.1-8.4,6.2-12.6,9.3c-0.2,0.2-0.5,0.4-0.7,0.5c2.3,1.1,4.6,2.5,6.7,4c4.7,3.4,8.6,7.5,12,12c3.4-2.4,6.7-4.9,10.1-7.3
				c5.3-3.8,10.1-8,14.9-12.3c4.5-4,9-8.1,13.8-11.8c6.4-4.9,13.1-9.5,19.7-14.3c2.1-1.5,3.5-3.5,3.7-6
				C305,48.2,305.3,43,304.8,37.8z"/>
			<path class="st2" d="M305.3,101.2c-0.3,0.4-0.5,0.6-0.6,0.8c-2,2.9-3.7,6-6,8.6c-3.7,4.4-8.4,7.5-13.7,9.6c-0.9,0.3-2,0.4-2.5,1
				c-0.5,0.6-0.4,1.8-0.5,2.8c-3.7,0.4-7.4,0.9-11.1,1.4c-1.1,0.2-2.6,0.2-3.3,0.9c-3.1,3.2-5.9,6.7-9,9.8c-1,1-2.1,2-3.2,2.9
				c0.6,4.3,0.9,8.6,0.9,12.9c2.3-1.9,4.5-3.8,6.7-6c4.1-4.1,8.3-8.2,12.9-11.8c4.8-3.8,9.1-8.2,13.6-12.4c2.6-2.4,5.2-4.9,8-7.2
				c1.7-1.4,3.8-2.4,5.4-3.9C305.4,108.2,305.8,104.9,305.3,101.2z"/>
			<path class="st2" d="M278.6,92.7c-0.4-1.8-1.1-3.5-1.7-5.3c-0.5,0.8-0.8,1.5-1,2.2c-0.7,2.5-2.1,4.6-4.4,6
				c-1.7,1-2.8,2.5-2.5,4.7c0.1,0.7,0,1.4,0.1,2.1c0.3,2.6-0.6,4.8-2.6,6.5c-1.5,1.3-2.7,2.7-3.4,4.6c-0.8,2-1.9,3.8-3.9,4.9
				c-2.6,1.4-5.3,2.5-8.1,3.2c0.5,1.4,1,2.8,1.4,4.3c8.2-3.2,16.7-5.3,25.9-5.8c0.2-2.1,0.3-4.1,0.6-6.1
				C280,106.8,280.3,99.8,278.6,92.7z"/>
			<path class="st2" d="M272.5,85.7c-9.3,7.5-18.6,15-28,22.5c2.2,3.5,4.1,7.2,5.7,11c1.8-0.6,3.6-1.2,5.3-1.9
				c2.8-1.1,4.5-3.2,5.1-6.2c0.3-1.7,1.4-3,2.9-3.8c3.1-1.6,4.5-4.3,3.5-7.9c-0.8-3-0.1-4.3,2.8-5.6
				C272.3,92.6,273.9,88.9,272.5,85.7z"/>
			<path class="st2" d="M282.9,95.7c5.8-3.1,10.5-7.7,15-12.6c3.6-3.9,6.8-8.1,9.4-12.7c1.8-3.1,3.4-6.2,3.3-10c0.2,0,0.3,0,0.5-0.1
				c0.3,1.2,1,2.4,1,3.6c-0.1,2.3-0.2,4.7-0.9,6.8c-3,8.9-7.7,16.7-13.8,23.8c-2.9,3.3-6.2,6.2-10,8.4c-1.1,0.7-2.4,1.1-3.6,1.6
				C283.3,101.5,283.1,98.7,282.9,95.7z"/>
			<path class="st2" d="M309.2,52.5c0.2,0.9,0.5,1.7,0.5,2.6c0.1,3.6-0.9,6.7-4.2,8.7c-1.1,0.6-2.3,1-3.4,1.6c-2,1.1-3.2,3.1-4,5.1
				c-0.8,2-2.1,3.4-4.2,4.2c-1.4,0.5-2.6,1.4-2.6,3.2c-0.1,2.2-1.3,3.6-3.2,4.6c-4.4,2.3-9,3-14.3,2.3c1.9-1.5,3.6-2.8,5.3-4.2
				c3.4-2.7,6.7-5.5,10.2-8.1c2.9-2.3,6-4.4,9-6.6c2.5-1.8,5-3.6,7.4-5.5c2-1.5,2.6-3.8,2.8-6.2c0-0.5,0.1-1.1,0.1-1.6
				C308.9,52.6,309.1,52.5,309.2,52.5z"/>
			<path class="st2" d="M306.5,89.2c-0.4,0.9-0.7,1.8-1.2,2.7c-2.1,4.1-4.1,8.3-6.5,12.2c-3.2,5.2-7.7,9.1-13.3,11.7
				c-0.5,0.2-1,0.6-1.6,0.8c-0.5,0.2-1,0.4-1.6,0.6c0.3-3.1,0.5-6.1,0.8-9c0-0.3,0.4-0.7,0.6-0.8c7.8-2.8,13.7-8.2,19.1-14.3
				c1.1-1.3,2.2-2.7,3.3-4C306.3,89.1,306.4,89.2,306.5,89.2z"/>
			<path class="st2" d="M309,62.6c-5.4,13.3-14.5,23.4-26.4,31.5c-0.6-2.3-1.2-4.3-1.7-6.3c6.1-0.6,10.3-3.9,13.2-9.1
				c0.7-1.3,2.1-2.2,3.3-3.1c1.7-1.4,2.9-3.1,3.1-5.4c0.1-1.3,0.9-1.9,1.9-2.4c2.1-0.8,4-1.9,5.4-3.7
				C308.3,63.7,308.6,63.1,309,62.6z"/>
			<path class="st2" d="M255.5,130.2c-0.5,0.4-1,0.9-1.5,1.3c0.2,0.9,0.4,1.8,0.6,2.7c2.8-2.5,5.3-5.2,8-7.9
				C259.5,126.7,257.5,128.4,255.5,130.2z"/>
		</g>
	</g>
	<path class="st4" d="M256.4,135.8c-6.5-4.3-14.1-7-21.9-7.6c-3-0.2-6.1-0.2-9-1.3c-3.6-1.4-6.3-4.4-9.6-6.4
		c-6.3-3.8-14.4-3.4-21.1-6.4c-3.9-1.7-7.3-4.6-11.2-6.3s-9-2.1-12.1,0.9c-3.7,3.5-2.8,9.6-1,14.4c0.6,1.7,1.4,3.4,2.9,4.5
		c3,2.2,7.2,0.8,10.9,1c2.8,0.2,5.4,1.4,7.9,2.4c6.3,2.5,13.1,4.1,19.9,4.5c6.8,0.4,14.4,0.1,19.4,4.8c1.8,1.7,3,3.8,4.5,5.8
		c4.4,5.7,11.1,9.8,18.3,10.3c2.7-4.8,3-10.7,2-16.2s-3-10.7-4.5-16c-0.3-1-0.6-2-1.1-2.8c-0.6-0.9-1.4-1.7-2.2-2.4
		c-3.2-3.1-6.6,0.4-11-0.5"/>
	<path class="st4" d="M234.1,13.5c-3,0.4-5.2,3-6.6,5.6s-2.1,5.7-3.5,8.3c-4.6,8.3-15.2,10.7-23.2,15.8c-3.2,2-6,4.5-9.3,6.3
		c-5,2.7-10.8,3.4-16.4,4.2c-3.2,2.5-1.6,8,1.8,10.2c3.4,2.2,7.6,2.3,11.6,3c4.7,0.8,9.1,2.4,13.6,4c2.2,0.8,4.5,1.7,6,3.5
		c1.1,1.4,1.6,3.1,2.4,4.7c2.2,4.9,6.8,8.6,12,9.8c3.5,0.8,1.9,5.8,3.2,9.2c1.1,2.9,4.1,4.7,7.1,5.3s6.1,0.1,9.2-0.4"/>
	<path class="st4" d="M175.5,62.1c0,4.5-2,15,0.8,18.9c3,4.2,12,3,16.6,5.3c3.7,1.9,7,4.8,11,6c6,1.7,13.1-0.7,18.3,2.8
		c1.3,0.9,2.4,2.1,3.4,3.3c1.3,1.5,2.7,3,4,4.6"/>
	<path class="st4" d="M176.7,84.7c-3.4,3.2-6,7.5-6.9,12c2.4,1.6,1.1,5.4,1.4,8.2c3.5,0.5,6.6-2.2,10-2.8c3.4-0.6,6.7,0.9,9.9,2.4
		c5.9,2.8,11.7,5.5,17.6,8.3c3.3,1.6,6.7,3.1,10.2,4.3c8.9,2.8,18.4,2.7,27.8,2.3"/>
	<path class="st4" d="M245.5,111.6c-3.4-0.5-7.1,0.8-10.2-0.6c-1.2-0.5-2.1-1.4-3.3-2c-4.5-2.3-10.7,0.8-14.5-2.4
		c-2.4-2-2.8-5.6-5.1-7.6c-1-0.9-2.4-1.5-3.7-2c-2.1-0.8-4.3-1.6-6.4-2.5"/>
	<path class="st4" d="M235.1,103.9c4,0.2,8,0.4,12,0.6"/>
</g>
</svg>
